<svg preserveAspectRatio="xMidYMid meet" width="129.489" height="35" overflow="visible" style="display: block;" viewBox="0 0 129.489 35" fill="none" xmlns="http://www.w3.org/2000/svg">
<g id="Vector">
<path d="M21.8661 0.00637401L0 35H100.076L106.416 24.9084H106.872C109.028 24.9084 111.166 24.3568 113.054 23.3129C114.941 22.2691 116.545 20.7521 117.691 18.9252L117.694 18.9207L117.696 18.9162L129.489 0L21.8661 0.00637401Z" fill="#1D1D1B"/>
<path d="M38.9516 3.33816L30.8718 16.2553H27.0681L35.1479 3.33752H23.8243L20.5487 8.57975H28.7968C22.2844 8.57975 18.452 11.9351 15.001 17.4579L6.12156 31.6676H17.4452L22.1696 24.1068H25.9732L21.2488 31.6676H32.5724L50.2752 3.33689L38.9516 3.33816Z" fill="var(--fill-0, white)"/>
<path d="M59.2987 3.33816C56.0422 3.33816 53.0159 5.01585 51.2903 7.77757L36.3614 31.6689H55.3567C58.6133 31.6689 61.6396 29.9912 63.3651 27.2295L78.2941 3.33816H59.2987ZM57.1052 20.9026C55.8515 22.9093 53.6516 24.1285 51.2859 24.1285L57.5637 14.0821C58.8173 12.0754 61.0172 10.8562 63.383 10.8562L57.1052 20.9026Z" fill="var(--fill-0, white)"/>
<path d="M112.275 3.33178L106.118 13.1173C104.893 15.0699 102.75 16.2553 100.445 16.2553L108.489 3.33178H97.1803L93.9142 8.57975H102.185C95.6601 8.57975 91.8182 11.9479 88.371 17.4872L85.835 21.5849H93.3084L87.0224 31.6682H98.346L104.686 21.5766H106.983C110.233 21.5766 113.254 19.9059 114.981 17.1538L123.599 3.33178H112.275Z" fill="var(--fill-0, white)"/>
<path d="M84.765 24.1285C82.0646 24.1285 79.5541 25.5135 78.113 27.7944L93.3952 3.33752H82.0716L64.3688 31.6682H83.2538L87.9476 24.1285H84.765Z" fill="var(--fill-0, white)"/>
</g>
</svg>
