<svg preserveAspectRatio="xMidYMid meet" width="380" height="380" overflow="visible" style="display: block;" viewBox="-10.3355 0.0000 302.2830 302.2830" fill="none" xmlns="http://www.w3.org/2000/svg">
<g id="Vector">
<path d="M17.893 233.323L10.063 285.253C9.82302 286.873 10.223 288.483 11.193 289.803C12.163 291.123 13.593 291.983 15.203 292.223C18.543 292.733 21.663 290.423 22.173 287.083L30.773 230.003C25.553 230.903 21.223 232.153 17.883 233.333H17.893V233.323Z" fill="#FFED00"/>
<path d="M62.493 19.523L62.873 17.033C63.373 13.693 61.073 10.563 57.733 10.063C57.423 10.013 57.113 9.99302 56.803 9.99302C55.503 9.99302 54.243 10.403 53.183 11.193C51.863 12.163 51.003 13.593 50.763 15.203L49.713 22.173C53.353 21.203 57.633 20.273 62.503 19.523H62.493Z" fill="#FFED00"/>
<path d="M80.603 86.243C107.343 87.393 129.003 95.843 153.293 108.173L155.613 109.353C175.843 119.633 196.763 130.253 218.903 135.633C245.303 142.053 257.393 138.873 262.723 136.573L270.653 79.343C255.813 81.443 219.353 80.763 154.493 46.213C144.163 40.713 133.773 36.483 123.613 33.633C81.203 21.773 50.443 31.873 42.043 35.233L33.543 91.623C47.513 87.313 63.333 85.503 80.593 86.243H80.603Z" fill="#E6323C"/>
<path d="M245.693 149.453C235.273 149.453 224.863 147.363 216.543 145.343C193.273 139.683 171.823 128.793 151.083 118.263L148.773 117.093C124.973 105.013 105.203 97.313 80.173 96.243C62.913 95.503 47.303 97.463 33.793 102.063C33.083 102.303 32.453 102.533 31.873 102.743L23.343 159.303C37.263 155.043 52.983 153.253 70.153 153.993C93.313 154.983 117.193 161.743 141.123 174.083C143.943 175.533 146.743 177.003 149.533 178.453C168.393 188.303 186.203 197.603 206.563 202.553C219.523 205.703 240.433 205.003 254.113 198.593L261.183 147.583C256.193 148.923 250.933 149.463 245.673 149.463H245.693V149.453ZM133.163 126.253C133.833 124.873 134.993 123.823 136.433 123.303C139.463 122.193 142.833 123.743 143.933 126.763C144.473 128.233 144.383 129.883 143.703 131.293C143.033 132.673 141.873 133.723 140.433 134.243C139.773 134.483 139.093 134.603 138.413 134.603C137.603 134.603 136.793 134.433 136.033 134.093C134.603 133.453 133.473 132.243 132.933 130.773C132.393 129.303 132.483 127.653 133.163 126.243V126.253ZM168.283 160.253C163.973 164.303 158.103 166.383 151.863 166.383C147.223 166.383 142.383 165.233 137.813 162.893C127.103 157.413 120.813 146.853 122.153 136.623C122.513 133.883 125.013 131.963 127.763 132.313C130.503 132.673 132.433 135.183 132.063 137.923C131.283 143.873 135.513 150.473 142.363 153.983C149.213 157.493 157.043 157.063 161.413 152.953C163.423 151.063 166.593 151.153 168.483 153.163C170.373 155.173 170.283 158.343 168.273 160.233V160.253H168.283ZM167.743 146.763C167.073 147.003 166.393 147.123 165.733 147.123C163.343 147.123 161.103 145.663 160.243 143.303C159.703 141.833 159.793 140.183 160.473 138.773C161.143 137.393 162.303 136.343 163.743 135.823C165.183 135.293 166.743 135.353 168.143 135.973C169.573 136.613 170.703 137.823 171.243 139.283C172.343 142.303 170.773 145.653 167.743 146.763Z" fill="white"/>
<path d="M46.603 218.553C65.953 218.553 91.223 223.723 120.813 241.593C143.483 255.283 178.063 270.893 214.073 267.533C230.733 265.983 241.693 260.853 245.803 258.613L252.543 209.983C243.613 213.023 233.333 214.353 223.763 214.353C216.533 214.353 209.723 213.603 204.213 212.263C182.663 207.023 163.473 197.003 144.913 187.313C142.133 185.863 139.353 184.413 136.553 182.963C113.913 171.293 91.433 164.903 69.733 163.973C52.483 163.233 36.873 165.193 23.353 169.793C22.733 170.003 22.193 170.193 21.673 170.383L13.563 224.173C20.723 221.503 31.963 218.543 46.593 218.543H46.603V218.553Z" fill="#E6323C"/>
<path d="M281.563 73.533C281.813 71.753 281.103 69.963 279.683 68.873C278.253 67.783 276.383 67.523 274.723 68.223C274.393 68.353 240.703 80.793 159.213 37.383C148.253 31.543 137.183 27.043 126.323 24.003C105.443 18.163 87.293 17.253 72.783 18.353C74.003 9.63302 67.953 1.50302 59.223 0.183016C54.963 -0.456984 50.713 0.593016 47.243 3.15302C43.773 5.71302 41.513 9.46302 40.873 13.723L39.083 25.633C36.853 26.513 35.533 27.153 35.273 27.293C33.823 28.023 32.823 29.413 32.583 31.013L2.31302 231.843C2.02302 233.763 2.88302 235.673 4.49302 236.743C5.29302 237.273 6.21302 237.553 7.14302 237.573L0.183016 283.753C-0.456984 288.013 0.593016 292.263 3.15302 295.733C5.71302 299.193 9.46302 301.463 13.723 302.103C14.533 302.223 15.343 302.283 16.133 302.283C23.973 302.283 30.863 296.543 32.063 288.563L41.063 228.823C57.983 227.863 84.003 231.063 115.643 250.163C137.373 263.283 169.473 278.003 204.063 278.003C207.923 278.003 211.823 277.823 215.733 277.433C239.473 275.063 252.683 266.213 253.233 265.833C254.403 265.043 255.173 263.783 255.363 262.393L272.203 140.903C272.253 140.663 272.293 140.423 272.303 140.183L281.543 73.553L281.563 73.533ZM15.203 292.213C13.583 291.973 12.163 291.113 11.193 289.793C10.223 288.473 9.82302 286.863 10.063 285.243L17.893 233.313C21.233 232.133 25.563 230.893 30.783 229.983L22.183 287.063C21.683 290.403 18.563 292.713 15.213 292.203H15.203V292.213ZM13.573 224.183L21.683 170.393C22.193 170.203 22.743 170.013 23.363 169.803C36.873 165.203 52.483 163.243 69.743 163.983C91.443 164.913 113.923 171.303 136.563 182.973C139.363 184.413 142.153 185.873 144.923 187.323C163.483 197.013 182.673 207.033 204.223 212.273C209.733 213.613 216.553 214.363 223.773 214.363C233.343 214.363 243.623 213.033 252.553 209.993L245.813 258.623C241.703 260.863 230.753 265.993 214.083 267.543C178.063 270.903 143.493 255.283 120.823 241.603C91.223 223.733 65.953 218.563 46.613 218.563C31.983 218.563 20.743 221.523 13.583 224.193L13.573 224.183ZM53.183 11.203C54.243 10.413 55.503 10.003 56.803 10.003C57.113 10.003 57.423 10.023 57.733 10.073C61.073 10.573 63.383 13.703 62.873 17.043L62.493 19.533C57.633 20.283 53.353 21.223 49.703 22.183L50.753 15.213C50.993 13.593 51.853 12.173 53.173 11.203H53.183ZM123.623 33.633C133.793 36.473 144.183 40.703 154.503 46.213C219.363 80.763 255.823 81.443 270.663 79.343L262.733 136.573C257.403 138.873 245.313 142.053 218.913 135.633C196.773 130.253 175.853 119.623 155.623 109.353L153.303 108.173C129.003 95.843 107.343 87.393 80.613 86.243C63.343 85.503 47.533 87.313 33.563 91.623L42.063 35.233C50.453 31.873 81.223 21.773 123.633 33.633H123.623ZM254.133 198.593C240.463 205.003 219.553 205.703 206.583 202.553C186.223 197.603 168.413 188.303 149.553 178.453C146.763 176.993 143.963 175.533 141.143 174.083C117.203 161.743 93.323 154.983 70.173 153.993C53.003 153.253 37.283 155.043 23.363 159.303L31.893 102.743C32.473 102.523 33.113 102.303 33.813 102.063C47.323 97.463 62.923 95.503 80.193 96.243C105.223 97.323 124.993 105.023 148.793 117.093L151.103 118.263C171.843 128.793 193.293 139.693 216.563 145.343C224.883 147.363 235.293 149.453 245.713 149.453C250.973 149.453 256.233 148.923 261.223 147.573L254.153 198.583H254.133V198.593Z" fill="var(--fill-0, black)"/>
<path d="M161.423 152.973C157.053 157.083 149.213 157.503 142.373 154.003C135.523 150.493 131.293 143.893 132.073 137.943C132.433 135.203 130.503 132.693 127.773 132.333C125.023 131.973 122.523 133.903 122.163 136.643C120.823 146.873 127.113 157.423 137.823 162.913C142.393 165.253 147.233 166.403 151.873 166.403C158.113 166.403 163.983 164.323 168.293 160.273C170.303 158.383 170.403 155.213 168.503 153.203C166.613 151.193 163.443 151.093 161.433 152.993V152.973H161.423Z" fill="var(--fill-0, black)"/>
<path d="M168.143 135.963C166.743 135.343 165.183 135.283 163.743 135.813C162.303 136.343 161.143 137.393 160.473 138.763C159.793 140.173 159.703 141.823 160.243 143.293C161.103 145.653 163.343 147.113 165.733 147.113C166.403 147.113 167.083 146.993 167.743 146.753C170.773 145.643 172.343 142.283 171.243 139.273C170.703 137.803 169.573 136.593 168.143 135.963Z" fill="var(--fill-0, black)"/>
<path d="M136.033 134.103C136.793 134.443 137.603 134.613 138.413 134.613C139.093 134.613 139.773 134.493 140.433 134.253C141.873 133.723 143.033 132.673 143.703 131.303C144.383 129.893 144.473 128.243 143.933 126.773C142.833 123.753 139.463 122.203 136.433 123.303C134.993 123.833 133.833 124.883 133.163 126.253C132.483 127.663 132.393 129.313 132.933 130.783C133.473 132.253 134.603 133.463 136.033 134.103Z" fill="var(--fill-0, black)"/>
</g>
</svg>
