<svg preserveAspectRatio="xMidYMid meet" width="380" height="380" overflow="visible" style="display: block;" viewBox="0.0000 -21.3440 359.2280 359.2280" fill="none" xmlns="http://www.w3.org/2000/svg">
<g id="Vector">
<path d="M287.166 143.78C285.216 142.39 284.536 139.81 285.536 137.63C286.686 135.13 287.266 132.46 287.266 129.7C287.266 122.91 283.596 116.58 277.696 113.19C276.346 112.42 275.436 111.06 275.236 109.51C273.986 100.11 265.876 93.01 256.376 93.01C254.226 93.01 252.126 93.37 250.126 94.07C249.576 98.1 247.856 102.78 244.016 107.89C243.036 109.2 241.536 109.89 240.016 109.89C238.976 109.89 237.916 109.56 237.016 108.89C234.806 107.23 234.356 104.1 236.016 101.89C241.166 95.03 240.676 89.97 239.796 87.38C234.516 76.01 223.186 68.64 210.326 68.64C199.586 68.64 189.536 73.94 183.456 82.82C182.526 84.18 180.976 84.99 179.336 84.99C177.696 84.99 176.146 84.18 175.216 82.82C169.136 73.94 159.086 68.64 148.346 68.64C134.056 68.64 121.576 77.79 117.296 91.41C116.876 92.75 115.906 93.86 114.626 94.45C113.346 95.04 111.876 95.06 110.576 94.51C108.226 93.51 105.726 93.01 103.146 93.01C93.5762 93.01 85.4662 100.16 84.2762 109.64C84.0862 111.17 83.1962 112.53 81.8662 113.32C76.1062 116.74 72.5262 123.01 72.5262 129.7C72.5262 132.46 73.1062 135.12 74.2562 137.62C75.2562 139.8 74.5762 142.37 72.6262 143.77C64.1062 149.88 59.0162 159.77 59.0162 170.23C59.0162 185.6 69.9262 199.01 84.9562 202.1C86.8262 202.49 88.3162 203.9 88.7862 205.75C92.4762 220.14 105.436 230.18 120.316 230.18C130.616 230.18 140.096 225.45 146.316 217.21C147.266 215.95 148.746 215.22 150.306 215.22C150.486 215.22 150.666 215.22 150.846 215.25C152.596 215.44 154.116 216.53 154.856 218.13C159.346 227.9 169.186 234.21 179.916 234.21C190.646 234.21 200.476 227.91 204.966 218.15C205.706 216.55 207.226 215.46 208.966 215.27C210.706 215.08 212.436 215.82 213.496 217.23C219.716 225.46 229.186 230.17 239.476 230.17C252.536 230.17 264.116 222.43 269.246 210.8C265.246 210.31 260.886 209.07 256.286 206.66C253.836 205.38 252.886 202.36 254.166 199.91C255.446 197.46 258.466 196.51 260.916 197.79C272.736 203.96 282.186 199.75 285.566 197.76C294.806 191.93 300.806 181.61 300.806 170.2C300.806 159.74 295.716 149.85 287.196 143.74L287.166 143.78ZM108.006 189.41C107.366 191.59 105.376 193.01 103.206 193.01C102.746 193.01 102.266 192.95 101.806 192.81C99.1562 192.04 97.6362 189.26 98.4062 186.61C98.9362 184.81 98.7262 182.91 97.8262 181.27C96.9262 179.63 95.4362 178.43 93.6362 177.91C89.9262 176.83 86.0162 178.96 84.9362 182.68C84.1662 185.33 81.3862 186.85 78.7362 186.08C76.0862 185.31 74.5662 182.53 75.3362 179.88C76.8862 174.58 80.8062 170.62 85.6062 168.78C83.1862 163.21 82.5662 155.52 87.5162 146.35C88.8262 143.92 91.8662 143.02 94.2962 144.33C96.7262 145.64 97.6262 148.68 96.3162 151.11C90.7962 161.32 95.7962 167.1 97.5462 168.69C101.406 170.11 104.606 172.82 106.596 176.47C108.776 180.46 109.286 185.05 108.006 189.42V189.41ZM131.116 166.47C121.736 166.47 114.096 158.84 114.096 149.45C114.096 140.06 121.726 132.43 131.116 132.43C140.506 132.43 148.136 140.06 148.136 149.45C148.136 158.84 140.506 166.47 131.116 166.47ZM150.256 110.73C148.206 110.73 146.166 110.36 144.196 109.61C139.946 107.99 136.586 104.82 134.726 100.67C133.596 98.15 134.726 95.19 137.246 94.06C139.766 92.93 142.726 94.06 143.856 96.58C144.626 98.29 146.006 99.6 147.766 100.27C149.516 100.94 151.426 100.88 153.136 100.12C154.846 99.35 156.156 97.97 156.826 96.21C157.496 94.46 157.436 92.55 156.676 90.84C155.546 88.32 156.676 85.36 159.196 84.23C161.716 83.1 164.676 84.23 165.806 86.75C167.666 90.9 167.796 95.52 166.186 99.77C165.946 100.41 165.646 101.03 165.336 101.63C168.366 103.32 171.246 106.18 173.156 110.82C174.206 113.37 172.986 116.3 170.436 117.35C169.816 117.61 169.166 117.73 168.536 117.73C166.566 117.73 164.706 116.56 163.906 114.63C163.336 113.25 161.146 108.91 156.426 109.56C154.436 110.33 152.366 110.75 150.276 110.75L150.256 110.73ZM205.386 176.63C203.576 189.31 193.196 203 179.596 203C165.996 203 155.616 189.31 153.806 176.63C153.486 174.38 154.156 172.1 155.656 170.37C157.176 168.62 159.366 167.62 161.686 167.62C162.156 167.62 162.626 167.69 163.086 167.82L171.196 170.18C176.886 171.84 182.886 171.81 188.566 170.1L196.076 167.83C196.546 167.69 197.036 167.62 197.516 167.62C199.826 167.62 202.026 168.62 203.546 170.37C205.046 172.1 205.716 174.38 205.396 176.63H205.386ZM227.126 166.47C217.746 166.47 210.106 158.84 210.106 149.45C210.106 140.06 217.736 132.43 227.126 132.43C236.516 132.43 244.146 140.06 244.146 149.45C244.146 158.84 236.516 166.47 227.126 166.47ZM287.116 168.76C286.246 173.22 283.686 177.08 279.916 179.61C279.056 180.19 278.086 180.46 277.126 180.46C275.516 180.46 273.936 179.69 272.976 178.25C271.436 175.96 272.036 172.85 274.326 171.31C277.536 169.15 278.386 164.78 276.226 161.57C275.176 160.01 273.586 158.96 271.746 158.6C269.906 158.24 268.036 158.62 266.486 159.67C264.196 161.21 261.086 160.61 259.546 158.32C258.006 156.03 258.606 152.92 260.896 151.38C268.676 146.14 279.276 148.21 284.516 155.99C287.056 159.76 287.976 164.29 287.106 168.76H287.116Z" fill="#F29FC5"/>
<path d="M227.126 142.44C225.476 142.44 223.956 143.02 222.756 143.98C225.156 144.65 226.926 146.85 226.926 149.46C226.926 152.07 225.156 154.27 222.756 154.94C223.956 155.9 225.476 156.48 227.126 156.48C230.996 156.48 234.146 153.33 234.146 149.46C234.146 145.59 230.996 142.44 227.126 142.44Z" fill="white"/>
<path d="M225.546 149.46C225.546 147.2 223.796 145.36 221.576 145.19C220.666 146.38 220.116 147.85 220.116 149.46C220.116 151.07 220.666 152.55 221.576 153.73C223.796 153.55 225.546 151.72 225.546 149.46Z" fill="var(--fill-0, black)"/>
<path d="M227.126 132.44C217.746 132.44 210.106 140.07 210.106 149.46C210.106 158.85 217.736 166.48 227.126 166.48C236.516 166.48 244.146 158.85 244.146 149.46C244.146 140.07 236.516 132.44 227.126 132.44ZM227.126 156.47C225.476 156.47 223.956 155.89 222.756 154.93C225.156 154.26 226.926 152.06 226.926 149.45C226.926 146.84 225.156 144.64 222.756 143.97C223.956 143.01 225.476 142.43 227.126 142.43C230.996 142.43 234.146 145.58 234.146 149.45C234.146 153.32 230.996 156.47 227.126 156.47ZM221.576 153.73C220.666 152.54 220.116 151.07 220.116 149.46C220.116 147.85 220.666 146.37 221.576 145.19C223.796 145.37 225.546 147.2 225.546 149.46C225.546 151.72 223.796 153.56 221.576 153.73Z" fill="var(--fill-0, black)"/>
<path d="M129.296 149.31C129.296 147.16 127.706 145.39 125.656 145.07C124.686 146.27 124.106 147.8 124.106 149.46C124.106 151 124.606 152.42 125.456 153.58C127.616 153.35 129.306 151.54 129.306 149.32H129.296V149.31Z" fill="var(--fill-0, black)"/>
<path d="M131.116 142.44C129.496 142.44 128.006 143 126.816 143.93C129.056 144.69 130.676 146.82 130.676 149.31C130.676 151.8 128.926 154.09 126.556 154.78C127.786 155.83 129.376 156.48 131.116 156.48C134.986 156.48 138.136 153.33 138.136 149.46C138.136 145.59 134.986 142.44 131.116 142.44Z" fill="white"/>
<path d="M131.116 132.44C121.736 132.44 114.096 140.07 114.096 149.46C114.096 158.85 121.726 166.48 131.116 166.48C140.506 166.48 148.136 158.85 148.136 149.46C148.136 140.07 140.506 132.44 131.116 132.44ZM131.116 156.47C129.376 156.47 127.786 155.83 126.556 154.77C128.936 154.09 130.676 151.9 130.676 149.3C130.676 146.7 129.056 144.68 126.816 143.92C128.006 142.99 129.496 142.43 131.116 142.43C134.986 142.43 138.136 145.58 138.136 149.45C138.136 153.32 134.986 156.47 131.116 156.47ZM125.446 153.57C124.606 152.41 124.096 150.99 124.096 149.45C124.096 147.79 124.676 146.27 125.646 145.06C127.706 145.38 129.286 147.15 129.286 149.3C129.286 151.45 127.596 153.33 125.436 153.56H125.446V153.57Z" fill="var(--fill-0, black)"/>
<path d="M290.116 61.92C299.516 61.92 305.126 67.53 305.126 76.93C305.126 79.69 307.366 81.93 310.126 81.93C312.886 81.93 315.126 79.69 315.126 76.93C315.126 67.53 320.736 61.92 330.136 61.92C332.896 61.92 335.136 59.68 335.136 56.92C335.136 54.16 332.896 51.92 330.136 51.92C320.736 51.92 315.126 46.31 315.126 36.91C315.126 34.15 312.886 31.91 310.126 31.91C307.366 31.91 305.126 34.15 305.126 36.91C305.126 46.31 299.516 51.92 290.116 51.92C287.356 51.92 285.116 54.16 285.116 56.92C285.116 59.68 287.356 61.92 290.116 61.92Z" fill="var(--fill-0, black)"/>
<path d="M60.1262 30.01C69.5262 30.01 75.1362 35.62 75.1362 45.02C75.1362 47.78 77.3762 50.02 80.1362 50.02C82.8962 50.02 85.1362 47.78 85.1362 45.02C85.1362 35.62 90.7462 30.01 100.146 30.01C102.906 30.01 105.146 27.77 105.146 25.01C105.146 22.25 102.906 20.01 100.146 20.01C90.7462 20.01 85.1362 14.4 85.1362 5C85.1362 2.24 82.8962 0 80.1362 0C77.3762 0 75.1362 2.24 75.1362 5C75.1362 14.4 69.5262 20.01 60.1262 20.01C57.3662 20.01 55.1262 22.25 55.1262 25.01C55.1262 27.77 57.3662 30.01 60.1262 30.01Z" fill="var(--fill-0, black)"/>
<path d="M196.516 286.53C187.116 286.53 181.506 280.92 181.506 271.52C181.506 268.76 179.266 266.52 176.506 266.52C173.746 266.52 171.506 268.76 171.506 271.52C171.506 280.92 165.896 286.53 156.496 286.53C153.736 286.53 151.496 288.77 151.496 291.53C151.496 294.29 153.736 296.53 156.496 296.53C165.896 296.53 171.506 302.14 171.506 311.54C171.506 314.3 173.746 316.54 176.506 316.54C179.266 316.54 181.506 314.3 181.506 311.54C181.506 302.14 187.116 296.53 196.516 296.53C199.276 296.53 201.516 294.29 201.516 291.53C201.516 288.77 199.276 286.53 196.516 286.53Z" fill="var(--fill-0, black)"/>
<path d="M355.686 116.01C353.046 115.2 350.246 116.67 349.436 119.31C346.416 129.07 339.186 146.29 332.626 150.96C325.286 156.18 313.976 156.85 308.616 156.85C306.216 149.63 301.896 143.1 296.056 138.05C296.866 135.35 297.276 132.56 297.276 129.7C297.276 120.15 292.526 111.2 284.736 105.81C281.846 92.66 270.066 83.02 256.386 83.02C253.946 83.02 251.556 83.32 249.226 83.91C249.016 83.44 248.806 82.98 248.586 82.52C248.146 81.53 247.716 80.76 247.386 80.24C239.976 67.04 226.026 58.65 210.336 58.65C198.506 58.65 187.326 63.57 179.346 72.06C171.366 63.57 160.186 58.65 148.356 58.65C131.366 58.65 116.346 68.54 109.546 83.73C107.466 83.26 105.326 83.02 103.156 83.02C89.3662 83.02 77.5562 92.76 74.7562 106.03C67.1562 111.44 62.5262 120.3 62.5262 129.7C62.5262 132.56 62.9362 135.36 63.7462 138.05C56.0862 144.68 51.0462 153.85 49.5162 163.8C43.8162 163.71 33.4662 162.81 26.5862 157.92C20.0162 153.25 12.7862 136.03 9.77619 126.27C8.96619 123.63 6.15619 122.15 3.52619 122.97C0.886189 123.78 -0.593811 126.58 0.226189 129.22C1.12619 132.13 9.33619 157.92 20.8062 166.07C29.7762 172.45 42.2162 173.67 49.1762 173.8C50.6662 191.36 63.0062 206.37 79.9762 211.17C85.7362 228.4 101.916 240.19 120.326 240.19C131.346 240.19 141.636 236.06 149.466 228.65C156.456 238.29 167.756 244.23 179.916 244.23C192.076 244.23 203.366 238.3 210.356 228.67C218.186 236.06 228.476 240.19 239.476 240.19C257.886 240.19 274.066 228.41 279.826 211.18C283.886 210.04 287.676 208.3 291.126 206.09C292.246 205.4 292.926 204.89 293.046 204.79L293.106 204.73C303.906 196.91 310.806 184.19 310.806 170.22C310.806 169.08 310.746 167.94 310.656 166.81C317.716 166.62 329.706 165.3 338.436 159.09C349.896 150.94 358.116 125.15 359.006 122.24C359.816 119.6 358.336 116.8 355.706 115.99L355.686 116.01ZM285.536 197.8C282.156 199.79 272.706 204 260.886 197.83C258.436 196.55 255.416 197.5 254.136 199.95C252.856 202.4 253.806 205.42 256.256 206.7C260.856 209.1 265.216 210.35 269.216 210.84C264.086 222.46 252.496 230.21 239.446 230.21C229.156 230.21 219.686 225.49 213.466 217.27C212.406 215.87 210.686 215.13 208.936 215.31C207.186 215.5 205.666 216.59 204.936 218.19C200.446 227.95 190.606 234.25 179.886 234.25C169.166 234.25 159.306 227.94 154.826 218.17C154.096 216.57 152.566 215.48 150.816 215.29C150.636 215.27 150.456 215.26 150.276 215.26C148.716 215.26 147.236 215.99 146.286 217.25C140.066 225.49 130.596 230.22 120.286 230.22C105.416 230.22 92.4462 220.17 88.7562 205.79C88.2862 203.94 86.7962 202.52 84.9262 202.14C69.8962 199.04 58.9862 185.64 58.9862 170.27C58.9862 159.81 64.0762 149.92 72.5962 143.81C74.5462 142.41 75.2262 139.84 74.2262 137.66C73.0762 135.16 72.4962 132.49 72.4962 129.74C72.4962 123.06 76.0762 116.78 81.8362 113.36C83.1662 112.57 84.0562 111.22 84.2462 109.68C85.4362 100.2 93.5562 93.05 103.116 93.05C105.696 93.05 108.196 93.56 110.546 94.55C111.846 95.1 113.316 95.08 114.596 94.49C115.876 93.9 116.846 92.79 117.266 91.45C121.546 77.83 134.026 68.68 148.316 68.68C159.056 68.68 169.106 73.98 175.186 82.86C176.116 84.22 177.666 85.03 179.306 85.03C180.946 85.03 182.496 84.22 183.426 82.86C189.506 73.98 199.556 68.68 210.296 68.68C223.156 68.68 234.476 76.06 239.766 87.42C240.646 90.01 241.136 95.07 235.986 101.93C234.326 104.14 234.776 107.27 236.986 108.93C237.886 109.6 238.936 109.93 239.986 109.93C241.506 109.93 243.006 109.24 243.986 107.93C247.826 102.82 249.546 98.13 250.096 94.11C252.096 93.41 254.196 93.05 256.346 93.05C265.846 93.05 273.956 100.14 275.206 109.55C275.416 111.09 276.326 112.45 277.666 113.23C283.566 116.62 287.236 122.95 287.236 129.74C287.236 132.5 286.656 135.16 285.506 137.67C284.506 139.85 285.196 142.42 287.136 143.82C295.656 149.93 300.746 159.82 300.746 170.28C300.746 181.69 294.736 192.01 285.506 197.84L285.536 197.8Z" fill="var(--fill-0, black)"/>
<path d="M97.5362 168.68C95.7862 167.08 90.7862 161.31 96.3062 151.1C97.6162 148.67 96.7162 145.64 94.2862 144.32C91.8562 143.01 88.8262 143.91 87.5062 146.34C82.5462 155.5 83.1662 163.19 85.5962 168.77C80.7962 170.61 76.8762 174.57 75.3262 179.87C74.5562 182.52 76.0762 185.3 78.7262 186.07C81.3762 186.84 84.1562 185.32 84.9262 182.67C86.0062 178.96 89.9162 176.82 93.6262 177.9C95.4262 178.43 96.9162 179.62 97.8162 181.26C98.7162 182.9 98.9262 184.8 98.3962 186.6C97.6262 189.25 99.1462 192.03 101.796 192.8C102.266 192.94 102.736 193 103.196 193C105.356 193 107.356 191.58 107.996 189.4C109.266 185.04 108.766 180.44 106.586 176.45C104.586 172.81 101.396 170.09 97.5362 168.67V168.68Z" fill="var(--fill-0, black)"/>
<path d="M260.916 151.39C258.626 152.93 258.016 156.04 259.566 158.33C261.106 160.62 264.216 161.23 266.506 159.68C268.056 158.63 269.936 158.25 271.766 158.61C273.606 158.97 275.196 160.02 276.246 161.58C278.406 164.79 277.556 169.16 274.346 171.32C272.056 172.86 271.446 175.97 272.996 178.26C273.966 179.69 275.536 180.47 277.146 180.47C278.106 180.47 279.076 180.19 279.936 179.62C283.706 177.08 286.266 173.23 287.136 168.77C288.006 164.31 287.086 159.78 284.546 156C279.306 148.22 268.716 146.15 260.926 151.39H260.916Z" fill="var(--fill-0, black)"/>
<path d="M163.876 114.62C164.666 116.55 166.536 117.72 168.506 117.72C169.136 117.72 169.786 117.6 170.406 117.34C172.956 116.29 174.176 113.37 173.126 110.81C171.216 106.16 168.336 103.3 165.306 101.62C165.616 101.02 165.916 100.41 166.156 99.76C167.776 95.51 167.636 90.89 165.776 86.74C164.646 84.22 161.686 83.09 159.166 84.22C156.646 85.35 155.516 88.31 156.646 90.83C157.416 92.54 157.466 94.45 156.796 96.2C156.126 97.95 154.816 99.34 153.106 100.11C151.396 100.88 149.486 100.93 147.736 100.26C145.986 99.59 144.596 98.28 143.826 96.57C142.696 94.05 139.736 92.92 137.216 94.05C134.696 95.18 133.566 98.14 134.696 100.66C136.556 104.81 139.916 107.98 144.166 109.6C146.136 110.35 148.186 110.72 150.226 110.72C152.266 110.72 154.386 110.31 156.376 109.53C161.086 108.88 163.286 113.23 163.856 114.6L163.876 114.62Z" fill="var(--fill-0, black)"/>
<path d="M178.876 181.39C173.716 181.39 169.746 182.95 167.816 185.5C170.786 189.82 175.006 193.01 179.596 193.01C183.796 193.01 187.686 190.34 190.596 186.57C189.036 183.39 184.716 181.4 178.876 181.4V181.39Z" fill="#E6323C"/>
<path d="M197.506 167.62C197.016 167.62 196.526 167.69 196.066 167.83L188.556 170.1C182.886 171.81 176.876 171.84 171.186 170.18L163.076 167.82C162.626 167.69 162.146 167.62 161.676 167.62C159.366 167.62 157.166 168.62 155.646 170.37C154.146 172.1 153.476 174.38 153.796 176.63C155.606 189.31 165.986 203 179.586 203C193.186 203 203.566 189.31 205.376 176.63C205.696 174.38 205.026 172.1 203.526 170.37C202.006 168.62 199.816 167.62 197.496 167.62H197.506ZM179.596 193C175.016 193 170.786 189.81 167.816 185.49C169.746 182.94 173.716 181.38 178.876 181.38C184.716 181.38 189.036 183.38 190.596 186.55C187.686 190.32 183.796 192.99 179.596 192.99V193Z" fill="var(--fill-0, black)"/>
</g>
</svg>
