<svg preserveAspectRatio="xMidYMid meet" width="380" height="380" overflow="visible" style="display: block;" viewBox="-49.0550 0.0000 359.9000 359.9000" fill="none" xmlns="http://www.w3.org/2000/svg">
<g id="Vector">
<path d="M223.69 184.98H188.56C185.8 184.98 183.56 182.74 183.56 179.98C183.56 177.22 185.8 174.98 188.56 174.98H201.68C216.34 174.98 228.26 160.18 228.26 141.99C228.26 123.8 216.33 109 201.68 109H129.46C126.7 109 124.46 106.76 124.46 104C124.46 101.24 126.7 99 129.46 99H157.87C188.03 99 194.18 76.28 195.16 62.74C195.96 51.75 197.82 26 187.73 15.15C184.51 11.69 180.25 10 174.71 10C158.39 10 156.28 20.25 154.75 37.13C154.33 41.76 153.93 46.14 152.91 49.99C148.39 67.03 135.48 75.19 112.26 75.65C107.4 75.75 95.87 75.73 88.97 75.71H85.14C61.99 75.71 47.02 87.61 47.02 106.02V108.61C47.02 125.33 57.95 138.93 71.38 138.93C74.14 138.93 76.38 141.17 76.38 143.93C76.38 146.69 74.14 148.93 71.38 148.93H38.88C22.95 148.93 9.99 164.98 9.99 184.7C9.99 204.42 22.95 220.47 38.88 220.47H71.02C73.78 220.47 76.02 222.71 76.02 225.47C76.02 228.23 73.78 230.47 71.02 230.47C53.13 230.47 38.3 245.01 37.96 262.89C37.79 271.62 41.15 279.95 47.41 286.33C53.81 292.86 62.69 296.6 71.77 296.6H107.03C115.37 296.6 122.25 299.52 126.94 305.04C133.75 313.06 134.7 324.87 133.44 332.55C132.58 337.79 133.49 341.9 136.14 344.77C139.86 348.8 146.76 350.2 151.61 349.8C167.69 348.47 174.12 324.93 174.51 309.43C174.85 296.02 170.29 283.12 162.31 274.93C155.62 268.06 146.89 264.58 136.39 264.58H109.44C106.68 264.58 104.44 262.34 104.44 259.58C104.44 256.82 106.68 254.58 109.44 254.58H223.68C239.17 254.58 251.77 238.97 251.77 219.77C251.77 200.57 239.17 184.96 223.68 184.96V184.98H223.69ZM92.2 163.16C92.2 165.92 89.96 168.16 87.2 168.16C84.44 168.16 82.2 165.92 82.2 163.16C82.2 154.89 88.95 148.14 97.29 148H97.7C106.05 148.14 112.79 154.88 112.79 163.16C112.79 165.92 110.55 168.16 107.79 168.16C105.03 168.16 102.79 165.92 102.79 163.16C102.79 160.4 100.42 158.03 97.49 158C94.56 158.03 92.19 160.33 92.19 163.16H92.2ZM166 194.12C161.37 207.08 147.38 215.78 131.18 215.78H131.15C114.94 215.78 100.94 207.04 96.33 194.07C95.32 191.24 95.76 188.18 97.53 185.68C99.6 182.75 103.15 181.01 107.05 181.01L155.3 181.05C159.2 181.05 162.75 182.8 164.82 185.74C166.58 188.24 167.01 191.3 166 194.13V194.12ZM174.72 168.16C171.96 168.16 169.72 165.92 169.72 163.16C169.72 160.4 167.35 158.03 164.42 158C161.49 158.03 159.12 160.33 159.12 163.16C159.12 165.99 156.88 168.16 154.12 168.16C151.36 168.16 149.12 165.92 149.12 163.16C149.12 154.89 155.87 148.14 164.21 148H164.62C172.97 148.14 179.71 154.88 179.71 163.16C179.71 165.92 177.47 168.16 174.71 168.16H174.72Z" fill="#E6323C"/>
<path d="M225.08 175.01C233.13 167.12 238.26 155.24 238.26 141.99C238.26 118.28 221.85 99 201.68 99H188.72C198.22 91.18 204.01 79.04 205.14 63.46C206.61 43.14 206.57 20.71 195.06 8.34C189.91 2.81 183.07 0 174.72 0C148.09 0 146.11 21.8 144.8 36.23C144.42 40.43 144.06 44.4 143.25 47.44C140.81 56.63 135.35 65.2 112.07 65.67C107.32 65.76 95.4 65.74 89 65.73H85.15C70.78 65.73 58.6 69.73 49.92 77.3C41.61 84.56 37.03 94.76 37.03 106.04V108.63C37.03 120.7 41.58 131.55 48.76 138.95H38.89C17.44 138.95 0 159.48 0 184.72C0 209.96 17.45 230.49 38.89 230.49H43.57C34.27 238.24 28.22 249.81 27.98 262.72C27.76 274.16 32.13 285.04 40.29 293.36C48.56 301.79 60.04 306.63 71.79 306.63H107.05C112.51 306.63 116.53 308.24 119.34 311.55C124.27 317.36 124.28 326.79 123.59 330.97C121.87 341.47 125.48 347.98 128.81 351.59C134.52 357.78 143.3 359.9 150.01 359.9C150.86 359.9 151.68 359.87 152.45 359.8C173.65 358.05 183.94 332.61 184.53 309.72C184.95 293.43 179.47 278.21 169.49 267.98C168.32 266.78 167.09 265.66 165.82 264.61H223.7C244.7 264.61 261.79 244.51 261.79 219.8C261.79 195.09 245.45 175.89 225.09 175.02H225.08V175.01ZM223.69 254.59H109.45C106.69 254.59 104.45 256.83 104.45 259.59C104.45 262.35 106.69 264.59 109.45 264.59H136.4C146.91 264.59 155.63 268.07 162.32 274.94C170.3 283.13 174.87 296.03 174.52 309.44C174.12 324.94 167.7 348.48 151.62 349.81C146.77 350.21 139.87 348.81 136.15 344.78C133.5 341.91 132.59 337.79 133.45 332.56C134.71 324.88 133.76 313.07 126.95 305.05C122.26 299.53 115.37 296.61 107.04 296.61H71.78C62.7 296.61 53.82 292.87 47.42 286.34C41.16 279.96 37.8 271.63 37.97 262.9C38.31 245.02 53.14 230.48 71.03 230.48C73.79 230.48 76.03 228.24 76.03 225.48C76.03 222.72 73.79 220.48 71.03 220.48H38.89C22.96 220.48 10 204.43 10 184.71C10 164.99 22.96 148.94 38.89 148.94H71.39C74.15 148.94 76.39 146.7 76.39 143.94C76.39 141.18 74.15 138.94 71.39 138.94C57.96 138.94 47.03 125.34 47.03 108.62V106.03C47.03 87.61 61.99 75.71 85.15 75.71H88.98C95.87 75.73 107.41 75.75 112.27 75.65C135.49 75.19 148.4 67.03 152.92 49.99C153.94 46.14 154.34 41.76 154.76 37.13C156.3 20.25 158.41 10 174.72 10C180.26 10 184.52 11.68 187.74 15.15C197.83 26 195.96 51.75 195.17 62.74C194.19 76.28 188.04 99 157.88 99H129.47C126.71 99 124.47 101.24 124.47 104C124.47 106.76 126.71 109 129.47 109H201.69C216.35 109 228.27 123.8 228.27 141.99C228.27 160.18 216.34 174.98 201.69 174.98H188.57C185.81 174.98 183.57 177.22 183.57 179.98C183.57 182.74 185.81 184.98 188.57 184.98H223.7C239.19 184.98 251.79 200.59 251.79 219.79C251.79 238.99 239.19 254.6 223.7 254.6L223.69 254.59Z" fill="var(--fill-0, black)"/>
<path d="M116.51 195.69C118.96 195.69 121.07 194.19 122.08 192.02C123.09 194.19 125.2 195.69 127.64 195.7C130.45 195.7 132.82 193.73 133.58 191.03L110.58 191.01C111.34 193.71 113.71 195.69 116.51 195.69Z" fill="white"/>
<path d="M140.09 191.03C140.85 193.73 143.22 195.71 146.02 195.71C148.82 195.71 151.2 193.74 151.96 191.04H140.09V191.03Z" fill="white"/>
<path d="M120.82 204.12C124.02 205.19 127.52 205.78 131.15 205.78H131.17C134.68 205.78 138.07 205.23 141.18 204.22C139.05 202.21 135.27 200.87 130.95 200.87C126.63 200.87 122.96 202.16 120.81 204.12H120.82Z" fill="white"/>
<path d="M155.3 181.04L107.05 181C103.16 181 99.6 182.75 97.53 185.67C95.76 188.17 95.33 191.23 96.33 194.06C100.95 207.03 114.94 215.76 131.15 215.77H131.18C147.38 215.77 161.37 207.07 166 194.11C167.01 191.28 166.58 188.23 164.82 185.72C162.76 182.79 159.2 181.04 155.3 181.03V181.04ZM146.02 195.71C143.21 195.71 140.85 193.73 140.09 191.03H151.96C151.19 193.74 148.83 195.71 146.02 195.71ZM133.57 191.03C132.81 193.73 130.44 195.7 127.63 195.7C125.18 195.7 123.08 194.2 122.07 192.02C121.06 194.19 118.95 195.69 116.5 195.69C113.69 195.69 111.33 193.71 110.57 191.01L133.57 191.03ZM141.19 204.22C138.08 205.22 134.69 205.78 131.18 205.78H131.16C127.53 205.78 124.03 205.19 120.83 204.12C122.98 202.17 126.71 200.87 130.97 200.87C135.23 200.87 139.07 202.21 141.2 204.22H141.19Z" fill="var(--fill-0, black)"/>
<path d="M102.79 163.16C102.79 165.92 105.03 168.16 107.79 168.16C110.55 168.16 112.79 165.92 112.79 163.16C112.79 154.89 106.04 148.14 97.7 148H97.29C88.94 148.14 82.2 154.88 82.2 163.16C82.2 165.92 84.44 168.16 87.2 168.16C89.96 168.16 92.2 165.92 92.2 163.16C92.2 160.4 94.57 158.03 97.5 158C100.43 158.03 102.8 160.33 102.8 163.16H102.79Z" fill="var(--fill-0, black)"/>
<path d="M164.21 148.01C155.86 148.15 149.12 154.89 149.12 163.17C149.12 165.93 151.36 168.17 154.12 168.17C156.88 168.17 159.12 165.93 159.12 163.17C159.12 160.41 161.49 158.04 164.42 158.01C167.35 158.04 169.72 160.34 169.72 163.17C169.72 166 171.96 168.17 174.72 168.17C177.48 168.17 179.72 165.93 179.72 163.17C179.72 154.9 172.97 148.15 164.63 148.01H164.21Z" fill="var(--fill-0, black)"/>
</g>
</svg>
