<svg preserveAspectRatio="xMidYMid meet" width="380" height="380" overflow="visible" style="display: block;" viewBox="-30.9560 0.0000 335.7410 335.7410" fill="none" xmlns="http://www.w3.org/2000/svg">
<g id="Vector">
<path d="M261.897 74.7209C260.157 72.5809 257.007 72.2609 254.867 74.0009C252.727 75.7409 252.407 78.8909 254.147 81.0309C262.257 90.9909 263.897 103.271 263.847 111.821C263.817 116.241 262.167 120.391 259.197 123.491C258.167 124.571 257.067 125.571 255.937 126.531C253.567 128.171 250.367 129.931 248.577 129.051C248.427 128.981 248.307 128.921 248.237 128.891C247.637 128.611 246.727 127.931 245.857 127.271C243.007 125.121 237.067 120.631 231.097 125.901C231.067 125.931 231.037 125.961 231.007 125.981C228.697 128.121 227.997 130.531 227.487 132.291C227.257 133.061 227.067 133.731 226.767 134.321C226.227 135.361 225.327 137.071 217.777 136.451C213.247 123.931 206.707 112.851 200.667 103.591C196.827 97.7009 192.747 91.9409 189.267 87.0809C169.797 59.8909 153.277 33.8609 138.777 7.49093C136.197 2.80093 131.267 -0.0590742 125.927 0.000925843C120.557 0.0709258 115.677 3.08093 113.207 7.87093C101.347 30.8109 85.4874 51.9509 70.1574 72.4009C67.3974 76.0709 64.6474 79.7509 61.9174 83.4309C48.1474 101.981 34.0374 121.011 27.9174 143.821C27.4274 143.951 26.9374 144.141 26.4874 144.431C25.6774 144.961 6.50738 157.601 1.20738 174.831C-3.52262 190.211 7.08738 219.591 8.30738 222.891C9.05738 224.901 10.9674 226.151 12.9974 226.151C13.5774 226.151 14.1674 226.051 14.7374 225.841C17.3274 224.881 18.6474 222.001 17.6874 219.411C14.6874 211.321 7.59738 188.081 10.7674 177.771C13.2374 169.721 20.0274 162.571 25.2574 158.011C24.9274 161.101 24.7574 164.261 24.7574 167.501C24.7574 204.731 45.3374 237.251 75.7274 254.271C74.9274 255.761 68.9074 267.731 70.4774 290.501C71.4674 304.901 75.4374 317.391 78.4274 325.051L70.6774 324.411C67.9174 324.181 65.5074 326.231 65.2774 328.981C65.0474 331.731 67.0974 334.151 69.8474 334.381L85.9674 335.721C86.1074 335.731 86.2474 335.741 86.3774 335.741C88.0374 335.741 89.6074 334.911 90.5374 333.511C91.5474 331.991 91.6474 330.051 90.8174 328.431C90.7274 328.261 81.9074 311.061 80.4474 289.821C79.0374 269.421 84.3774 259.291 84.4974 259.061C84.5574 258.951 84.5974 258.831 84.6474 258.711C96.7574 263.971 110.107 266.901 124.137 266.901C138.167 266.901 151.647 263.941 163.797 258.631C165.317 262.831 167.777 272.181 166.767 286.811C165.307 308.051 156.487 325.251 156.397 325.421C155.557 327.041 155.657 328.981 156.667 330.501C157.597 331.901 159.167 332.731 160.827 332.731C160.967 332.731 161.107 332.731 161.247 332.711L177.367 331.371C180.117 331.141 182.167 328.721 181.937 325.971C181.707 323.221 179.307 321.171 176.537 321.401L168.787 322.041C171.787 314.381 175.747 301.881 176.737 287.491C177.927 270.171 174.737 259.101 172.787 254.131C203.047 237.071 223.517 204.631 223.517 167.491C223.517 160.321 222.557 153.431 220.937 146.871C222.857 147.071 224.767 147.171 226.677 147.171C241.657 147.171 256.067 141.191 266.397 130.401C271.147 125.441 273.787 118.861 273.827 111.871C273.887 101.681 271.867 86.9609 261.877 74.7009L261.897 74.7209ZM124.147 256.901C74.8574 256.901 34.7574 216.801 34.7574 167.511C34.7574 136.811 51.8474 113.781 69.9474 89.3909C72.6674 85.7209 75.4174 82.0609 78.1574 78.4009C93.7374 57.6209 109.857 36.1409 122.097 12.4609C123.227 10.2709 125.247 10.0109 126.067 10.0009H126.127C126.967 10.0009 128.897 10.2409 130.037 12.3109C144.737 39.0209 161.457 65.3809 181.157 92.9009C184.577 97.6709 188.567 103.321 192.307 109.051C202.197 124.231 213.557 144.591 213.557 167.501C213.557 216.791 173.457 256.891 124.167 256.891H124.147V256.901Z" fill="black"/>
<path d="M239.527 111.721C239.747 111.751 239.967 111.761 240.187 111.761C242.657 111.761 244.807 109.931 245.137 107.411L246.897 93.9909C247.257 91.2509 245.327 88.7409 242.587 88.3809C239.857 88.0209 237.337 89.9509 236.977 92.6909L235.217 106.111C234.857 108.851 236.787 111.361 239.527 111.721Z" fill="black"/>
<path d="M218.927 113.811C219.887 115.251 221.477 116.021 223.087 116.021C224.047 116.021 225.017 115.741 225.867 115.171C228.157 113.631 228.767 110.521 227.227 108.231L219.687 96.9909C218.147 94.7009 215.037 94.0909 212.747 95.6309C210.457 97.1709 209.847 100.281 211.387 102.571L218.927 113.811Z" fill="black"/>
<path d="M154.837 146.091C154.797 145.561 154.347 145.151 153.827 145.151H153.747C153.477 145.171 153.227 145.301 153.057 145.501C152.887 145.701 152.797 145.971 152.817 146.241L154.847 146.081L154.837 146.091Z" fill="#FF7A40"/>
<path d="M192.287 109.061C188.557 103.331 184.557 97.6809 181.137 92.9109C161.437 65.3909 144.707 39.0309 130.017 12.3209C128.877 10.2509 126.947 10.0109 126.107 10.0109H126.047C125.227 10.0109 123.207 10.2809 122.077 12.4709C109.837 36.1509 93.7274 57.6309 78.1374 78.4109C75.3874 82.0709 72.6474 85.7309 69.9274 89.4009C51.8374 113.791 34.7374 136.821 34.7374 167.521C34.7374 216.811 74.8374 256.911 124.127 256.911C173.417 256.911 213.517 216.811 213.517 167.521C213.517 144.611 202.157 124.251 192.267 109.071H192.287V109.061ZM138.077 134.301L161.577 118.501C163.867 116.961 166.977 117.571 168.517 119.861C170.057 122.151 169.447 125.261 167.157 126.801L151.037 137.641C151.707 137.421 152.407 137.271 153.127 137.221C158.057 136.841 162.387 140.551 162.767 145.491C163.147 150.431 159.437 154.761 154.497 155.131C154.267 155.151 154.037 155.161 153.807 155.161C149.167 155.161 145.217 151.571 144.857 146.861C144.677 144.491 145.417 142.201 146.947 140.391L143.657 142.601C142.797 143.181 141.827 143.451 140.867 143.451C139.257 143.451 137.677 142.671 136.717 141.241C135.177 138.951 135.787 135.841 138.077 134.301ZM73.0974 98.5409C110.257 50.2909 120.067 32.2909 120.167 32.1109C121.477 29.6809 124.507 28.7709 126.937 30.0709C129.367 31.3709 130.287 34.4009 128.987 36.8309C128.597 37.5709 118.887 55.4909 81.0274 104.641C80.0474 105.921 78.5574 106.591 77.0674 106.591C75.9974 106.591 74.9274 106.251 74.0174 105.551C71.8274 103.871 71.4174 100.731 73.1074 98.5409H73.0974ZM104.567 149.941C104.947 154.881 101.237 159.211 96.2974 159.581C96.0674 159.601 95.8374 159.611 95.6074 159.611C90.9674 159.611 87.0174 156.021 86.6574 151.311C86.4774 148.921 87.2374 146.601 88.7974 144.781C90.3574 142.961 92.5374 141.851 94.9274 141.671C95.6574 141.611 96.3774 141.671 97.0674 141.771L79.4774 133.511C76.9774 132.341 75.9074 129.361 77.0774 126.861C78.2474 124.361 81.2274 123.291 83.7274 124.461L109.357 136.501C111.857 137.671 112.927 140.651 111.757 143.151C110.907 144.961 109.107 146.031 107.227 146.031C106.517 146.031 105.787 145.881 105.107 145.551L101.507 143.861C103.227 145.361 104.387 147.501 104.577 149.941H104.567ZM64.1374 124.561C63.2374 124.561 62.3274 124.321 61.5074 123.811C59.1574 122.351 58.4374 119.271 59.8974 116.921C62.2274 113.171 64.0774 110.681 64.1574 110.581C65.8074 108.371 68.9374 107.911 71.1574 109.561C73.3674 111.211 73.8274 114.341 72.1774 116.561C72.1274 116.631 70.4674 118.871 68.3974 122.201C67.4474 123.721 65.8174 124.561 64.1474 124.561H64.1374ZM173.047 173.571C167.987 175.481 162.567 177.041 157.087 178.191C149.357 190.531 132.147 197.401 124.987 199.811C117.997 202.181 109.647 203.111 102.377 203.111C96.1874 203.111 90.7774 202.431 87.6174 201.381C79.0674 198.531 68.4174 188.751 71.5274 178.521C74.4574 168.621 86.5374 166.441 90.9374 166.441C97.0674 166.371 105.107 167.411 113.617 168.511C119.967 169.331 126.537 170.181 131.837 170.451C143.487 171.051 157.577 168.721 169.527 164.201C172.107 163.221 174.997 164.531 175.967 167.111C176.947 169.691 175.637 172.581 173.057 173.551V173.571H173.047Z" fill="#FF7A40"/>
<path d="M95.6074 149.611H95.5274C94.9674 149.651 94.5474 150.141 94.5874 150.701C94.6274 151.261 95.1274 151.681 95.6774 151.641C95.9474 151.621 96.1974 151.491 96.3674 151.291C96.5374 151.091 96.6274 150.821 96.6074 150.551C96.5674 150.021 96.1174 149.611 95.5974 149.611H95.6074Z" fill="#FF7A40"/>
<path d="M153.897 147.191C154.167 147.171 154.417 147.041 154.587 146.841C154.757 146.641 154.847 146.371 154.827 146.101L152.797 146.261C152.837 146.821 153.337 147.241 153.887 147.201L153.897 147.191Z" fill="#FF7A40"/>
<path d="M140.877 143.451C141.837 143.451 142.807 143.171 143.667 142.601L146.957 140.391C145.427 142.201 144.687 144.501 144.867 146.861C145.227 151.571 149.177 155.161 153.817 155.161C154.047 155.161 154.277 155.161 154.507 155.131C159.447 154.751 163.157 150.431 162.777 145.491C162.397 140.551 158.067 136.841 153.137 137.221C152.417 137.281 151.717 137.421 151.047 137.641L167.167 126.801C169.457 125.261 170.067 122.151 168.527 119.861C166.987 117.571 163.877 116.961 161.587 118.501L138.087 134.301C135.797 135.841 135.187 138.951 136.727 141.241C137.697 142.681 139.267 143.451 140.877 143.451Z" fill="black"/>
<path d="M107.227 146.031C109.107 146.031 110.907 144.971 111.757 143.151C112.927 140.651 111.857 137.671 109.357 136.501L83.7274 124.461C81.2274 123.291 78.2474 124.361 77.0774 126.861C75.9074 129.361 76.9774 132.341 79.4774 133.511L97.0674 141.771C96.3774 141.661 95.6574 141.611 94.9274 141.671C92.5374 141.851 90.3574 142.961 88.7974 144.781C87.2374 146.601 86.4774 148.921 86.6574 151.311C87.0174 156.021 90.9674 159.611 95.6074 159.611C95.8374 159.611 96.0674 159.611 96.2974 159.581C101.237 159.201 104.947 154.881 104.567 149.941C104.377 147.491 103.217 145.351 101.497 143.861L105.097 145.551C105.787 145.871 106.507 146.031 107.217 146.031H107.227Z" fill="black"/>
<path d="M133.667 180.531C133.577 182.071 133.667 183.611 133.947 185.121C136.737 183.631 139.267 182.031 141.447 180.361C138.797 180.531 136.187 180.591 133.667 180.541V180.531Z" fill="var(--fill-0, white)"/>
<path d="M123.697 179.811C121.327 179.561 118.897 179.271 116.447 178.961C115.607 183.151 115.627 187.561 116.477 191.761C118.317 191.381 120.097 190.911 121.787 190.341C122.757 190.011 123.717 189.671 124.657 189.321C123.827 186.261 123.497 183.021 123.707 179.821L123.697 179.811Z" fill="var(--fill-0, white)"/>
<path d="M106.487 177.691C104.177 177.411 101.927 177.151 99.7774 176.941C98.6774 182.191 98.6874 187.771 99.7774 193.071C101.867 193.141 104.157 193.121 106.527 192.991C105.607 187.951 105.577 182.711 106.487 177.681V177.691Z" fill="var(--fill-0, white)"/>
<path d="M89.6574 176.541C86.8474 176.891 82.0174 178.241 81.0874 181.401C80.1074 184.631 85.0474 189.301 89.3374 191.311C88.6974 186.391 88.8074 181.411 89.6574 176.541Z" fill="var(--fill-0, white)"/>
<path d="M169.507 164.211C157.557 168.731 143.477 171.061 131.817 170.461C126.527 170.191 119.957 169.341 113.597 168.521C105.077 167.421 97.0474 166.381 90.9174 166.451C86.5074 166.451 74.4374 168.631 71.5074 178.531C68.3974 188.761 79.0474 198.541 87.5974 201.391C90.7574 202.441 96.1774 203.121 102.357 203.121C109.637 203.121 117.977 202.181 124.967 199.821C132.127 197.411 149.347 190.541 157.067 178.201C162.557 177.051 167.977 175.491 173.027 173.581C175.607 172.601 176.917 169.721 175.937 167.141C174.957 164.561 172.077 163.251 169.497 164.231V164.211H169.507ZM81.0874 181.401C82.0174 178.251 86.8474 176.891 89.6574 176.541C88.8074 181.411 88.6974 186.391 89.3374 191.311C85.0574 189.301 80.1074 184.631 81.0874 181.401ZM99.7874 193.071C98.6874 187.771 98.6874 182.191 99.7874 176.941C101.937 177.151 104.197 177.411 106.497 177.691C105.587 182.711 105.617 187.961 106.537 193.001C104.167 193.131 101.877 193.151 99.7874 193.081V193.071ZM116.467 191.751C115.617 187.551 115.607 183.141 116.437 178.951C118.887 179.261 121.327 179.551 123.687 179.801C123.487 183.001 123.807 186.251 124.637 189.301C123.697 189.651 122.737 189.991 121.767 190.321C120.077 190.891 118.297 191.361 116.457 191.741L116.467 191.751ZM133.947 185.111C133.677 183.611 133.577 182.061 133.667 180.521C136.187 180.571 138.787 180.521 141.447 180.341C139.267 182.011 136.737 183.611 133.947 185.101V185.111Z" fill="black"/>
<path d="M74.0074 105.561C74.9174 106.261 75.9874 106.601 77.0574 106.601C78.5574 106.601 80.0374 105.931 81.0174 104.651C118.877 55.5009 128.587 37.5809 128.977 36.8409C130.277 34.4109 129.357 31.3809 126.927 30.0809C124.497 28.7809 121.467 29.6909 120.157 32.1209C120.067 32.3009 110.247 50.3009 73.0874 98.5509C71.3974 100.741 71.8074 103.881 73.9974 105.561H74.0074Z" fill="var(--fill-0, white)"/>
<path d="M71.1474 109.561C68.9374 107.911 65.7974 108.361 64.1474 110.581C64.0674 110.681 62.2174 113.171 59.8874 116.921C58.4274 119.271 59.1474 122.351 61.4974 123.811C62.3174 124.321 63.2274 124.561 64.1274 124.561C65.7974 124.561 67.4374 123.721 68.3774 122.201C70.4474 118.871 72.1074 116.631 72.1574 116.561C73.8074 114.351 73.3474 111.211 71.1374 109.561H71.1474Z" fill="var(--fill-0, white)"/>
</g>
</svg>
