<svg preserveAspectRatio="xMidYMid meet" width="380" height="380" overflow="visible" style="display: block;" viewBox="-32.3360 0.0000 330.4530 330.4530" fill="none" xmlns="http://www.w3.org/2000/svg">
<g id="Vector">
<path d="M218.995 160.443C212.065 112.763 184.655 74.2434 162.885 50.3334C148.895 34.9634 135.365 23.4834 126.555 16.6034C130.005 32.2634 139.765 80.6234 140.605 129.933C140.655 132.693 138.455 134.973 135.695 135.013H135.605C132.885 135.013 130.655 132.833 130.605 130.093C129.715 78.0334 118.685 26.9834 116.155 15.9134C61.0852 79.4834 49.7852 138.793 50.2552 178.003C52.4052 219.153 67.7152 252.213 95.7952 276.383C95.8752 276.453 95.9552 276.513 96.0352 276.583C97.8752 278.153 99.7552 279.693 101.705 281.193C117.675 293.493 133.525 300.033 142.375 303.033C143.155 285.093 142.845 265.563 141.445 244.893C141.255 242.143 143.335 239.753 146.095 239.563C148.855 239.383 151.235 241.453 151.425 244.213C152.805 264.493 153.135 283.723 152.455 301.483C182.585 281.713 231.365 245.433 219.005 160.423V160.443H218.995ZM153.065 163.773C155.825 163.773 158.065 166.013 158.065 168.773C158.065 173.953 162.255 178.163 167.425 178.203C172.595 178.163 176.785 173.943 176.785 168.773C176.785 166.013 179.025 163.773 181.785 163.773C184.545 163.773 186.785 166.013 186.785 168.773C186.785 179.383 178.235 188.033 167.665 188.203H167.195C156.625 188.033 148.075 179.383 148.075 168.773C148.075 166.013 150.315 163.773 153.075 163.773H153.065ZM87.8452 198.953C82.3652 198.953 78.2352 196.323 78.2352 192.833C78.2352 189.343 82.3652 186.713 87.8452 186.713C93.3252 186.713 97.4552 189.343 97.4552 192.833C97.4552 196.323 93.3252 198.953 87.8452 198.953ZM89.7852 168.773C89.7852 166.013 92.0252 163.773 94.7852 163.773C97.5452 163.773 99.7852 166.013 99.7852 168.773C99.7852 173.953 103.975 178.163 109.145 178.203C114.315 178.163 118.505 173.943 118.505 168.773C118.505 166.013 120.745 163.773 123.505 163.773C126.265 163.773 128.505 166.013 128.505 168.773C128.505 179.383 119.955 188.043 109.385 188.203H108.915C98.3452 188.033 89.7952 179.383 89.7952 168.773H89.7852ZM169.625 205.413C165.505 216.953 153.085 224.703 138.705 224.703C124.325 224.703 111.905 216.953 107.785 205.413C106.855 202.813 108.215 199.953 110.815 199.023C113.415 198.093 116.275 199.453 117.205 202.053C119.865 209.503 128.705 214.703 138.705 214.703C148.705 214.703 157.545 209.503 160.205 202.053C161.135 199.453 163.995 198.093 166.595 199.023C169.195 199.953 170.555 202.813 169.625 205.413ZM189.565 198.953C184.085 198.953 179.955 196.323 179.955 192.833C179.955 189.343 184.085 186.713 189.565 186.713C195.045 186.713 199.175 189.343 199.175 192.833C199.175 196.323 195.045 198.953 189.565 198.953Z" fill="#00B270"/>
<path d="M262.815 94.4334C262.105 91.7634 259.365 90.1834 256.695 90.8934C254.025 91.6034 252.445 94.3434 253.145 97.0134C253.185 97.1634 257.125 112.293 255.295 129.163C253.215 148.393 244.735 161.843 230.115 169.273C229.795 165.893 229.395 162.473 228.895 159.013C221.585 108.723 192.885 68.3834 170.095 43.4034C145.495 16.4334 122.905 1.4434 121.955 0.823396C119.905 -0.526604 117.185 -0.186604 115.525 1.6234C52.3652 70.4934 39.7352 135.683 40.2652 178.253V178.453C40.4252 181.573 40.6752 184.603 40.9752 187.593C25.6652 179.703 15.8852 165.003 11.8952 143.753C8.33524 124.813 10.9152 107.593 10.9452 107.423C11.3652 104.693 9.50524 102.143 6.77524 101.713C4.04524 101.293 1.48524 103.153 1.06524 105.883C0.945243 106.643 -1.79476 124.733 2.01524 145.323C7.00524 172.303 20.9952 190.883 42.5352 199.253C49.3352 239.153 68.7052 265.503 87.2452 282.193C86.2852 287.053 81.7252 299.123 60.0952 304.323C34.0652 308.533 23.5152 308.623 23.4252 308.623C21.9652 308.623 20.5752 309.263 19.6252 310.383C18.6752 311.493 18.2652 312.963 18.4952 314.413L20.3752 326.233C20.7652 328.693 22.8952 330.453 25.3052 330.453C25.5652 330.453 25.8352 330.433 26.0952 330.393C28.8252 329.963 30.6852 327.393 30.2452 324.673L29.2352 318.343C35.0452 317.903 45.4852 316.833 61.8752 314.183C61.9952 314.163 62.1152 314.143 62.2352 314.113C84.1352 308.913 92.4352 297.353 95.5852 289.163C95.7052 289.253 95.8252 289.353 95.9452 289.443C121.615 309.093 146.315 314.753 147.355 314.993C147.715 315.073 148.075 315.113 148.445 315.113C149.405 315.113 150.355 314.833 151.175 314.303L153.285 312.933C161.535 307.583 172.115 300.713 182.795 291.553C187.405 290.783 200.215 288.793 204.665 288.793C205.455 288.793 205.705 289.753 205.755 290.503L206.025 322.493C206.035 323.973 206.705 325.383 207.855 326.323C208.755 327.063 209.875 327.453 211.025 327.453C211.345 327.453 211.655 327.423 211.975 327.363L224.155 325.003C226.865 324.483 228.635 321.853 228.115 319.143C227.595 316.433 224.975 314.663 222.255 315.183L215.975 316.393L215.755 290.303V290.163C215.585 285.593 212.495 278.793 204.665 278.793H204.655C202.435 278.793 198.945 279.143 195.315 279.593C199.565 275.063 203.685 270.113 207.515 264.663C224.205 240.883 232.005 212.473 230.815 180.013C250.825 171.533 262.715 154.313 265.265 129.983C267.225 111.313 262.985 95.1534 262.805 94.4734V94.4334H262.815ZM152.445 301.503C153.135 283.743 152.795 264.513 151.415 244.233C151.225 241.483 148.845 239.403 146.085 239.583C143.325 239.773 141.245 242.153 141.435 244.913C142.835 265.583 143.145 285.113 142.365 303.053C133.515 300.053 117.675 293.513 101.695 281.213C99.7552 279.713 97.8652 278.183 96.0252 276.603C95.9552 276.533 95.8652 276.473 95.7852 276.403C67.7052 252.223 52.3952 219.173 50.2452 178.023C49.7752 138.813 61.0752 79.4934 116.145 15.9334C118.675 27.0034 129.705 78.0434 130.595 130.113C130.645 132.843 132.875 135.033 135.595 135.033H135.685C138.445 134.983 140.645 132.713 140.595 129.953C139.755 80.6434 129.995 32.2734 126.545 16.6234C135.355 23.5034 148.875 34.9834 162.875 50.3534C184.645 74.2634 212.045 112.783 218.985 160.463C231.345 245.473 182.555 281.763 152.435 301.523V301.503H152.445Z" fill="var(--fill-0, black)"/>
<path d="M166.595 199.023C163.995 198.093 161.135 199.453 160.205 202.053C157.545 209.503 148.705 214.703 138.705 214.703C128.705 214.703 119.865 209.503 117.205 202.053C116.275 199.453 113.415 198.093 110.815 199.023C108.215 199.953 106.855 202.813 107.785 205.413C111.905 216.953 124.325 224.703 138.705 224.703C153.085 224.703 165.505 216.953 169.625 205.413C170.555 202.813 169.195 199.953 166.595 199.023Z" fill="var(--fill-0, black)"/>
<path d="M87.8452 186.713C82.3652 186.713 78.2352 189.343 78.2352 192.833C78.2352 196.323 82.3652 198.953 87.8452 198.953C93.3252 198.953 97.4552 196.323 97.4552 192.833C97.4552 189.343 93.3252 186.713 87.8452 186.713Z" fill="var(--fill-0, black)"/>
<path d="M189.565 186.713C184.085 186.713 179.955 189.343 179.955 192.833C179.955 196.323 184.085 198.953 189.565 198.953C195.045 198.953 199.175 196.323 199.175 192.833C199.175 189.343 195.045 186.713 189.565 186.713Z" fill="var(--fill-0, black)"/>
<path d="M167.655 188.203C178.225 188.033 186.775 179.383 186.775 168.773C186.775 166.013 184.535 163.773 181.775 163.773C179.015 163.773 176.775 166.013 176.775 168.773C176.775 173.953 172.585 178.163 167.415 178.203C162.245 178.163 158.055 173.943 158.055 168.773C158.055 166.013 155.815 163.773 153.055 163.773C150.295 163.773 148.055 166.013 148.055 168.773C148.055 179.383 156.605 188.033 167.175 188.203H167.655Z" fill="var(--fill-0, black)"/>
<path d="M109.375 188.213C119.945 188.043 128.495 179.393 128.495 168.783C128.495 166.023 126.255 163.783 123.495 163.783C120.735 163.783 118.495 166.023 118.495 168.783C118.495 173.963 114.305 178.173 109.135 178.213C103.965 178.173 99.7752 173.953 99.7752 168.783C99.7752 166.023 97.5352 163.783 94.7752 163.783C92.0152 163.783 89.7752 166.023 89.7752 168.783C89.7752 179.393 98.3252 188.053 108.895 188.213H109.375Z" fill="var(--fill-0, black)"/>
</g>
</svg>
