<svg preserveAspectRatio="xMidYMid meet" width="380" height="380" overflow="visible" style="display: block;" viewBox="-70.4100 0.0000 375.9600 375.9600" fill="none" xmlns="http://www.w3.org/2000/svg">
<g id="Vector">
<path d="M179.38 74.51H142.73V112.86C143.8 113.4 145 113.71 146.27 113.72C150.71 113.68 154.31 110.06 154.31 105.61C154.31 102.85 156.55 100.61 159.31 100.61C162.07 100.61 164.31 102.85 164.31 105.61C164.31 115.5 156.35 123.56 146.5 123.72H146.05C144.91 123.7 143.81 123.57 142.73 123.35V132.53C143.67 132.28 144.69 132.3 145.68 132.66C148.28 133.59 149.64 136.45 148.71 139.05C147.47 142.53 145.4 145.63 142.73 148.23V203.73C148.13 213 158.1 218.31 171.3 218.31C174.06 218.31 176.3 220.55 176.3 223.31C176.3 226.07 174.06 228.31 171.3 228.31C158.09 228.31 148.13 233.62 142.73 242.89V365.96H173.89C177.1 365.96 179.71 363.35 179.71 360.14V74.84C179.71 74.66 179.56 74.51 179.38 74.51ZM166.39 133.2C161.31 133.2 157.48 130.73 157.48 127.46C157.48 124.19 161.31 121.72 166.39 121.72C171.47 121.72 175.3 124.19 175.3 127.46C175.3 130.73 171.47 133.2 166.39 133.2Z" fill="#00B270"/>
<path d="M135.15 141.6V119.81C130.95 116.49 128.24 111.37 128.24 105.61C128.24 102.85 130.48 100.61 133.24 100.61C133.92 100.61 134.56 100.75 135.15 100.99V74.51H123.18V146.69C127.88 146.14 132.1 144.3 135.15 141.61V141.6Z" fill="#00B270"/>
<path d="M69.61 291.73C66.85 291.73 64.61 289.49 64.61 286.73C64.61 283.97 66.85 281.73 69.61 281.73C75.45 281.73 80.32 280.29 84.06 277.64V121.09C78.83 117.91 75.32 112.17 75.32 105.62C75.32 102.86 77.56 100.62 80.32 100.62C81.82 100.62 83.14 101.29 84.06 102.33V74.51H61.02C60.84 74.51 60.69 74.66 60.69 74.84V167.62H60.89C63.65 167.62 65.89 169.86 65.89 172.62C65.89 175.38 63.65 177.62 60.89 177.62H60.69V360.11C60.69 363.32 63.3 365.93 66.51 365.93H84.06V295.81C80.32 293.16 75.45 291.72 69.61 291.72V291.73ZM65.11 127.46C65.11 124.19 68.94 121.72 74.02 121.72C79.1 121.72 82.93 124.19 82.93 127.46C82.93 130.73 79.1 133.2 74.02 133.2C68.94 133.2 65.11 130.73 65.11 127.46Z" fill="#00B270"/>
<path d="M133.19 266.41C130.43 266.41 128.19 264.17 128.19 261.41C128.19 253.81 126.43 247.29 123.18 242.09V281.63C123.94 281.68 124.7 281.72 125.49 281.72C128.25 281.72 130.49 283.96 130.49 286.72C130.49 289.48 128.25 291.72 125.49 291.72C124.7 291.72 123.93 291.76 123.18 291.81V365.93H135.15V266.01C134.55 266.27 133.89 266.41 133.19 266.41Z" fill="#00B270"/>
<path d="M133.19 180.17C133.89 180.17 134.55 180.31 135.15 180.57V153.5C131.55 155.25 127.49 156.37 123.18 156.73V204.5C126.43 199.3 128.19 192.77 128.19 185.18C128.19 182.42 130.43 180.18 133.19 180.18V180.17Z" fill="#00B270"/>
<path d="M85.32 105.61C85.32 110.06 88.92 113.68 93.36 113.72C97.8 113.68 101.4 110.06 101.4 105.61C101.4 102.85 103.64 100.61 106.4 100.61C109.16 100.61 111.4 102.85 111.4 105.61C111.4 115.5 103.44 123.56 93.59 123.72H93.14C89.82 123.67 86.73 122.7 84.07 121.08V277.63C89.52 273.76 92.56 267.3 92.56 258.78C92.56 256.02 94.8 253.78 97.56 253.78C100.32 253.78 102.56 256.02 102.56 258.78C102.56 272.35 110.23 280.75 123.19 281.63V242.09C117.69 233.3 107.92 228.29 95.08 228.29C92.32 228.29 90.08 226.05 90.08 223.29C90.08 220.53 92.32 218.29 95.08 218.29C107.91 218.29 117.69 213.28 123.19 204.49V156.72C122.21 156.8 121.22 156.86 120.22 156.86C106.97 156.86 95.51 149.7 91.71 139.03C90.78 136.43 92.14 133.57 94.74 132.64C97.34 131.71 100.2 133.07 101.13 135.67C103.48 142.26 111.33 146.86 120.22 146.86C121.23 146.86 122.22 146.79 123.19 146.68V74.5H84.07V102.32C84.84 103.2 85.33 104.34 85.33 105.61H85.32Z" fill="white"/>
<path d="M102.55 314.67C102.55 317.43 100.31 319.67 97.55 319.67C94.79 319.67 92.55 317.43 92.55 314.67C92.55 306.15 89.51 299.69 84.06 295.82V365.94H123.18V291.82C110.22 292.7 102.55 301.1 102.55 314.67Z" fill="white"/>
<path d="M135.15 180.57C136.94 181.33 138.19 183.1 138.19 185.17C138.19 192.39 139.78 198.64 142.74 203.71V148.21C140.58 150.32 138.01 152.1 135.15 153.49V180.57Z" fill="white"/>
<path d="M138.19 261.41C138.19 263.48 136.94 265.25 135.15 266.01V365.93H142.74V242.86C139.79 247.93 138.19 254.18 138.19 261.4V261.41Z" fill="white"/>
<path d="M135.15 141.6C137.05 139.92 138.5 137.92 139.3 135.68C139.88 134.06 141.2 132.93 142.74 132.52V123.34C139.92 122.76 137.33 121.53 135.15 119.8V141.6Z" fill="white"/>
<path d="M138.24 105.61C138.24 108.78 140.07 111.53 142.73 112.86V74.51H135.14V100.99C136.95 101.74 138.23 103.52 138.23 105.61H138.24Z" fill="white"/>
<path d="M139.3 135.68C138.5 137.92 137.05 139.93 135.15 141.6C132.1 144.29 127.88 146.13 123.18 146.68C122.21 146.79 121.21 146.86 120.21 146.86C111.32 146.86 103.47 142.26 101.12 135.67C100.19 133.07 97.33 131.71 94.73 132.64C92.13 133.57 90.77 136.43 91.7 139.03C95.5 149.69 106.96 156.86 120.21 156.86C121.21 156.86 122.2 156.81 123.18 156.72C127.49 156.37 131.55 155.24 135.15 153.49C138.01 152.1 140.57 150.32 142.74 148.21C145.41 145.6 147.48 142.5 148.72 139.03C149.65 136.43 148.29 133.57 145.69 132.64C144.7 132.29 143.68 132.27 142.74 132.51C141.2 132.92 139.87 134.05 139.3 135.67V135.68Z" fill="var(--fill-0, black)"/>
<path d="M61.51 10C62.27 15.38 63.27 23.75 63.58 32.05H176.81C177.13 23.75 178.13 15.38 178.88 10H61.5H61.51Z" fill="#00B270"/>
<path d="M166.31 51.91C166.31 49.15 168.55 46.91 171.31 46.91C173.33 46.91 175.24 46.74 177.04 46.43C176.95 44.98 176.87 43.51 176.82 42.05H63.59C63.27 50.35 62.27 58.72 61.52 64.1H178.9C178.64 62.25 178.35 60.05 178.07 57.62C175.97 57.18 173.73 56.92 171.32 56.92C168.56 56.92 166.32 54.68 166.32 51.92H166.31V51.91Z" fill="#00B270"/>
<path d="M74.02 133.2C79.1 133.2 82.93 130.73 82.93 127.46C82.93 124.19 79.1 121.72 74.02 121.72C68.94 121.72 65.11 124.19 65.11 127.46C65.11 130.73 68.94 133.2 74.02 133.2Z" fill="var(--fill-0, black)"/>
<path d="M166.39 121.72C161.31 121.72 157.48 124.19 157.48 127.46C157.48 130.73 161.31 133.2 166.39 133.2C171.47 133.2 175.3 130.73 175.3 127.46C175.3 124.19 171.47 121.72 166.39 121.72Z" fill="var(--fill-0, black)"/>
<path d="M138.24 105.61C138.24 103.52 136.96 101.74 135.15 100.99C134.56 100.75 133.92 100.61 133.24 100.61C130.48 100.61 128.24 102.85 128.24 105.61C128.24 111.36 130.95 116.49 135.15 119.81C137.33 121.54 139.91 122.77 142.74 123.35C143.82 123.57 144.92 123.7 146.06 123.72H146.51C156.36 123.56 164.32 115.5 164.32 105.61C164.32 102.85 162.08 100.61 159.32 100.61C156.56 100.61 154.32 102.85 154.32 105.61C154.32 110.06 150.72 113.68 146.28 113.72C145.01 113.72 143.81 113.39 142.74 112.86C140.08 111.53 138.25 108.78 138.25 105.61H138.24Z" fill="var(--fill-0, black)"/>
<path d="M93.58 123.72C103.43 123.56 111.39 115.5 111.39 105.61C111.39 102.85 109.15 100.61 106.39 100.61C103.63 100.61 101.39 102.85 101.39 105.61C101.39 110.06 97.79 113.68 93.35 113.72C88.91 113.68 85.31 110.06 85.31 105.61C85.31 104.34 84.83 103.2 84.05 102.32C83.13 101.28 81.81 100.61 80.31 100.61C77.55 100.61 75.31 102.85 75.31 105.61C75.31 112.16 78.82 117.9 84.05 121.08C86.71 122.7 89.8 123.66 93.12 123.72H93.58Z" fill="var(--fill-0, black)"/>
<path d="M117.22 223.29C124.15 226.89 129.59 232.33 133.19 239.26C136.79 232.33 142.23 226.89 149.16 223.29C142.23 219.69 136.79 214.25 133.19 207.32C129.59 214.25 124.15 219.69 117.22 223.29Z" fill="white"/>
<path d="M135.15 180.57C134.55 180.31 133.89 180.17 133.19 180.17C130.43 180.17 128.19 182.41 128.19 185.17C128.19 192.77 126.43 199.29 123.18 204.49C117.68 213.28 107.91 218.29 95.07 218.29C92.31 218.29 90.07 220.53 90.07 223.29C90.07 226.05 92.31 228.29 95.07 228.29C107.9 228.29 117.68 233.3 123.18 242.09C126.43 247.29 128.19 253.82 128.19 261.41C128.19 264.17 130.43 266.41 133.19 266.41C133.89 266.41 134.55 266.27 135.15 266.01C136.94 265.25 138.19 263.48 138.19 261.41C138.19 254.19 139.78 247.94 142.74 242.87C148.14 233.6 158.11 228.29 171.31 228.29C174.07 228.29 176.31 226.05 176.31 223.29C176.31 220.53 174.07 218.29 171.31 218.29C158.1 218.29 148.14 212.98 142.74 203.71C139.79 198.64 138.19 192.39 138.19 185.17C138.19 183.1 136.94 181.33 135.15 180.57ZM133.19 207.32C136.79 214.25 142.23 219.69 149.16 223.29C142.23 226.89 136.79 232.33 133.19 239.26C129.59 232.33 124.15 226.89 117.22 223.29C124.15 219.69 129.59 214.25 133.19 207.32Z" fill="var(--fill-0, black)"/>
<path d="M106.77 286.73C103.02 284.38 99.9 281.27 97.55 277.51C95.2 281.26 92.09 284.38 88.33 286.73C92.08 289.08 95.2 292.19 97.55 295.95C99.9 292.2 103.01 289.08 106.77 286.73Z" fill="white"/>
<path d="M102.55 258.78C102.55 256.02 100.31 253.78 97.55 253.78C94.79 253.78 92.55 256.02 92.55 258.78C92.55 267.3 89.51 273.76 84.06 277.63C80.32 280.28 75.45 281.72 69.61 281.72C66.85 281.72 64.61 283.96 64.61 286.72C64.61 289.48 66.85 291.72 69.61 291.72C75.45 291.72 80.32 293.16 84.06 295.81C89.51 299.68 92.55 306.14 92.55 314.66C92.55 317.42 94.79 319.66 97.55 319.66C100.31 319.66 102.55 317.42 102.55 314.66C102.55 301.09 110.22 292.69 123.18 291.81C123.94 291.76 124.7 291.72 125.49 291.72C128.25 291.72 130.49 289.48 130.49 286.72C130.49 283.96 128.25 281.72 125.49 281.72C124.7 281.72 123.93 281.68 123.18 281.63C110.22 280.75 102.55 272.35 102.55 258.78ZM88.33 286.73C92.08 284.38 95.2 281.27 97.55 277.51C99.9 281.26 103.01 284.38 106.77 286.73C103.02 289.08 99.9 292.19 97.55 295.95C95.2 292.2 92.09 289.08 88.33 286.73Z" fill="var(--fill-0, black)"/>
<path d="M32.94 163.4C30.59 167.15 27.48 170.27 23.72 172.62C27.47 174.97 30.59 178.08 32.94 181.84C35.29 178.09 38.4 174.97 42.16 172.62C38.41 170.27 35.29 167.16 32.94 163.4Z" fill="white"/>
<path d="M200.73 41.69C198.18 45.9 194.72 49.36 190.51 51.91C194.72 54.46 198.18 57.92 200.73 62.13C203.28 57.92 206.74 54.46 210.95 51.91C206.74 49.36 203.28 45.9 200.73 41.69Z" fill="white"/>
<path d="M230.15 46.91C214.86 46.91 205.73 37.78 205.73 22.49C205.73 19.73 203.49 17.49 200.73 17.49C197.97 17.49 195.73 19.73 195.73 22.49C195.73 31.48 192.55 38.32 186.84 42.45C186.76 40.63 186.71 38.81 186.71 37.05C186.71 22.99 189.61 6.02 189.64 5.85C189.89 4.4 189.49 2.91 188.54 1.78C187.59 0.65 186.19 0 184.72 0H55.69C54.22 0 52.82 0.65 51.87 1.78C50.92 2.91 50.52 4.4 50.77 5.85C50.8 6.02 53.7 22.99 53.7 37.05C53.7 51.11 50.8 68.08 50.77 68.25C50.58 69.35 50.77 70.47 51.28 71.45C50.91 72.52 50.69 73.66 50.69 74.85V165.84C42.57 162.63 37.94 155.23 37.94 144.7C37.94 141.94 35.7 139.7 32.94 139.7C30.18 139.7 27.94 141.94 27.94 144.7C27.94 159.07 19.36 167.64 5 167.64C2.24 167.64 0 169.88 0 172.64C0 175.4 2.24 177.64 5 177.64C19.37 177.64 27.94 186.22 27.94 200.58C27.94 203.34 30.18 205.58 32.94 205.58C35.7 205.58 37.94 203.34 37.94 200.58C37.94 190.05 42.56 182.65 50.69 179.44V360.14C50.69 368.86 57.79 375.96 66.51 375.96H173.89C182.61 375.96 189.71 368.86 189.71 360.14V74.84C189.71 73.65 189.5 72.51 189.12 71.44C189.64 70.47 189.82 69.35 189.63 68.24C189.63 68.18 189.28 66.18 188.83 63.02C193.27 67.22 195.72 73.45 195.72 81.33C195.72 84.09 197.96 86.33 200.72 86.33C203.48 86.33 205.72 84.09 205.72 81.33C205.72 66.04 214.85 56.91 230.14 56.91C232.9 56.91 235.14 54.67 235.14 51.91C235.14 49.15 232.9 46.91 230.14 46.91H230.15ZM200.73 62.14C198.18 57.93 194.72 54.47 190.51 51.92C194.72 49.37 198.18 45.91 200.73 41.7C203.28 45.91 206.74 49.37 210.95 51.92C206.74 54.47 203.28 57.93 200.73 62.14ZM179.72 360.11C179.72 363.32 177.11 365.93 173.9 365.93H66.52C63.31 365.93 60.7 363.32 60.7 360.11V177.62H60.9C63.66 177.62 65.9 175.38 65.9 172.62C65.9 169.86 63.66 167.62 60.9 167.62H60.7V74.84C60.7 74.66 60.85 74.51 61.03 74.51H179.4C179.58 74.51 179.73 74.66 179.73 74.84V360.12L179.72 360.11ZM63.59 32.05C63.27 23.75 62.27 15.38 61.52 10H178.9C178.14 15.38 177.14 23.75 176.83 32.05H63.59ZM178.89 64.09H61.51C62.27 58.71 63.27 50.34 63.58 42.04H176.81C176.87 43.5 176.94 44.97 177.03 46.42C175.23 46.73 173.32 46.9 171.3 46.9C168.54 46.9 166.3 49.14 166.3 51.9C166.3 54.66 168.54 56.9 171.3 56.9C173.72 56.9 175.96 57.15 178.05 57.6C178.33 60.03 178.62 62.24 178.88 64.08H178.89V64.09ZM32.94 181.84C30.59 178.09 27.48 174.97 23.72 172.62C27.47 170.27 30.59 167.16 32.94 163.4C35.29 167.15 38.4 170.27 42.16 172.62C38.41 174.97 35.29 178.08 32.94 181.84Z" fill="var(--fill-0, black)"/>
</g>
</svg>
