<svg preserveAspectRatio="xMidYMid meet" width="380" height="380" overflow="visible" style="display: block;" viewBox="-40.4700 0.0000 344.8200 344.8200" fill="none" xmlns="http://www.w3.org/2000/svg">
<g id="Vector">
<path d="M234.44 126.46C232.25 125.64 232.25 122.9 234.44 122.08C250.59 116.06 253.87 100.19 253.87 88.42V87.05C253.87 47.92 232.8 35.06 193.67 35.06H155.91C149.51 35.06 144.19 36.32 139.98 38.74C143.49 47.8 145.33 58.33 145.33 70.22V128.51C145.33 134.89 144.79 140.86 143.76 146.44C153.46 149.54 161.4 154.4 167.68 161.11C178.56 172.74 183.86 189.28 183.86 211.69C183.86 212.39 183.84 213.07 183.81 213.76H193.68C232.81 213.76 253.88 200.9 253.88 161.77V159.85C253.88 148.08 250.32 132.49 234.45 126.47H234.44V126.46ZM196.41 155.19C196.41 158.2 194.49 160.12 191.48 160.12H190.66C187.65 160.12 185.73 158.2 185.73 155.19V147.53C185.73 144.52 187.65 142.6 190.66 142.6H191.48C194.49 142.6 196.41 144.52 196.41 147.53V155.19ZM196.41 100.73C196.41 103.74 194.49 105.66 191.48 105.66H190.66C187.65 105.66 185.73 103.74 185.73 100.73V93.62C185.73 90.61 187.65 88.69 190.66 88.69H191.48C194.49 88.69 196.41 90.61 196.41 93.62V100.73Z" fill="#FFED00"/>
<path d="M263.87 88.42V87.05C263.87 64.73 257.59 48.87 244.68 38.56C233.13 29.35 216.92 25.05 193.67 25.05H155.91C148.01 25.05 141.19 26.65 135.61 29.66C124.35 10.47 103.63 0 75.12 0H37.36C13.96 0 0 13.97 0 37.36V161.32C0 184.72 13.97 198.69 37.36 198.69H39.65C38.9 203.64 38.52 208.88 38.52 214.41V272.7C38.52 294.99 44.64 312.7 56.71 325.34C68.88 338.08 86.86 344.82 108.72 344.82H113.65C160.23 344.82 183.85 321.29 183.85 274.89C183.85 260.35 178.46 249.45 168.76 243.28C175.55 238.96 180.22 232.32 182.42 223.74H193.68C216.94 223.74 233.15 219.45 244.69 210.23C257.6 199.93 263.88 184.07 263.88 161.74V159.82C263.88 144.68 258.94 132.34 249.98 124.31C259.03 116.34 263.88 104.01 263.88 88.39V88.42H263.87ZM253.87 161.76C253.87 200.89 232.8 213.75 193.67 213.75H183.8C183.82 213.07 183.85 212.38 183.85 211.68C183.85 189.27 178.56 172.73 167.67 161.1C161.39 154.39 153.46 149.53 143.75 146.43C144.78 140.85 145.32 134.88 145.32 128.5V70.21C145.32 58.32 143.49 47.8 139.97 38.73C144.18 36.31 149.5 35.05 155.9 35.05H193.66C232.79 35.05 253.86 47.91 253.86 87.04V88.41C253.86 100.18 250.58 116.05 234.43 122.07C232.24 122.89 232.24 125.63 234.43 126.45C250.3 132.47 253.86 148.07 253.86 159.83V161.75L253.87 161.76ZM146.48 239.05H143.74C125.95 239.05 116.38 229.47 116.38 211.69C116.38 209.23 114.46 207.86 111.45 207.86H110.63C107.62 207.86 105.7 209.78 105.7 212.79V274.36C105.7 277.37 107.62 279.29 110.63 279.29H111.45C114.46 279.29 116.38 277.65 116.38 274.91C116.38 257.12 125.96 247.54 143.74 247.54H146.48C164.27 247.54 173.84 257.12 173.84 274.91C173.84 312.4 157.97 334.84 113.64 334.84H108.71C69.58 334.84 48.51 311.85 48.51 272.72V214.43C48.51 208.85 48.95 203.61 49.8 198.71H75.11C109.46 198.71 132.52 183.53 141.31 156.18C164.79 164 173.83 183.4 173.83 211.69C173.83 229.48 164.25 239.05 146.47 239.05H146.48ZM121.47 243.29C119.34 244.65 117.41 246.23 115.7 248.04V238.54C117.41 240.34 119.33 241.93 121.47 243.29ZM9.99 161.34V37.38C9.99 19.59 19.57 10.02 37.35 10.02H75.11C114.24 10.02 135.31 31.09 135.31 70.22V128.51C135.31 167.64 114.24 188.71 75.11 188.71H37.35C19.56 188.71 9.99 179.13 9.99 161.34Z" fill="var(--fill-0, black)"/>
<path d="M191.47 88.69H190.66C187.937 88.69 185.73 90.8972 185.73 93.62V100.73C185.73 103.453 187.937 105.66 190.66 105.66H191.47C194.193 105.66 196.4 103.453 196.4 100.73V93.62C196.4 90.8972 194.193 88.69 191.47 88.69Z" fill="var(--fill-0, black)"/>
<path d="M191.47 142.6H190.66C187.937 142.6 185.73 144.807 185.73 147.53V155.18C185.73 157.903 187.937 160.11 190.66 160.11H191.47C194.193 160.11 196.4 157.903 196.4 155.18V147.53C196.4 144.807 194.193 142.6 191.47 142.6Z" fill="var(--fill-0, black)"/>
<path d="M173.84 211.68C173.84 183.39 164.8 163.99 141.32 156.17C132.52 183.52 109.47 198.7 75.12 198.7H49.81C48.96 203.6 48.52 208.84 48.52 214.42V272.71C48.52 311.84 69.59 334.83 108.72 334.83H113.65C157.98 334.83 173.85 312.39 173.85 274.9C173.85 257.11 164.27 247.53 146.49 247.53H143.75C125.96 247.53 116.39 257.11 116.39 274.9C116.39 277.64 114.47 279.28 111.46 279.28H110.64C107.63 279.28 105.71 277.36 105.71 274.35V212.78C105.71 209.77 107.63 207.85 110.64 207.85H111.46C114.47 207.85 116.39 209.22 116.39 211.68C116.39 229.47 125.97 239.04 143.75 239.04H146.49C164.28 239.04 173.85 229.46 173.85 211.68H173.84Z" fill="#E6323C"/>
<path d="M75.11 188.7C114.24 188.7 135.31 167.63 135.31 128.5V70.21C135.31 31.08 114.24 10.01 75.11 10.01H37.35C19.56 10.01 9.99 19.59 9.99 37.37V161.33C9.99 179.12 19.57 188.7 37.35 188.7H75.11ZM67.18 68.57C67.18 65.56 69.1 63.64 72.11 63.64H72.93C75.94 63.64 77.86 65.56 77.86 68.57V130.14C77.86 133.15 75.94 135.07 72.93 135.07H72.11C69.1 135.07 67.18 133.15 67.18 130.14V68.57Z" fill="#FF7A40"/>
<path d="M72.92 63.65H72.11C69.3872 63.65 67.18 65.8572 67.18 68.58V130.14C67.18 132.863 69.3872 135.07 72.11 135.07H72.92C75.6428 135.07 77.85 132.863 77.85 130.14V68.58C77.85 65.8572 75.6428 63.65 72.92 63.65Z" fill="var(--fill-0, black)"/>
</g>
</svg>
