<svg preserveAspectRatio="xMidYMid meet" width="380" height="380" overflow="visible" style="display: block;" viewBox="-3.8950 0.0000 338.4300 338.4300" fill="none" xmlns="http://www.w3.org/2000/svg">
<g id="Vector">
<path d="M296.771 159.7C295.811 159.54 294.841 159.44 293.861 159.38L286.811 159.84C281.971 160.74 277.351 162.84 273.551 165.99C268.461 170.21 265.641 176.04 262.661 182.21C261.311 185 259.921 187.88 258.271 190.73C232.541 235.27 189.991 252.72 147.851 264.94C116.961 273.9 110.191 279.27 98.9713 288.17C97.7613 289.13 96.5113 290.13 95.1713 291.17C84.6113 299.41 88.7613 310.01 89.2913 311.25C96.3713 326.84 124.431 328.68 140.531 328.39C170.281 327.85 202.091 319.26 232.511 303.53C252.141 293.39 279.681 275.59 299.461 248.43C307.941 236.78 318.051 215.49 320.221 196.24C322.621 174.96 314.721 162.67 296.771 159.7ZM240.011 249.21H239.771C238.371 249.21 237.051 248.7 236.011 247.75C234.911 246.74 234.281 245.37 234.211 243.88C234.151 242.4 234.661 240.98 235.671 239.88C236.681 238.78 238.051 238.14 239.541 238.08C242.611 237.95 245.201 240.33 245.331 243.4C245.461 246.46 243.071 249.06 240.011 249.19V249.21ZM262.431 259.76C262.561 262.83 260.171 265.43 257.111 265.56H256.871C255.481 265.56 254.151 265.05 253.121 264.1C252.021 263.09 251.391 261.72 251.321 260.24C251.191 257.18 253.581 254.58 256.641 254.45C258.131 254.39 259.551 254.91 260.641 255.91C261.741 256.92 262.371 258.29 262.441 259.77H262.431V259.76Z" fill="#FFED00"/>
<path d="M307.941 152.38C307.941 152.38 307.931 152.32 307.921 152.28L305.971 146.02C303.421 137.84 302.851 129.05 304.311 120.61L305.451 114.06C305.711 112.55 305.271 111 304.241 109.86C303.221 108.72 301.721 108.11 300.201 108.21L275.191 109.83C273.571 109.93 272.101 110.82 271.251 112.21C270.401 113.59 270.281 115.31 270.921 116.8L271.141 117.31C276.101 128.88 276.881 141.91 273.341 153.98C273.321 154.03 273.321 154.09 273.301 154.14C271.151 155.32 269.091 156.7 267.171 158.29C260.401 163.9 256.971 171 253.661 177.87C252.391 180.49 251.081 183.2 249.621 185.74C225.661 227.22 185.211 243.71 145.071 255.35C112.291 264.86 104.521 271.02 92.7613 280.35C91.5713 281.29 90.3413 282.27 89.0213 283.3C73.9113 295.09 78.1613 311.47 80.2413 315.52C87.1513 330.54 106.871 338.43 137.391 338.43C138.481 338.43 139.591 338.42 140.711 338.4C171.991 337.83 205.321 328.85 237.111 312.42C257.691 301.78 286.621 283.07 307.551 254.32C316.781 241.64 327.791 218.42 330.161 197.36C332.731 174.52 324.891 158.89 307.941 152.38ZM320.231 196.24C318.061 215.49 307.951 236.78 299.471 248.43C279.691 275.59 252.151 293.38 232.521 303.53C202.091 319.26 170.291 327.85 140.541 328.39C124.441 328.69 96.3813 326.84 89.3013 311.25C88.7613 310.01 84.6213 299.41 95.1813 291.17C96.5213 290.13 97.7713 289.13 98.9813 288.17C110.201 279.27 116.971 273.89 147.861 264.94C190.001 252.72 232.551 235.27 258.281 190.73C259.931 187.87 261.321 184.99 262.671 182.21C265.651 176.04 268.471 170.2 273.561 165.99C277.361 162.84 281.981 160.74 286.821 159.84L293.871 159.38C294.841 159.44 295.811 159.54 296.781 159.7C314.741 162.67 322.631 174.96 320.231 196.24ZM284.531 149.96C286.341 139.77 285.661 129.25 282.551 119.37L294.501 118.6L294.451 118.9C292.711 128.9 293.391 139.31 296.411 149L296.471 149.19L284.521 149.96H284.531Z" fill="var(--fill-0, black)"/>
<path d="M296.481 149.19L296.421 149C293.401 139.31 292.721 128.9 294.461 118.9L294.511 118.6L282.561 119.37C285.671 129.25 286.351 139.77 284.541 149.96L296.491 149.19H296.481Z" fill="#00B270"/>
<path d="M115.741 192.51C115.741 192.51 115.761 192.56 115.781 192.59C116.371 191.96 116.941 191.26 117.491 190.45C119.051 188.17 122.171 187.6 124.441 189.16C126.721 190.72 127.291 193.84 125.731 196.11C120.011 204.43 112.401 206.86 106.141 206.86C102.651 206.86 99.5713 206.11 97.4713 205.2C94.9313 204.11 93.7613 201.17 94.8513 198.63C95.9413 196.1 98.8513 194.93 101.381 196C101.841 196.19 103.941 196.96 106.681 196.87C104.821 193.8 102.901 190.84 100.931 188.01C96.2513 190.41 92.3013 193.93 89.4813 198.3C85.4813 204.5 84.2413 211.67 85.9813 218.5C87.7213 225.33 92.2513 231.03 98.7213 234.56C105.321 238.16 113.141 239.07 120.731 237.14C136.261 233.18 145.951 218.38 142.321 204.14C139.301 192.3 128.001 184.52 115.351 184.52C113.871 184.52 112.381 184.64 110.871 184.86C112.621 187.47 114.241 190.03 115.721 192.51H115.741Z" fill="#E6323C"/>
<path d="M93.9513 243.34C99.7713 246.51 106.271 248.13 112.901 248.13C116.331 248.13 119.791 247.7 123.211 246.83C144.091 241.51 157.011 221.25 152.021 201.67C147.031 182.09 125.991 170.49 105.101 175.82C104.901 175.87 104.701 175.93 104.501 175.99C91.8813 159.61 74.0913 143.16 50.5613 136.01C50.1413 135.88 49.7213 135.76 49.3113 135.64C56.2513 128.2 59.0413 118.31 57.4113 106.52C55.8513 95.25 50.7013 86.22 50.4813 85.84C49.1313 83.49 46.1513 82.65 43.7613 83.94C33.2913 89.62 26.9713 97.31 24.9613 106.78C22.9013 116.51 25.9713 125.98 29.1213 132.5C21.6513 132.34 17.0113 133.4 16.6813 133.48C14.0013 134.12 12.3513 136.8 12.9813 139.48C13.6113 142.16 16.2913 143.83 18.9813 143.21C19.0713 143.19 25.6113 141.75 35.6613 143C37.1513 144.99 39.6813 148.75 41.5513 153.53C45.0713 162.54 44.6613 170.89 40.3513 178.35C37.0713 184.01 34.8413 189.38 33.3413 194.26C32.1813 194.45 31.0313 194.69 29.8813 194.98C9.00131 200.3 -3.91869 220.56 1.07131 240.14C5.24131 256.5 20.6213 267.29 37.7513 267.29C41.1213 267.29 44.5613 266.87 47.9913 266C58.0413 263.44 66.5713 257.38 72.0213 248.93C76.7513 241.59 78.6713 233.22 77.5913 224.96C80.6013 232.73 86.2913 239.16 93.9513 243.34ZM142.341 204.14C145.971 218.37 136.281 233.18 120.751 237.14C113.161 239.08 105.341 238.16 98.7413 234.56C92.2613 231.03 87.7413 225.33 86.0013 218.5C84.2613 211.67 85.5013 204.5 89.5013 198.3C92.3213 193.93 96.2713 190.4 100.951 188.01C102.921 190.84 104.841 193.8 106.701 196.87C103.961 196.97 101.861 196.19 101.401 196C98.8713 194.94 95.9513 196.11 94.8713 198.63C93.7813 201.17 94.9513 204.11 97.4913 205.2C99.5913 206.1 102.671 206.86 106.161 206.86C112.421 206.86 120.021 204.44 125.751 196.11C127.311 193.83 126.741 190.72 124.461 189.16C122.181 187.6 119.071 188.17 117.511 190.45C116.961 191.26 116.381 191.96 115.801 192.59C115.781 192.56 115.781 192.53 115.761 192.51C114.281 190.03 112.661 187.47 110.911 184.86C112.411 184.64 113.911 184.52 115.391 184.52C128.051 184.52 139.341 192.3 142.361 204.14H142.341ZM94.9013 179.91C89.3113 183.07 84.5713 187.48 81.0913 192.88C76.3613 200.22 74.4413 208.59 75.5213 216.85C72.5113 209.08 66.8213 202.65 59.1613 198.47C54.4713 195.92 49.3413 194.38 44.0613 193.88C45.2813 190.58 46.8913 187.05 49.0213 183.37C54.9113 173.19 55.5113 161.51 50.7513 149.57C50.2613 148.34 49.7313 147.17 49.1913 146.06C65.8813 151.52 81.4313 163.08 94.9113 179.91H94.9013ZM10.7613 237.68C7.24131 223.87 16.2513 209.53 30.9713 205.07C30.1613 211.25 30.5013 215.88 30.8213 218.29C28.1813 217.64 26.3913 216.34 25.9913 216.03C23.8413 214.32 20.7213 214.66 18.9913 216.8C17.2513 218.95 17.5913 222.1 19.7413 223.83C22.5413 226.09 27.7613 228.65 33.9513 228.65C38.7513 228.65 44.1313 227.11 49.4113 222.71C51.5313 220.94 51.8213 217.79 50.0513 215.67C48.2813 213.55 45.1313 213.26 43.0113 215.03C42.2313 215.68 41.4613 216.22 40.7113 216.67C40.4713 214.57 40.2013 209.96 41.3413 203.72C45.9213 203.89 50.3713 205.07 54.3813 207.25C60.8613 210.78 65.3813 216.48 67.1213 223.31C68.8613 230.14 67.6213 237.31 63.6213 243.51C59.5513 249.83 53.1213 254.37 45.5313 256.31C30.0013 260.27 14.4013 251.91 10.7713 237.68H10.7613ZM34.7613 108.81C35.8513 103.7 38.9813 99.25 44.0813 95.52C47.5013 103.65 52.2813 120.41 39.6413 131C36.8313 126.06 32.9513 117.28 34.7613 108.81Z" fill="var(--fill-0, black)"/>
<path d="M63.6113 243.51C67.6113 237.31 68.8513 230.14 67.1113 223.31C65.3713 216.48 60.8413 210.78 54.3713 207.25C50.3713 205.07 45.9113 203.89 41.3313 203.72C40.1913 209.96 40.4613 214.58 40.7013 216.67C41.4613 216.22 42.2313 215.68 43.0013 215.03C45.1213 213.26 48.2713 213.55 50.0413 215.67C51.8113 217.79 51.5213 220.94 49.4013 222.71C44.1213 227.11 38.7413 228.65 33.9413 228.65C27.7513 228.65 22.5313 226.1 19.7313 223.83C17.5813 222.09 17.2513 218.95 18.9813 216.8C20.7113 214.66 23.8313 214.32 25.9813 216.03C26.3713 216.33 28.1713 217.63 30.8113 218.29C30.4913 215.88 30.1513 211.24 30.9613 205.07C16.2413 209.53 7.23131 223.87 10.7513 237.68C14.3813 251.92 29.9713 260.28 45.5113 256.31C53.1013 254.37 59.5313 249.83 63.6013 243.51H63.6113Z" fill="#E6323C"/>
<path d="M256.631 254.43C253.571 254.56 251.181 257.16 251.311 260.22C251.371 261.71 252.011 263.08 253.111 264.08C254.141 265.03 255.471 265.54 256.861 265.54H257.101C260.171 265.41 262.551 262.81 262.421 259.74C262.361 258.25 261.721 256.88 260.621 255.88C259.531 254.88 258.111 254.36 256.621 254.42H256.631V254.43Z" fill="var(--fill-0, black)"/>
<path d="M239.531 238.1C238.041 238.16 236.671 238.8 235.661 239.9C234.651 241 234.141 242.42 234.201 243.9C234.261 245.39 234.901 246.76 236.001 247.77C237.031 248.72 238.361 249.23 239.761 249.23H240.001C243.061 249.1 245.451 246.5 245.321 243.44C245.191 240.38 242.601 238 239.531 238.12V238.1Z" fill="var(--fill-0, black)"/>
<path d="M114.501 101.15C114.501 136.44 143.211 165.15 178.511 165.15C213.811 165.15 242.521 136.44 242.521 101.15C242.521 65.86 216.371 39.81 183.321 37.34C183.341 38.86 183.411 40.16 183.491 41.14C183.731 43.89 181.701 46.32 178.951 46.56C178.801 46.57 178.651 46.58 178.501 46.58C175.941 46.58 173.761 44.63 173.531 42.03C173.481 41.44 173.341 39.75 173.311 37.37C140.441 40.03 114.511 67.61 114.511 101.15H114.501ZM191.001 77.93C193.241 75.52 197.001 75.37 199.401 77.59C200.571 78.67 201.261 80.2 201.291 81.8C201.321 83.36 200.761 84.85 199.701 86C198.641 87.14 197.201 87.82 195.641 87.91H195.331C193.851 87.91 192.391 87.35 191.301 86.34C190.131 85.26 189.441 83.73 189.411 82.13C189.371 80.57 189.941 79.08 191.001 77.94V77.93ZM157.311 79.41C159.551 77 163.321 76.84 165.711 79.07C166.881 80.15 167.571 81.68 167.601 83.28C167.631 84.84 167.071 86.33 166.011 87.48C164.951 88.62 163.511 89.3 161.951 89.39H161.641C160.161 89.39 158.701 88.83 157.611 87.82C155.211 85.6 155.081 81.83 157.311 79.42V79.41ZM146.291 98.48C149.051 98.48 151.291 100.72 151.291 103.48C151.291 118.49 163.501 130.7 178.511 130.7C193.521 130.7 205.731 118.49 205.731 103.48C205.731 100.72 207.971 98.48 210.731 98.48C213.491 98.48 215.731 100.72 215.731 103.48C215.731 124 199.031 140.7 178.511 140.7C157.991 140.7 141.291 124 141.291 103.48C141.291 100.72 143.531 98.48 146.291 98.48Z" fill="#FF7A40"/>
<path d="M198.331 84.73C199.041 83.96 199.421 82.95 199.401 81.9C199.381 80.8 198.901 79.74 198.091 79C197.341 78.3 196.341 77.91 195.311 77.91H195.091C194.041 77.97 193.061 78.42 192.351 79.19C191.641 79.96 191.261 80.96 191.281 82.01C191.301 83.11 191.781 84.16 192.591 84.91C194.241 86.44 196.811 86.35 198.321 84.71V84.73H198.331Z" fill="var(--fill-0, black)"/>
<path d="M164.641 86.21C166.161 84.57 166.051 82 164.401 80.48C163.651 79.78 162.651 79.39 161.621 79.39H161.401C160.351 79.45 159.371 79.9 158.661 80.67C157.951 81.44 157.571 82.44 157.591 83.49C157.611 84.59 158.091 85.64 158.901 86.39C160.551 87.92 163.121 87.83 164.631 86.19V86.21H164.641Z" fill="var(--fill-0, black)"/>
<path d="M104.501 101.15C104.501 141.96 137.701 175.15 178.511 175.15C219.321 175.15 252.521 141.95 252.521 101.15C252.521 60.35 222.201 30.14 183.911 27.36C184.651 21.93 186.211 16.38 189.261 13.06C191.171 10.97 193.461 10 196.471 10C199.231 10 201.471 7.76 201.471 5C201.471 2.24 199.231 0 196.471 0C190.701 0 185.661 2.19 181.881 6.32C178.421 10.11 176.321 15.15 175.071 20.26C168.361 8.14 156.751 1.22 141.041 0.15C127.501 -0.78 115.711 3.03 115.211 3.19C112.631 4.04 111.201 6.78 111.981 9.38C116.031 22.88 123.371 32.06 133.811 36.66C135.581 37.44 137.381 38.04 139.191 38.52C118.391 51.63 104.531 74.8 104.531 101.16H104.501V101.15ZM123.271 11.41C133.671 9.18 157.401 6.66 167.201 26.84C160.741 29.06 148.271 32.13 137.771 27.48C131.401 24.66 126.541 19.26 123.271 11.4V11.41ZM173.301 37.38C173.341 39.76 173.471 41.45 173.521 42.04C173.751 44.64 175.931 46.59 178.491 46.59C178.641 46.59 178.791 46.59 178.941 46.57C181.691 46.32 183.721 43.9 183.481 41.15C183.391 40.17 183.331 38.87 183.311 37.35C216.361 39.82 242.511 67.48 242.511 101.16C242.511 134.84 213.801 165.16 178.501 165.16C143.201 165.16 114.491 136.45 114.491 101.16C114.491 65.87 140.431 40.04 173.291 37.38H173.301Z" fill="var(--fill-0, black)"/>
<path d="M167.211 26.84C157.411 6.65 133.681 9.17 123.281 11.41C126.551 19.27 131.421 24.67 137.781 27.49C148.271 32.13 160.751 29.06 167.211 26.85V26.84Z" fill="#00B270"/>
<path d="M44.0813 95.53C38.9813 99.25 35.8513 103.71 34.7613 108.82C32.9513 117.29 36.8313 126.07 39.6413 131.01C52.2813 120.42 47.5013 103.67 44.0813 95.53Z" fill="#00B270"/>
<path d="M199.401 77.59C197.001 75.37 193.231 75.52 191.001 77.93C189.941 79.08 189.371 80.57 189.411 82.12C189.451 83.71 190.141 85.25 191.301 86.33C192.391 87.34 193.841 87.9 195.331 87.9H195.641C197.201 87.82 198.641 87.14 199.701 85.99C200.761 84.84 201.331 83.35 201.291 81.79C201.251 80.2 200.561 78.66 199.401 77.58V77.59ZM198.331 84.73C196.821 86.36 194.251 86.45 192.601 84.93C191.791 84.18 191.321 83.12 191.291 82.03C191.271 80.98 191.651 79.97 192.361 79.21C193.071 78.44 194.051 77.98 195.101 77.93H195.321C196.341 77.93 197.341 78.32 198.101 79.02C198.911 79.77 199.391 80.83 199.411 81.92C199.431 82.97 199.051 83.98 198.341 84.75V84.73H198.331Z" fill="var(--fill-0, black)"/>
<path d="M161.641 89.39H161.951C163.511 89.31 164.951 88.63 166.011 87.48C167.071 86.33 167.641 84.84 167.601 83.28C167.561 81.69 166.871 80.15 165.711 79.07C163.311 76.85 159.541 77 157.311 79.41C155.081 81.82 155.211 85.59 157.611 87.81C158.701 88.82 160.151 89.38 161.641 89.38V89.39ZM158.671 80.68C159.381 79.91 160.361 79.45 161.411 79.4H161.631C162.651 79.4 163.651 79.79 164.411 80.49C166.061 82.01 166.171 84.58 164.651 86.22C163.141 87.85 160.571 87.94 158.921 86.42C158.111 85.67 157.641 84.61 157.611 83.52C157.591 82.47 157.971 81.46 158.681 80.7V80.68H158.671Z" fill="var(--fill-0, black)"/>
<path d="M178.511 140.7C199.031 140.7 215.731 124 215.731 103.48C215.731 100.72 213.491 98.48 210.731 98.48C207.971 98.48 205.731 100.72 205.731 103.48C205.731 118.49 193.521 130.7 178.511 130.7C163.501 130.7 151.291 118.49 151.291 103.48C151.291 100.72 149.051 98.48 146.291 98.48C143.531 98.48 141.291 100.72 141.291 103.48C141.291 124 157.991 140.7 178.511 140.7Z" fill="var(--fill-0, black)"/>
<path d="M241.291 263.81C240.541 263.91 238.101 263.95 236.801 262.76C235.491 261.58 235.341 259.15 235.431 257.32C235.561 254.56 233.431 252.22 230.671 252.09C227.911 251.96 225.571 254.09 225.441 256.85C225.121 263.54 227.401 267.48 229.591 269.7C229.781 269.9 229.981 270.08 230.171 270.25C235.251 274.78 242.091 273.81 242.851 273.68C245.581 273.23 247.451 270.66 247.001 267.93C246.551 265.21 244.011 263.35 241.281 263.8H241.291V263.81Z" fill="var(--fill-0, black)"/>
</g>
</svg>
