<svg preserveAspectRatio="xMidYMid meet" width="380" height="380" overflow="visible" style="display: block;" viewBox="0.0000 -15.5000 283.0000 283.0000" fill="none" xmlns="http://www.w3.org/2000/svg">
<g id="Vector">
<path d="M73.8423 252C72.9232 252 72.0133 251.722 71.2335 251.204C70.2123 250.518 69.516 249.454 69.2839 248.241L38.9533 90.4479C38.6933 89.0775 39.0647 87.6608 39.9652 86.5867L86.2734 31.8903C86.9604 31.0754 87.8981 30.5291 88.9472 30.3347L247.155 0.0835773C249.671 -0.397921 252.103 1.25029 252.586 3.75963L282.916 161.552C283.176 162.923 282.805 164.339 281.904 165.414L235.596 220.101C234.909 220.916 233.971 221.462 232.922 221.656L74.715 251.907C74.4272 251.963 74.1301 251.991 73.8423 251.991V252Z" fill="white"/>
<path d="M73.8423 252C72.9232 252 72.0133 251.722 71.2335 251.204C70.2123 250.518 69.516 249.454 69.2839 248.241L38.9533 90.4479C38.6933 89.0775 39.0647 87.6608 39.9652 86.5867L86.2734 31.8903C86.9604 31.0754 87.8981 30.5291 88.9472 30.3347L247.155 0.0835773C249.671 -0.397921 252.103 1.25029 252.586 3.75963L282.916 161.552C283.176 162.923 282.805 164.339 281.904 165.414L235.596 220.101C234.909 220.916 233.971 221.462 232.922 221.656L74.715 251.907C74.4272 251.963 74.1301 251.991 73.8423 251.991V252ZM48.4879 90.8739L77.528 241.953L229.562 212.878L273.382 161.126L244.342 10.0469L92.2987 39.1128L48.4786 90.8646L48.4879 90.8739Z" fill="var(--fill-0, black)"/>
<path d="M120.15 197.313C119.231 197.313 118.322 197.035 117.542 196.517C116.52 195.831 115.824 194.766 115.592 193.553L85.2615 35.7515C84.7787 33.2422 86.4313 30.8162 88.9472 30.3347C91.4631 29.8532 93.8955 31.5014 94.3783 34.0107L123.836 187.266L277.485 157.886C280.01 157.404 282.433 159.052 282.916 161.562C283.399 164.071 281.746 166.497 279.231 166.978L121.023 197.23C120.735 197.285 120.438 197.313 120.15 197.313Z" fill="var(--fill-0, black)"/>
<path d="M73.8423 252C72.7839 252 71.7255 251.639 70.8528 250.907C68.8939 249.259 68.6433 246.333 70.3051 244.379L116.613 189.683C118.266 187.729 121.2 187.479 123.158 189.137C125.117 190.785 125.368 193.711 123.706 195.665L77.398 250.361C76.4789 251.444 75.1699 252 73.8516 252L73.8423 252Z" fill="var(--fill-0, black)"/>
<path d="M165.762 119.477C162.801 119.477 159.793 118.875 156.915 117.606C151.549 115.236 147.436 110.93 145.319 105.476C143.202 100.022 143.351 94.0684 145.718 88.7256C150.62 77.6882 163.609 72.6788 174.675 77.5586C185.741 82.4476 190.764 95.4018 185.871 106.439C182.251 114.606 174.192 119.477 165.762 119.477ZM165.809 84.9385C160.944 84.9385 156.293 87.7441 154.204 92.4665C152.839 95.55 152.756 98.9853 153.972 102.134C155.188 105.282 157.565 107.763 160.666 109.134C163.757 110.495 167.201 110.578 170.358 109.365C173.514 108.143 176.003 105.773 177.377 102.689C180.199 96.3185 177.302 88.8368 170.915 86.0218C169.253 85.2903 167.517 84.9385 165.809 84.9385Z" fill="var(--fill-0, black)"/>
<path d="M218.43 106.347C215.413 106.347 212.396 105.717 209.555 104.458C204.189 102.096 200.076 97.7815 197.959 92.3276C195.842 86.8737 195.991 80.9198 198.358 75.577C203.251 64.5303 216.248 59.5301 227.315 64.4099C232.681 66.7804 236.794 71.0861 238.91 76.54C241.027 81.9939 240.879 87.9478 238.511 93.2906C236.144 98.6334 231.818 102.745 226.349 104.856C223.778 105.847 221.104 106.337 218.43 106.337V106.347ZM218.458 71.7991C213.593 71.7991 208.942 74.6048 206.853 79.3272C205.488 82.4106 205.405 85.8459 206.621 88.9942C207.837 92.1424 210.214 94.6333 213.315 95.9944C216.406 97.3648 219.851 97.4389 223.007 96.2259C226.164 95.0129 228.652 92.6424 230.026 89.5497C231.39 86.4663 231.474 83.031 230.258 79.8827C229.032 76.7345 226.656 74.2529 223.564 72.8825C221.902 72.151 220.166 71.7991 218.458 71.7991Z" fill="var(--fill-0, black)"/>
<path d="M147.9 135.801C146.99 135.801 146.08 135.57 145.254 135.125C143.954 134.422 143.008 133.246 142.599 131.829C142.181 130.422 142.339 128.931 143.054 127.644C143.759 126.347 144.929 125.412 146.34 124.995C147.761 124.579 149.256 124.736 150.555 125.449C151.855 126.153 152.793 127.32 153.211 128.727C153.628 130.144 153.47 131.635 152.765 132.931C152.059 134.227 150.89 135.162 149.478 135.579C148.958 135.727 148.429 135.811 147.909 135.811L147.9 135.801Z" fill="var(--fill-0, black)"/>
<path d="M165.892 138.218C164.983 138.218 164.073 137.987 163.246 137.542C161.947 136.838 161.009 135.672 160.591 134.264C159.737 131.338 161.418 128.273 164.333 127.412C167.266 126.551 170.339 128.236 171.203 131.144C171.621 132.561 171.463 134.051 170.748 135.348C170.033 136.644 168.863 137.588 167.443 137.996C166.932 138.144 166.403 138.218 165.883 138.218H165.892Z" fill="var(--fill-0, black)"/>
<path d="M156.284 152.737C155.374 152.737 154.464 152.506 153.647 152.061C152.347 151.358 151.4 150.182 150.992 148.774C150.574 147.367 150.732 145.876 151.447 144.579C152.152 143.283 153.322 142.348 154.742 141.931C156.154 141.515 157.648 141.672 158.948 142.385C160.248 143.089 161.185 144.255 161.603 145.672C162.021 147.08 161.854 148.57 161.148 149.867C160.443 151.163 159.273 152.098 157.852 152.515C157.333 152.663 156.803 152.746 156.284 152.746V152.737Z" fill="var(--fill-0, black)"/>
<path d="M230.703 123.634C229.357 123.634 228.011 123.153 226.953 122.171C225.867 121.162 225.235 119.801 225.18 118.329C225.124 116.856 225.644 115.449 226.646 114.365C228.717 112.134 232.217 112.004 234.454 114.069C236.692 116.134 236.822 119.625 234.751 121.856C233.665 123.032 232.18 123.625 230.685 123.625L230.703 123.634Z" fill="var(--fill-0, black)"/>
<path d="M247.405 116.523C246.003 116.523 244.685 116.004 243.655 115.051C242.568 114.051 241.946 112.689 241.891 111.217C241.835 109.745 242.355 108.337 243.357 107.254C245.428 105.023 248.928 104.893 251.165 106.958C253.393 109.032 253.523 112.532 251.453 114.754C250.45 115.828 249.086 116.458 247.609 116.514C247.535 116.514 247.461 116.514 247.387 116.514L247.405 116.523Z" fill="var(--fill-0, black)"/>
<path d="M246.607 133.903C245.261 133.903 243.914 133.422 242.847 132.431C241.77 131.431 241.139 130.07 241.083 128.597C241.027 127.125 241.547 125.718 242.55 124.634C243.552 123.56 244.917 122.931 246.393 122.875C247.879 122.81 249.281 123.338 250.367 124.338C251.453 125.338 252.075 126.708 252.131 128.181C252.186 129.653 251.667 131.06 250.655 132.135C249.568 133.301 248.083 133.894 246.598 133.894L246.607 133.903Z" fill="var(--fill-0, black)"/>
<path d="M4.63989 192.053C3.86004 192.053 3.07091 191.859 2.34676 191.442C0.118622 190.174 -0.661228 187.35 0.61067 185.127C0.954175 184.516 9.24472 170.117 22.2886 158.173C35.2397 146.311 49.6484 138.616 50.2518 138.292C52.5171 137.098 55.3301 137.95 56.5277 140.209C57.7254 142.468 56.8713 145.274 54.606 146.468C54.4667 146.543 40.6058 153.95 28.5646 164.988C16.6254 175.932 8.74339 189.572 8.66912 189.711C7.815 191.211 6.24601 192.044 4.63061 192.044L4.63989 192.053Z" fill="var(--fill-0, black)"/>
<path d="M13.5896 148.922C12.5127 148.922 11.4357 148.552 10.5538 147.793C8.61341 146.117 8.39988 143.2 10.0803 141.265C10.5352 140.737 21.4716 128.218 36.5952 119.014C51.6073 109.884 67.2414 105.124 67.9006 104.93C70.3422 104.189 72.9417 105.578 73.6844 108.023C74.4272 110.467 73.0346 113.051 70.5836 113.791C70.4351 113.838 55.3951 118.421 41.4414 126.921C27.599 135.348 17.2196 147.209 17.1082 147.33C16.1891 148.385 14.8986 148.931 13.5989 148.931L13.5896 148.922Z" fill="var(--fill-0, black)"/>
<path d="M185.296 143.792C185.101 143.792 184.906 143.783 184.711 143.755C182.167 143.431 180.366 141.116 180.691 138.579C182.046 127.847 188.564 121.023 199.537 118.829C210.186 116.708 219.034 121.56 223.796 132.162C224.845 134.496 223.796 137.237 221.457 138.283C219.117 139.329 216.369 138.283 215.32 135.95C212.358 129.357 207.651 126.653 201.348 127.912C194.375 129.301 190.736 133.061 189.891 139.737C189.594 142.079 187.598 143.792 185.286 143.792H185.296Z" fill="var(--fill-0, black)"/>
<path d="M170.924 103.772C169.736 103.772 168.538 103.532 167.378 103.022C162.949 101.069 160.935 95.8833 162.894 91.4572C164.853 87.0404 170.052 85.0403 174.489 86.9848C178.918 88.9386 180.932 94.124 178.973 98.5501C177.525 101.819 174.294 103.772 170.924 103.772ZM171.147 94.5592L170.748 95.4666C170.999 95.5777 171.286 95.4666 171.398 95.2166C171.509 94.9666 171.398 94.6796 171.147 94.5684V94.5592ZM170.943 94.5129C170.757 94.5129 170.571 94.624 170.488 94.8092C170.377 95.0592 170.488 95.3462 170.739 95.4574L171.138 94.5592C171.073 94.5314 171.008 94.5129 170.934 94.5129H170.943Z" fill="var(--fill-0, black)"/>
<path d="M223.573 90.6331C222.385 90.6331 221.178 90.3924 220.027 89.8831C215.599 87.9293 213.584 82.7439 215.543 78.3179C216.49 76.1789 218.217 74.5307 220.408 73.6881C222.599 72.8454 224.985 72.901 227.129 73.8455C231.558 75.7992 233.572 80.9846 231.613 85.4107C230.165 88.6793 226.934 90.6331 223.564 90.6331H223.573ZM223.787 81.4198L223.388 82.3273C223.638 82.4384 223.926 82.3273 224.038 82.0772C224.149 81.8272 224.038 81.5402 223.787 81.4291V81.4198ZM223.592 81.3735C223.397 81.3735 223.221 81.4846 223.137 81.6698C223.026 81.9198 223.137 82.2069 223.388 82.318L223.787 81.4198C223.722 81.392 223.657 81.3735 223.592 81.3735Z" fill="var(--fill-0, black)"/>
</g>
</svg>
