<svg width="310" height="310" viewBox="0 0 310 310" fill="none" xmlns="http://www.w3.org/2000/svg">
<rect width="310" height="309.818" fill="#DA9F7B"/>
<path d="M43.5422 162.252C39.7471 157.285 38.85 149.854 41.5904 144.251C43.8379 139.666 49.0328 137.319 53.8827 136.253C59.9057 134.933 66.0863 134.757 72.2276 134.532C84.0073 134.347 95.8462 133.74 107.616 134.474C111.894 134.982 119.514 134.523 122.018 138.434C123.605 141.064 122.698 144.437 122.422 147.331C121.456 152.562 123.339 162.008 119.346 165.43C118.203 166.427 116.626 166.965 114.654 167.239C112.722 167.503 110.524 167.522 108.483 167.542C97.6698 167.64 86.9054 168.657 76.1016 168.911C70.3448 169.057 64.5584 169.097 58.8213 168.569C53.311 168.08 47.15 166.897 43.6013 162.33L43.5422 162.262V162.252Z" fill="#FEDBB4"/>
<path d="M185.54 87.7266C194.461 87.9906 203.332 88.3914 212.273 89.0466C227.03 89.8581 238.544 94.1114 250.018 103.488C266.016 116.854 270.344 139.343 269.979 159.231C269.299 172.177 265.681 185.562 257.598 195.927C251.693 203.094 241.442 212.265 229.721 216.352C204.377 225.181 117.148 220.488 111.5 220.42C94.1112 220.371 88.1277 218.982 87.9799 200.092C87.3786 188.183 87.2011 130.26 88.246 113.227C88.8276 105.727 87.28 95.1869 95.6392 91.491C100.085 89.6137 105.112 89.8581 109.844 89.4474C116.803 88.9977 172.518 87.9319 185.52 87.7266" fill="#C05727"/>
<path d="M130.485 166.31C125.3 164.374 117.651 163.631 112.15 164.785C108.345 165.489 105.536 168.578 107.301 172.108C110.327 177.779 127.854 179.011 132.851 175.921C137.356 173.086 135.404 168.031 130.604 166.359L130.485 166.31Z" fill="#F287B7"/>
<path d="M222.614 166.31C227.799 164.374 235.448 163.631 240.949 164.785C244.754 165.489 247.563 168.578 245.799 172.108C242.772 177.779 225.246 179.011 220.248 175.921C215.743 173.086 217.695 168.031 222.495 166.359L222.614 166.31Z" fill="#F287B7"/>
<path d="M175.919 192.367C159.95 192.367 151.59 183.44 151.245 183.059C150.072 181.768 150.161 179.784 151.462 178.61C152.763 177.447 154.765 177.535 155.947 178.825C156.214 179.109 162.887 186.071 175.919 186.071C188.95 186.071 195.979 178.18 196.274 177.848C197.418 176.537 199.419 176.391 200.75 177.525C202.071 178.659 202.238 180.634 201.095 181.944C200.73 182.365 191.947 192.367 175.919 192.367Z" fill="#231F20"/>
<path d="M236.878 152.318C235.774 150.783 233.94 151.057 232.767 151.467C232.432 151.585 232.116 151.272 232.205 150.93C232.412 150.138 232.314 149.267 231.86 148.505C230.963 147.009 229.011 146.53 227.503 147.419C227.493 147.419 226.153 148.221 224.891 148.818C224.664 148.925 224.398 149.042 224.132 149.15C223.481 149.414 222.732 149.209 222.298 148.661C219.528 145.151 215.309 142.345 209.158 142.345C197.369 142.345 192.272 152.768 191.178 158.429C190.863 160.052 191.77 161.705 193.367 162.174C195.2 162.712 197.053 161.548 197.388 159.73C197.477 159.28 199.596 148.495 209.148 148.642C217.803 148.769 220.317 159.426 220.337 159.602C220.475 160.59 221.076 161.45 221.953 161.929C222.426 162.184 222.959 162.321 223.481 162.321C223.925 162.321 224.378 162.223 224.792 162.037L224.93 161.978C225.788 161.695 229.346 160.512 231.821 159.202C233.871 158.106 235.912 156.747 236 156.698C237.449 155.73 237.873 153.746 236.868 152.328" fill="#231F20"/>
<path d="M247.681 118.077H247.593C246.469 118.077 245.552 117.167 245.552 116.053C245.552 114.938 246.469 114.029 247.593 114.029H247.681C248.805 114.029 249.722 114.938 249.722 116.053C249.722 117.167 248.805 118.077 247.681 118.077Z" fill="white"/>
<path d="M238.484 110.147C237.913 110.147 237.351 109.912 236.947 109.453C236.907 109.413 232.353 104.446 221.953 101.63C213.732 99.4109 192.854 98.4038 159.89 98.6678C140.392 98.8145 111.52 99.7727 111.096 99.7922C109.962 99.8411 109.016 98.9807 108.957 97.866C108.907 96.7514 109.775 95.8029 110.899 95.7443C111.322 95.7247 140.274 94.7567 159.861 94.6101C193.199 94.3558 214.452 95.4021 223.028 97.7194C234.719 100.878 239.815 106.539 240.022 106.774C240.761 107.614 240.683 108.895 239.825 109.629C239.441 109.961 238.958 110.127 238.484 110.127" fill="white"/>
<path d="M146.829 122.545C144.542 121.284 141.26 121.274 138.973 122.701C137.376 123.62 136.311 126.505 137.208 129.409C138.726 134.053 146.228 133.701 148.229 130.641C150.023 127.835 148.998 123.63 146.888 122.574L146.839 122.545H146.829Z" fill="#231F20"/>
<path d="M213.752 122.545C211.465 121.284 208.182 121.274 205.895 122.701C204.299 123.62 203.234 126.505 204.131 129.409C205.649 134.053 213.151 133.701 215.152 130.641C216.946 127.835 215.921 123.63 213.811 122.574L213.762 122.545H213.752Z" fill="#231F20"/>
<path d="M115.463 152.318C116.567 150.783 118.4 151.057 119.573 151.467C119.908 151.585 120.224 151.272 120.135 150.93C119.928 150.138 120.027 149.267 120.48 148.505C121.377 147.009 123.329 146.53 124.837 147.419C124.847 147.419 126.188 148.221 127.449 148.818C127.676 148.925 127.942 149.042 128.208 149.15C128.859 149.414 129.608 149.209 130.042 148.661C132.812 145.151 137.031 142.345 143.182 142.345C154.972 142.345 160.068 152.768 161.162 158.429C161.477 160.052 160.571 161.705 158.974 162.174C157.14 162.712 155.287 161.548 154.952 159.73C154.863 159.28 152.744 148.495 143.192 148.642C134.537 148.769 132.023 159.426 132.004 159.602C131.866 160.59 131.264 161.45 130.387 161.929C129.914 162.184 129.381 162.321 128.859 162.321C128.415 162.321 127.962 162.223 127.548 162.037L127.41 161.978C126.552 161.695 122.994 160.512 120.52 159.202C118.469 158.106 116.429 156.747 116.34 156.698C114.891 155.73 114.467 153.746 115.472 152.328" fill="#231F20"/>
</svg>
