<svg width="310" height="310" viewBox="0 0 310 310" fill="none" xmlns="http://www.w3.org/2000/svg">
<rect width="310" height="309.818" fill="#BDEAA6"/>
<path d="M231.182 119.348C227.884 121.141 220.266 128.908 216.67 130.338C215.206 130.8 210.616 133.715 210.092 131.397C210.011 124.526 215.685 124.191 219.968 121.43C223.655 119.059 223.89 114.107 220.583 112.64C219.263 112.007 217.682 112.052 216.309 111.626C214.944 111.264 213.788 110.359 212.414 110.051C207.128 109.535 204.806 119.828 200.857 122.145C198.201 124.454 195.824 124.001 197.758 120.371C198.435 119.231 207.264 105.507 201.381 104.565C198.372 103.887 194.107 103.642 191.993 106.765C190.547 108.983 189.698 114.858 187.086 116.189C186.725 116.361 186.237 116.488 186.192 116.017C186.553 113.971 190.231 106.829 189.978 104.475C189.996 102.701 189.237 101.08 188.053 100.311C185.378 98.6542 182.731 101.687 181.448 103.868C177.734 109.834 173.433 120.444 169.728 126.5C168.192 129.071 166.204 128.102 164.451 126.418C161.307 124.028 161.297 122.254 164.261 119.946C167.234 117.221 174.273 111.282 176.55 107.897C177.815 105.923 177.165 103.045 175.068 101.94C171.915 100.103 162.761 112.251 159.291 113.084C158.442 113.292 158.261 113.31 157.782 112.378C157.52 110.975 161.984 104.638 161.731 101.741C161.469 98.7538 156.508 97.2782 155.063 99.6319C153.662 101.913 152.252 103.678 151.114 106.666C149.795 109.218 149.596 110.314 147.78 111.663C146.695 112.269 146.478 110.857 146.695 109.97C147.183 107.345 150.508 101.569 151.737 98.2287C152.966 94.8884 148.457 91.9735 144.716 94.8884C143.225 95.9928 141.427 100.202 140.388 101.678C137.75 105.57 133.385 95.6035 129.364 97.7852C127.62 98.7266 125.542 99.7767 126.382 102.529C126.888 104.194 129.97 107.779 130.521 108.648C131.813 110.92 134.686 112.686 134.316 115.601C133.819 117.891 132.671 122.019 130.186 122.508C121.846 121.611 124.629 108.675 124.187 101.995C123.925 97.9481 116.596 99.2517 115.937 102.963C115.196 106.657 118.051 113.654 112.06 112.242C109.711 111.418 105.618 108.748 104.181 108.856C101.66 109.046 98.443 112.007 99.5273 114.215C100.368 115.926 105.22 117.384 107.723 118.733C111.256 120.634 115.132 123.168 116.994 126.853C118.494 131.334 118.277 136.222 118.774 140.929C118.801 142.414 119.307 146.795 116.913 145.999C115.232 144.686 115.087 142.052 114.202 140.223C112.349 135.951 110.226 131.795 108.889 127.287C107.75 124.083 107.624 120.435 105.699 117.556C102.202 112.849 97.5032 116.035 98.2171 121.177C98.6869 125.205 100.024 129.016 101.307 132.809C101.624 134.267 103.205 136.847 102.699 138.159C96.5002 135.317 92.8858 117.574 84.8709 122.634C81.7444 125.721 85.3859 129.75 87.2202 132.637C90.6991 137.824 86.7594 135.878 84.0034 133.905C80.3438 131.75 76.9553 128.346 72.6452 127.568C69.0579 127.043 65.4434 131.56 68.5247 134.412C70.1602 135.887 72.5367 136.738 74.371 138.06C78.139 140.649 81.8077 143.473 85.9823 145.401C93.5364 148.977 102.066 149.457 109.566 153.286C111.608 154.336 113.687 155.386 115.91 156.011C118.584 156.808 121.349 157.233 124.096 157.722C129.852 158.844 135.644 160.582 140.867 163.271C145.602 165.869 144.445 172.061 143.388 176.46C142.891 178.642 142.701 180.887 142.241 183.069C140.741 189.451 140.858 196.123 140.975 202.658C141.228 205.61 141.373 208.724 141.626 211.72C141.59 213.259 142.313 215.667 140.813 216.636C139.241 216.98 138.21 215.993 136.665 215.296C134.542 214.246 132.346 213.177 131.054 211.086C125.262 200.477 112.892 194.62 101.072 195.335C91.3045 196.367 82.5577 201.961 72.9524 203.871C71.6512 204.225 70.1602 204.215 68.7868 204.487C66.6181 204.913 65.2537 207.139 65.9585 209.231C66.7266 211.494 68.9494 213.739 70.3681 215.232C85.2233 231.201 112.458 241.032 130.855 225.48C134.433 222.927 141.68 225.697 143.307 231.608C144.084 234.424 144.481 244.852 145.493 249.016C145.783 250.202 146.641 251.189 147.798 251.551C149.822 252.194 152.569 251.805 154.62 251.243C162.282 249.433 156.879 240.507 155.397 235.238C154.177 231.138 153.508 224.846 152.677 220.691C150.427 208.687 149.768 204.605 154.701 203.944C158.325 203.944 158.523 205.763 159.391 208.887C159.834 210.498 160.032 214.744 165.635 217.496C178.529 223.823 207.426 212.408 217.745 205.229C225.905 199.562 229.592 193.624 227.089 190.727C224.721 188.355 222.218 190.202 214.98 186.907C207.743 183.612 192.237 169.463 173.27 172.314C171.102 172.64 169.014 173.383 167.126 174.523C162.797 177.13 159.355 180.769 158.234 185.884C157.927 187.532 157.611 188.844 156.987 190.736C156.364 192.619 155.207 193.316 153.599 193.995C151.99 194.674 150.21 195.416 150.373 193.135C150.761 187.776 151.548 180.751 152.668 175.456C153.662 172.016 153.906 168.268 156.526 165.607C160.611 161.877 166.403 161.035 171.255 158.591C175.809 156.563 180.011 153.893 184.656 152.046C194.252 147.855 204.318 145.628 213.779 141.264C218.441 139.128 222.48 136.123 226.411 132.891C228.534 131.18 237.146 125.929 237.372 122.843C237.742 119.493 233.848 117.846 231.209 119.357M139.927 125.088C140.759 123.739 141.536 120.344 143.542 120.706H143.578C145.954 121.72 144.156 124.617 143.677 126.482C143.424 127.323 143.216 128.193 143.018 129.043C142.719 130.048 142.494 132.158 141.247 132.23C140.045 132.04 138.888 130.284 138.635 129.125C138.364 127.686 139.259 126.454 139.927 125.088ZM146.768 155.097C146.388 155.26 145.683 155.151 145.177 155.069C144.49 154.952 143.75 154.798 143.063 154.617C140.244 153.956 137.795 152.245 134.967 151.557C132.789 150.887 129.644 150.797 128.126 148.968C127.43 148.09 127.295 146.877 127.259 145.763C127.141 142.269 127.177 138.748 126.888 135.281C126.4 131.234 128.443 132.402 130.891 133.823C134.695 136.159 135.464 141.346 138.608 144.17L138.644 144.206C139.295 144.822 139.991 145.401 140.632 146.035C142.475 147.827 143.722 150.19 145.259 152.227C145.53 152.743 147.545 154.716 146.777 155.078M162.093 140.604C160.873 143.428 158.849 145.791 157.457 148.524C156.554 150.398 155.415 151.62 153.725 149.656C152.822 148.615 152.054 147.438 151.168 146.379C149.713 144.65 148.277 142.767 148.584 140.422C148.9 137.716 149.957 135.181 150.599 132.538C151.024 131.343 151.267 128.247 152.93 128.383H152.966C154.132 128.672 154.999 129.922 155.921 130.691C157.493 132.158 159.346 133.307 160.828 134.864C162.535 136.521 163.159 138.386 162.084 140.613M171.002 148.045C170.722 149.348 169.394 150.272 168.147 151.159C166.014 152.698 164.596 152.725 166.267 149.81C166.818 148.968 169.105 143.781 170.144 144.442L170.171 144.46C170.948 145.202 171.228 146.958 171.002 148.054M186.418 130.791C185.984 132.818 186.011 135.109 184.8 136.838L184.773 136.883C183.96 138.042 182.848 139.046 181.891 140.142C180.734 141.454 178.827 143.509 178.014 140.929C177.671 139.87 177.427 138.521 177.282 137.354C177.174 136.349 177.129 135.317 177.49 134.375C178.041 132.909 179.704 132.248 181.113 131.234C182.351 130.374 183.445 129.306 184.61 128.365C187.095 126.355 186.915 128.455 186.427 130.791M199.149 137.127C198.544 137.562 197.514 137.87 197.008 137.924C196.05 138.015 197.134 136.856 197.369 136.512C197.948 135.878 199.303 133.696 200.125 133.95H200.143C200.315 134.077 200.36 134.357 200.369 134.565C200.405 135.516 199.954 136.584 199.14 137.136" fill="#007540"/>
<path d="M154.502 58.3163C156.626 58.8141 159.255 58.9499 160.493 60.7876C161.388 61.8648 161.307 64.1642 163.014 64.3181C163.403 64.3452 163.819 64.2185 164.18 64.0555C166.349 63.0417 168.029 60.7333 170.478 60.3983C172.267 60.0815 173.867 61.0773 175.276 62.073C177.499 63.5667 178.303 62.7067 180.571 61.4846C182.704 60.5794 185.198 60.2897 187.466 60.6065C189.273 60.9415 190.619 62.3356 192.137 63.277C193.186 63.9469 194.288 64.5263 195.39 65.1147C198.381 66.7713 201.58 68.093 204.932 68.6814C206.975 69.0616 208.737 70.1298 210.77 70.6277C213.833 71.3066 217.059 70.7725 219.589 72.6554C220.673 73.3977 221.631 74.3845 222.733 75.0905C224.17 76.0411 225.977 76.4665 227.26 77.6252C228.977 79.0284 229.131 81.6174 230.848 82.9843C232.348 84.1521 234.462 83.609 236.107 84.4056C237.706 85.1298 238.691 86.8498 239.685 88.3434C241.347 90.7604 242.143 93.2951 241.104 96.1648C240.525 97.8033 240.643 99.3965 242.079 100.51C243.381 101.587 244.6 102.8 245.947 103.778C247.375 104.783 249.1 105.244 250.664 105.978C255.652 108.205 257.911 112.097 255.905 117.456C255.417 118.95 255.055 120.38 255.082 121.983C255.064 123.657 255.317 125.432 254.341 126.844C253.402 128.229 251.703 129.161 250.356 130.401C248.414 132.266 246.814 133.144 244.049 133.072C242.956 133.09 241.881 133.09 240.814 133.307C238.582 133.76 236.486 134.991 234.137 134.62C226.294 133.416 231.435 125.504 226.863 123.196C225.29 122.58 223.456 123.051 221.848 122.517C217.7 121.476 218.017 115.691 213.733 114.913C211.014 114.387 208.249 115.338 206.089 113.41C203.279 111.572 201.716 104.873 197.92 109.445C196.131 111.916 194.288 112.405 191.252 111.925C189.652 111.708 188.008 111.4 186.833 110.386C185.406 109.209 184.683 106.937 182.586 106.801C181.502 106.684 180.354 107.037 179.279 106.72C178.086 106.394 177.445 105.081 176.225 104.412C173.324 102.791 171.102 103.868 169.077 106.195C166.023 109.608 163.484 108.893 159.427 108.549C157.755 108.422 155.984 108.232 154.629 107.245C153.572 106.521 152.686 105.48 151.448 105.045C150.021 104.511 148.439 104.837 146.966 104.538C145.132 104.231 143.587 102.882 141.78 102.628C139.9 102.339 137.93 102.981 136.024 102.728C131.442 102.139 129.4 99.6862 126.482 104.873C125.786 105.905 124.828 106.82 123.699 107.372C122.072 108.205 120.346 108.368 119.154 109.445C117.816 110.604 117.193 112.658 115.34 113.129C113.605 113.681 111.672 113.5 109.864 113.446C106.395 113.509 104.569 117.049 101.75 118.515C98.4339 120.1 94.0153 119.692 92.1629 123.25C91.5575 124.309 91.178 125.585 90.5455 126.608C89.7323 127.93 88.4853 128.89 87.3377 129.903C86.163 130.935 84.7263 132.022 83.2083 132.465C79.2234 133.66 76.0788 130.528 72.6632 130.908C70.7295 131.062 69.2928 132.683 68.7597 134.493C68.2536 135.887 67.8561 137.453 66.6543 138.422C64.6031 140.006 61.1875 139.544 58.5399 139.463C53.1183 138.884 52.9376 134.946 53.8864 130.392C54.0581 129.152 54.2117 127.867 54.79 126.744C55.4406 125.441 56.7508 124.535 57.6273 123.386C59.4255 120.978 57.0128 119.203 55.549 116.307C54.6454 114.713 54.3292 112.278 54.7538 110.395C55.4135 107.173 57.6454 104.013 60.8351 102.99C61.9284 102.619 63.1122 102.511 64.1965 102.139C67.1332 101.144 67.9645 97.5045 70.8018 96.3006C72.9704 95.1147 75.7987 95.3048 77.6872 93.7025C79.5848 92.0459 80.2987 89.0495 82.7022 87.8274C84.2112 86.9312 86.1721 86.7773 87.4823 85.5552C88.2865 84.822 88.7925 83.7266 89.3437 82.6765C90.6901 80.4044 91.5846 77.7158 93.4009 75.8147C94.3316 74.9185 95.5243 74.3663 96.699 73.8504C98.2622 73.1986 99.7803 72.3929 101.371 71.8407C102.491 71.4514 103.648 71.2251 104.795 70.9354C106.359 70.5552 107.949 69.9668 109.476 69.65C111.41 69.2607 112.657 67.7399 114.102 66.2281C115.729 64.5987 116.09 62.7882 118.223 61.6566C121.711 59.8733 127.521 62.1998 130.087 64.7073C132.599 67.4321 133.476 66.9071 136.855 67.2149C137.876 67.3144 139.087 67.6041 139.864 67.4231C142.024 66.8347 139.647 63.1231 142.421 61.2855C143.569 60.4708 145.006 60.4617 146.298 60.0181C150.075 58.5788 149.975 57.2028 154.421 58.2981L154.502 58.3163Z" fill="#FFECCD"/>
<path d="M209.224 154.318C212.803 155.73 214.556 159.487 217.61 161.723C219.634 163.28 221.884 164.475 224.044 165.905C225.815 167.064 227.559 168.295 229.221 169.608C245.432 182.535 247.076 209.149 238.122 226.639C233.468 235.474 226.953 239.122 218.911 244.11C216.444 245.757 214.357 248.039 211.736 249.261C208.791 250.637 205.384 250.872 202.213 250.302C197.053 249.487 194.098 245.694 189.752 243.331C186.58 241.648 183.156 240.244 180.219 238.09C169.258 230.35 162.77 216.59 163.864 203.229C164.288 197.661 165.806 192.257 167.695 187.025C172.032 174.397 180.454 167.725 191.767 161.678C192.562 161.171 193.321 160.619 194.026 159.994C195.689 158.555 196.935 156.699 198.679 155.368C201.589 153.024 205.8 152.969 209.161 154.3L209.206 154.318H209.224Z" fill="#71D54C"/>
<path d="M244.691 179.484C246.507 184.146 246.39 188.111 243.082 192.067C241.176 194.294 238.501 195.643 235.935 196.946C233.983 197.942 231.923 198.73 230.161 200.042C229.7 200.395 229.266 200.785 228.869 201.21C227.821 202.287 227.206 203.564 225.977 204.016C224.26 204.433 223.312 201.952 222.86 200.576C222.426 199.191 222.227 197.734 222.309 196.276C222.462 191.56 225.507 187.441 228.119 183.757C228.923 182.625 229.673 181.512 230.152 180.19C230.866 178.171 231.028 175.881 230.812 173.727C230.595 171.563 229.845 170.26 228.2 168.902C227.405 168.15 224.378 166.123 224.315 166.095C224.251 166.077 227.658 164.556 229.971 164.964C237.155 166.231 242.097 172.197 244.682 179.466" fill="#007540"/>
<path d="M220.754 234.578C218.947 234.532 218.378 232.133 219.887 231.228C223.248 229.173 230.052 223.199 231.697 216.853C232.058 214.925 234.543 214.481 235.257 216.409C235.402 216.844 235.33 217.314 235.185 217.767C233.757 222.257 232.067 224.81 229.302 227.861C225.652 231.907 222.182 234.062 221.739 234.324C221.55 234.433 221.197 234.569 220.818 234.587H220.745L220.754 234.578Z" fill="white"/>
<path d="M208.484 164.882C207.788 164.919 207.191 164.339 206.749 163.823C205.809 162.981 205.167 162.954 204.616 162.764C203.875 162.52 203.351 161.768 203.387 160.99C203.866 157.486 208.791 160.148 210.038 162.148C210.797 163.289 209.866 164.9 208.547 164.891H208.484V164.882Z" fill="white"/>
<path d="M214.303 238.868C211.908 238.841 211.863 235.347 214.258 235.266C216.652 235.247 216.76 238.742 214.366 238.868H214.303Z" fill="white"/>
<path d="M185.586 64.0646C186.128 64.3633 186.625 64.7254 187.14 65.0785C188.279 65.9023 189.571 66.554 190.701 67.4321C191.342 67.9029 192.038 68.4822 192.86 68.5094C193.917 68.5456 194.776 67.7218 195.643 67.2239C196.981 66.3911 198.652 66.201 200.161 66.7622C201.029 67.0881 201.824 67.6946 202.158 68.5818C202.61 69.7043 202.285 71.1437 202.972 72.058C203.523 72.8093 204.526 73.1533 205.222 73.7779C208.718 76.9192 205.068 79.9608 206.387 81.0199C207.101 81.3096 207.788 80.7212 208.321 79.988C209.098 78.8292 209.378 77.2994 210.318 76.2221C212.215 73.959 215.532 74.5655 217.077 77.2994C217.899 78.7206 218.026 80.694 220.077 80.694C222.706 80.6488 225.507 82.8304 225.137 85.6277C224.983 88.0085 223.483 90.3169 221.062 90.6971C219.327 90.9867 217.411 89.9819 216.887 88.2529C216.526 87.3024 216.589 85.7997 216.173 85.0936C216.011 84.7948 215.667 84.5866 215.342 84.7315C214.601 85.0755 214.384 86.0622 214.095 86.7864C213.092 89.2849 212.703 90.1539 215.748 90.2263C217.384 90.2535 218.739 91.1768 219.715 92.5347C220.547 93.6753 220.971 94.997 220.438 96.3006C220.013 97.3688 219.056 98.3374 217.998 98.6271C217.059 98.8986 216.074 98.6995 215.107 98.6723C213.824 98.5999 212.486 98.7809 211.221 98.4732C208.484 97.6675 208.267 97.586 206.378 99.8491C204.969 101.352 202.574 101.225 201.074 99.9125C199.791 98.8443 198.49 97.405 198.372 95.7846C198.173 93.5577 200.143 91.2855 202.33 91.2764C202.972 91.2674 203.577 91.4484 204.155 91.72C204.969 92.0912 205.953 92.8244 206.803 92.2631C207.39 91.8739 207.571 91.0592 207.318 90.4164C207.056 89.6741 206.215 89.0314 205.682 88.1895C205.24 87.5377 204.941 86.6234 204.209 86.2704C203.586 86.0079 202.872 86.2704 202.24 86.4333C201.173 86.7502 199.999 86.8407 199.158 87.4472C198.327 88.0175 197.803 88.9318 196.999 89.5383C195.318 90.8419 192.842 90.7966 190.963 89.9548C188.098 88.3072 188.189 88.6965 185.134 89.1491C182.857 89.2668 180.318 88.8413 178.728 87.1847C178.032 86.5872 177.671 85.5371 177.011 84.9759C176.397 84.6319 175.529 86.1346 174.969 86.4695C172.972 88.108 170.74 88.0175 169.457 85.6729C167.939 83.0205 170.596 80.4496 172.511 78.8745C173.568 78.0055 174.318 75.3983 172.502 75.1358C168.671 75.0091 169.62 80.3229 163.918 79.7526C163.376 79.6711 162.87 79.481 162.427 79.1823C161.867 78.8745 160.918 77.5619 160.466 77.9964C160.258 79.0827 162.481 80.8479 163.358 81.382C164.27 81.9252 165.418 82.1515 166.195 82.8938C167.252 83.8534 167.514 85.338 167.794 86.6687C167.975 87.4563 168.337 88.0628 168.951 88.5607C169.403 88.9318 169.927 89.2396 170.37 89.6289C173.198 92.1998 172.755 96.5359 169.005 97.8485C168.228 98.1292 167.379 98.1382 166.593 98.3736C165.617 98.6271 164.921 99.3875 164.406 100.229C163.764 101.216 163.087 102.148 161.984 102.8C157.9 105.081 154.9 103.126 154.99 98.0115C154.945 96.9614 155.117 95.694 154.204 94.9789C152.93 94.1189 151.394 93.6844 150.246 92.5619C148.475 91.1859 148.475 88.4611 149.858 86.8226C152.334 84.2607 154.43 86.8316 153.798 81.201C153.662 79.3724 151.846 78.5033 151.005 77.0549C149.777 74.8009 150.951 71.4424 153.671 70.9717C159.237 69.6319 159.138 75.335 161.758 72.9089C162.734 71.9493 164.09 71.2342 164.749 70.1117C165.761 68.1382 165.553 66.1648 168.065 65.2686C171.499 63.9016 174.327 66.3187 175.33 69.7496C175.601 70.6458 175.547 71.6959 175.773 72.1485C175.909 72.4472 176.162 72.5287 176.568 72.4744C176.939 72.4291 177.409 72.2843 177.815 72.239C180.147 71.895 182.026 74.3482 181.701 76.6023C181.665 77.3356 181.556 78.1684 182.107 78.6934C182.631 79.2185 183.725 79.3995 184.61 79.7707C185.035 79.9427 185.433 80.16 185.83 80.3953C187.863 81.7351 188.586 82.4864 191.08 81.5631C192.951 81.1467 194.243 81.545 195.472 79.7707C196.339 78.6663 196.99 77.3356 196.854 75.9143C196.809 75.2444 196.583 74.6741 196.14 74.3935C195.544 74.0133 194.875 73.7327 194.369 73.1805C194.026 72.8455 193.719 72.4382 193.312 72.23C192.436 71.8407 191.55 73.6965 190.809 74.1129C188.957 75.4436 186.083 75.8057 184.276 74.3392C183.481 73.7236 182.686 73.108 181.8 72.6192C181.086 72.2209 180.391 71.7773 179.903 71.1074C176.586 66.4907 180.119 61.1135 185.559 64.0103L185.604 64.0374L185.586 64.0646Z" fill="#FFDD00"/>
<path d="M92.434 89.8642C93.2924 90.9505 93.0665 92.4714 93.7533 93.6391C94.2683 94.5353 95.4611 95.1509 96.0213 96.1738C96.7352 97.3325 96.6719 99.0073 98.2171 99.4418C100.702 100.383 101.325 99.6228 103.304 98.3102C103.964 97.9391 104.714 97.7037 105.464 97.6041C106.575 97.4321 107.768 97.7852 108.563 97.3778C109.693 96.7622 109.837 95.2324 110.714 94.3633C111.925 92.933 114.075 93.0145 115.611 93.8473C117.617 94.9155 119.506 96.9161 119.452 99.2879C119.461 101.814 117.59 104.946 114.762 104.176C113.967 104.004 113.226 103.588 112.512 103.217C111.988 102.945 111.337 102.701 110.822 102.99C110.027 103.506 109.792 104.602 109.277 105.371C107.669 108.033 106.304 109.028 103.35 108.005C102.428 107.824 102.636 108.684 102.69 109.508C102.744 110.06 102.762 110.631 102.681 111.174C102.392 113.066 101.081 114.922 99.3285 115.691C96.4279 116.986 93.0575 115.329 92.8858 112.034C92.8677 109.59 95.1719 108.558 93.6087 105.96C93.1208 104.964 92.5063 103.941 91.4672 103.579C90.672 103.316 89.1449 102.492 88.4943 102.692C87.9883 103.018 88.3497 103.868 88.3768 104.384C88.5666 105.398 88.4582 106.467 88.8648 107.308C89.2082 108.042 89.8949 108.53 90.4913 109.037C91.4401 109.789 92.0635 110.857 92.2804 112.043C92.6057 113.727 92.5967 115.691 91.4039 116.823C89.931 118.199 87.4461 118.208 85.901 116.931C85.6209 116.732 84.5185 115.791 84.5908 116.18C84.7895 116.814 85.6118 117.674 85.9552 118.325C87.2925 120.552 86.5877 125.703 84.7353 127.568C83.5245 128.763 81.4372 129.034 79.9553 128.238C79.2324 127.83 78.7716 127.097 78.4101 126.364C77.5698 124.816 77.5517 123.15 77.1903 121.494C76.9553 120.616 76.4583 119.855 76.0156 119.068C74.4162 115.782 73.5307 117.103 71.2897 115.311C70.5488 114.704 69.9976 113.41 69.5097 113.129C69.4012 113.066 69.2928 113.03 69.1663 113.057C68.5247 113.256 68.0729 114.206 68.0458 114.931C68.1814 116.795 71.2355 116.678 71.6783 120.607C72.1753 126.002 67.0157 127.93 63.4555 124.065C59.9496 120.063 63.8712 118.262 61.811 115.736C61.1785 114.994 60.3923 114.342 59.9857 113.437C58.8381 111.092 60.3833 108.005 62.8772 107.363C63.9073 107.073 65.0549 107.055 66.1031 107.29C66.9886 107.462 67.6934 108.06 68.3982 108.558C69.4103 109.336 70.4855 108.395 70.8651 107.308C71.109 106.62 71.0006 105.905 70.8651 105.199C70.4223 103.371 71.109 101.859 72.5096 100.682C72.8801 100.302 73.1783 99.8673 73.2054 99.3332C73.2235 98.3012 72.5006 96.8347 72.8168 95.6307C72.9162 95.0513 73.1783 94.5263 73.5578 94.0827C74.868 92.5438 77.2174 91.4484 79.142 92.5257C80.1721 93.0236 81.3378 94.4176 82.5215 93.6844C83.651 92.9692 83.4703 91.2945 84.0125 90.1901C84.5998 88.9137 86.1088 88.0628 87.5275 87.8455C89.2985 87.6283 91.2864 88.3796 92.3798 89.8099L92.4069 89.8461L92.434 89.8642ZM80.398 100.492C80.0456 100.329 79.63 100.637 79.3137 100.827C79.0969 100.972 78.8348 101.071 78.7354 101.316C78.6451 101.542 78.88 101.877 79.124 102.212C79.3951 102.592 79.6842 102.909 80.0095 102.809C80.8679 102.456 81.3016 101.08 80.4342 100.519L80.389 100.501L80.398 100.492ZM79.5396 105.978C78.9975 105.86 78.5095 106.566 78.2836 107.028C77.6421 108.205 78.2023 109.481 78.8981 110.604C79.4493 111.617 80.4884 112.161 81.5727 112.414C82.0878 112.55 82.5757 112.622 82.9552 112.477C83.5697 112.269 83.9763 111.346 83.8859 110.685C83.8317 110.015 83.2444 109.572 82.7113 109.2C82.142 108.811 81.5998 108.34 81.13 107.77C80.5968 107.164 80.0728 106.113 79.5667 105.987H79.5306L79.5396 105.978Z" fill="#FFDD00"/>
<path d="M239.477 100.763C241.176 102.121 241.076 104.701 239.667 106.267C239.305 106.801 238.058 107.553 238.528 108.223C238.908 108.712 240.372 109.046 241.23 108.893C242.766 108.675 244.094 107.508 245.631 107.173C248.965 106.204 251.052 109.046 251.143 112.296C251.106 114.822 250.221 115.139 251.405 117.773C252.281 120.127 250.998 122.535 250.013 124.653C249.218 126.391 248.594 128.609 246.552 129.116C245.468 129.387 244.284 129.089 243.317 128.555C242.378 128.111 241.61 126.871 240.57 127.052C239.432 127.351 238.555 128.5 237.372 128.808C235.564 129.424 233.188 128.745 232.077 127.188C231.019 125.676 230.974 123.304 231.959 121.82C233.875 119.031 238.104 119.665 240.48 121.639C241.51 122.453 242.07 122.109 242.613 120.86C243.037 119.828 243.679 118.642 243.281 117.538C243.109 117.049 242.603 116.85 242.134 116.995C241.338 117.185 240.498 118.117 239.522 118.606C235.501 120.905 232.628 116.488 233.405 112.767C233.513 112.197 233.73 111.636 233.757 111.074C233.802 109.707 232.049 109.725 231.209 109.037C230.007 108.232 229.565 106.693 229.546 105.299C229.528 103.217 230.893 101.234 232.592 100.085C234.634 98.8443 237.588 99.3513 239.441 100.736L239.477 100.773V100.763Z" fill="#FFDD00"/>
<path d="M121.991 64.6077C122.632 64.8341 123.256 65.1962 123.888 65.5311C124.909 66.0833 126.021 66.6174 126.753 67.5408C128.271 69.3603 127.394 72.0308 125.325 73.2438C121.891 74.9457 122.885 75.1358 121.801 78.3042C121.132 80.0604 119.199 80.7121 117.391 80.522C115.846 80.4496 114.247 79.3995 112.774 80.2867C111.979 80.7484 111.247 81.3549 110.361 81.6446C108.482 82.3054 106.286 82.4593 104.56 81.3458C102.862 80.169 101.217 79.4539 101.344 82.3325C101.497 85.1479 99.1749 87.1847 96.3918 87.0036C92.5605 87.2299 89.3527 83.1201 92.0726 79.8703C93.1659 78.7297 95.199 78.3313 95.443 76.5299C95.5966 75.7061 95.6237 74.819 95.9581 74.0405C96.8436 72.0036 99.6628 70.6277 101.813 71.4786C102.844 71.886 103.72 72.7369 104.868 72.8365C105.852 72.9542 106.946 72.5377 108.003 72.6464C108.807 72.7097 109.566 72.9904 110.28 73.3615C111.193 73.8594 112.205 74.5112 113.226 73.9137C113.904 73.5426 114.608 72.8998 115.295 72.4563C117.464 71.1346 116.741 69.5323 117.22 67.3959C117.717 65.4225 119.967 63.8745 121.964 64.5896L122.009 64.6077H121.991Z" fill="#FFDD00"/>
<path d="M128.406 77.8516C130.765 78.7568 131.054 80.7122 131.153 82.9572C131.208 83.3555 131.298 83.7085 131.488 84.0525C131.939 84.9125 132.97 85.519 133.476 86.5239C133.72 86.9855 133.891 87.4744 134.009 87.9813C134.198 88.452 134.18 90.2806 134.777 90.2082C135.174 90.0543 135.355 89.7103 135.662 89.3754C136.213 88.6784 136.846 88.0447 137.668 87.7007C139.033 87.1394 140.731 87.1756 142.069 87.7278C143.759 88.4792 144.933 90.4255 144.707 92.2722C143.903 97.07 137 98.8172 134.885 94.0284C133.973 92.2088 133.087 93.7478 132.111 94.4448C131.162 95.1599 129.942 95.4315 128.994 96.1557C127.62 97.2511 125.976 98.7538 124.132 98.2559C123.256 98.0477 122.515 97.4774 121.855 96.8799C120.762 95.9475 120.066 94.7164 119.894 93.277C119.705 91.8286 119.009 91.4032 117.654 91.3036C114.157 90.9777 110.795 88.5335 112.295 84.6953C113.551 81.201 117.943 81.3911 120.301 83.618C121.033 84.2607 122.181 85.1479 122.659 83.7628C122.894 83.1292 122.985 82.3778 123.156 81.7079C123.717 79.1189 125.515 76.8105 128.352 77.8244L128.397 77.8425L128.406 77.8516Z" fill="#FFDD00"/>
<path d="M214.818 100.718C215.36 101.116 215.785 101.642 216.101 102.23C216.58 103.072 216.779 104.258 217.285 104.756C217.709 105.208 218.351 105.045 218.893 104.891C219.489 104.71 220.122 104.538 220.763 104.547C222.788 104.575 224.513 105.842 226.05 107.091C226.944 107.843 227.839 108.621 228.498 109.599C232.113 115.184 223.998 118.552 220.194 115.112C219.625 114.569 219.164 113.926 218.649 113.328C217.899 112.441 216.923 111.69 216.489 110.649C215.875 109.155 216.119 107.58 213.878 108.467C211.755 109.291 208.727 109.517 207.562 107.136C206.45 105.045 207.372 102.049 209.559 101.044C211.312 100.275 213.128 99.3965 214.791 100.682L214.827 100.709L214.818 100.718Z" fill="#FFDD00"/>
<path d="M134.533 69.7496C135.301 70.1388 135.97 70.7272 136.53 71.379C137.325 72.3024 137.786 73.3977 138.96 73.5878C140.063 73.7327 141.192 73.7327 142.213 74.303C143.415 74.8733 144.319 75.9867 144.608 77.2903C145.078 79.5444 143.343 82.2058 141.039 82.6403C139.548 82.9481 137.497 82.8395 136.584 81.726C135.942 81.0018 135.762 79.7888 134.813 79.3814C134.334 79.1642 133.783 79.137 133.268 79.0374C132.4 78.8835 131.56 78.5124 130.738 78.1412C130.205 77.8968 129.68 77.6434 129.193 77.3084C127.34 76.0863 126.5 73.271 127.702 71.3247C129.084 69.2517 132.355 68.7085 134.488 69.7405L134.533 69.7586V69.7496Z" fill="#FFDD00"/>
<path d="M236.152 88.2167C236.685 88.615 237.101 89.1762 237.507 89.7647C238.185 90.7695 239.025 91.8377 238.953 93.1141C238.817 94.8884 237.245 96.5088 235.564 97.1153C233.676 97.6132 232.402 96.5088 231.453 98.9167C230.649 101.098 228.435 102.9 226.04 102.004C224.857 101.569 223.781 100.564 223.447 99.4146C223.176 98.446 223.158 97.4231 223.031 96.4364C222.733 94.6983 223.619 93.0326 225.209 92.1907C226.528 91.4303 228.408 91.8558 229.384 90.507C229.935 89.819 230.369 88.9771 231.101 88.452C232.51 87.402 234.76 87.1937 236.116 88.1986L236.152 88.2257V88.2167Z" fill="#FFDD00"/>
<path d="M183.381 91.4213C185.397 92.7067 186.779 95.7303 185.875 98.0839C184.981 100.519 183.327 101.27 180.888 101.144C179.577 101.126 178.222 101.008 177.373 100.257C176.261 99.2607 175.963 97.577 176.252 96.1738C176.541 95.0242 176.939 93.8473 177.544 92.8244C178.638 91.1497 181.674 90.4979 183.336 91.4122L183.381 91.4303V91.4213Z" fill="#FFDD00"/>
<path d="M64.7115 127.432C68.6422 131.162 64.9374 135.444 60.4556 135.688C58.4857 135.806 56.6062 134.013 56.0099 132.139C55.3773 130.356 56.3894 128.817 57.6273 127.577C59.5881 125.441 62.57 125.404 64.6754 127.396L64.7115 127.432Z" fill="#FFDD00"/>
<path d="M155.144 63.8383C156.59 65.5311 156.12 68.4279 154.475 69.8129C153.581 70.5281 152.469 70.9173 151.421 71.37C149.596 72.2752 147.454 71.5872 146.225 69.9397C145.159 68.609 145.096 66.9704 146.09 65.5402C147.237 63.612 149.207 62.58 151.448 62.6434C152.822 62.6615 154.295 62.8878 155.108 63.8202L155.144 63.8564V63.8383Z" fill="#FFDD00"/>
<path d="M193.728 97.0429C194.812 97.8214 195.661 99.1249 195.806 100.419C195.905 102.067 194.848 104.502 193.655 105.561C191.993 106.983 189.029 106.62 187.619 105C187.204 104.484 186.942 103.823 186.806 103.171C186.436 101.37 186.824 99.478 188.062 98.1563C189.408 96.6627 191.921 95.8751 193.683 97.0157L193.728 97.0429Z" fill="#FFDD00"/>
<path d="M106.684 88.787C107.687 90.2082 107.524 92.3446 106.413 93.6753C105.247 95.0423 102.979 95.2776 101.226 94.8341C99.8797 94.4629 98.5514 93.7568 97.8918 92.5528C97.196 91.2402 97.2231 89.4207 98.0183 88.1805C98.5785 87.3476 99.699 86.8316 100.729 86.5239C102.844 85.9173 105.383 87.058 106.648 88.7327L106.675 88.7779L106.684 88.787Z" fill="#FFDD00"/>
<path d="M152.46 95.866C153.725 97.3778 154.566 99.8582 152.903 101.406C151.719 102.547 149.749 103.126 148.268 102.483C147.418 102.112 146.677 101.533 145.918 101.017C145.295 100.573 144.698 100.03 144.445 99.2788C143.894 97.6403 144.762 95.5673 146.198 94.6802C146.984 94.2185 148.051 94.2366 149.054 94.3181C150.346 94.4176 151.62 94.8612 152.433 95.8389L152.469 95.8751L152.46 95.866Z" fill="#FFDD00"/>
<path d="M194.676 181.213C194.676 182.426 192.951 183.404 190.818 183.404C188.686 183.404 186.96 182.426 186.96 181.213C186.96 180 188.686 179.022 190.818 179.022C192.951 179.022 194.676 180 194.676 181.213Z" fill="#F287B7"/>
<path d="M223.14 181.213C223.14 182.426 221.414 183.404 219.282 183.404C217.149 183.404 215.423 182.426 215.423 181.213C215.423 180 217.149 179.022 219.282 179.022C221.414 179.022 223.14 180 223.14 181.213Z" fill="#F287B7"/>
<path d="M195.273 176.325C195.273 178.543 193.475 180.344 191.261 180.344C189.047 180.344 187.249 178.543 187.249 176.325C187.249 174.107 189.047 172.305 191.261 172.305C193.475 172.305 195.273 174.107 195.273 176.325Z" fill="#231F20"/>
<path d="M222.833 175.954C222.833 178.171 221.035 179.973 218.821 179.973C216.607 179.973 214.809 178.171 214.809 175.954C214.809 173.736 216.607 171.934 218.821 171.934C221.035 171.934 222.833 173.736 222.833 175.954Z" fill="#231F20"/>
<path d="M212.134 180.851C210.652 189.197 200.622 189.125 198.273 181.928C197.83 180.552 197.478 178.724 198.544 177.393C199.899 176.107 202.14 176.786 202.7 178.57C203.234 180.127 203.206 182.037 205.42 181.847C207.462 181.575 206.803 179.194 207.706 177.9C208.52 176.578 210.724 176.596 211.601 177.864C212.152 178.57 212.261 180.109 212.143 180.815V180.842L212.134 180.851Z" fill="#231F20"/>
<path d="M154.602 97.6765C148.963 97.6765 145.746 95.2957 144.039 93.2951C142.159 91.1044 141.662 88.8685 141.617 88.615C141.617 88.615 140.994 86.0622 143.623 85.4285C146.551 84.7134 147.319 87.4563 147.319 87.4563C147.319 87.4563 148.539 91.8467 154.602 91.8467C160.34 91.8467 162.273 88.3434 162.716 87.3295C162.834 87.0489 162.978 86.7773 163.15 86.5239C163.692 85.7544 164.885 84.5414 166.701 85.2475C169.349 86.2794 168.327 88.9409 168.327 88.9409C168.21 89.2939 165.355 97.6765 154.602 97.6765Z" fill="#231F20"/>
<path d="M179.207 78.3313C179.207 81.029 177.02 83.2197 174.327 83.2197C171.635 83.2197 169.448 81.029 169.448 78.3313C169.448 75.6337 171.635 73.443 174.327 73.443C177.02 73.443 179.207 75.6337 179.207 78.3313Z" fill="#231F20"/>
<path d="M140.578 78.3313C140.578 81.029 138.391 83.2197 135.698 83.2197C133.006 83.2197 130.819 81.029 130.819 78.3313C130.819 75.6337 133.006 73.443 135.698 73.443C138.391 73.443 140.578 75.6337 140.578 78.3313Z" fill="#231F20"/>
</svg>
