<svg width="310" height="310" viewBox="0 0 310 310" fill="none" xmlns="http://www.w3.org/2000/svg">
<rect width="310" height="309.818" fill="#F3BEC4"/>
<path d="M179.394 68.3135C181.613 68.9407 183.726 69.7358 185.927 70.4603C190.922 71.9621 195.766 73.8616 200.381 76.3706C204.333 78.4291 207.701 81.6184 211.201 84.3217C213.597 86.1505 216.285 87.5464 218.689 89.3663C221.359 91.3629 223.463 93.8719 225.593 96.3809C228.157 99.3759 230.827 102.291 233.028 105.569C235.229 108.785 236.847 112.504 238.527 116.02C242.072 123.053 245.13 130.553 246.651 138.292C247.411 142.347 247.88 146.438 248.215 150.555C248.454 153.735 249.17 156.836 249.4 159.999C249.488 161.28 249.444 162.57 249.4 163.851C249.285 166.775 249.197 169.637 248.746 172.526C246.226 188.411 239.092 203.297 228.431 215.259C220.51 223.581 211.52 230.905 201.238 236.126C196.845 238.37 192.239 240.676 187.492 241.984C185.83 242.443 184.15 242.814 182.471 243.203C178.758 244.139 175.036 244.926 171.252 245.465C168.194 246.03 165.215 246.251 162.12 246.065C158.832 245.88 155.366 246.127 152.104 246.454C149.037 246.763 145.801 246.631 142.743 246.092C138.411 245.208 134.053 244.316 129.712 243.229C127.414 242.62 125.044 242.196 122.728 241.683C119.369 240.924 116.151 239.404 112.969 238.097C108.602 236.33 104.606 233.759 100.69 231.082C95.2706 227.38 90.214 223.175 85.7762 218.404C81.8069 214.305 78.3769 209.897 75.5745 204.861C67.6095 190.593 61.8987 174.585 61.5628 158.029C61.4744 147.215 64.0557 136.499 67.1233 126.215C68.2283 122.531 70.0582 119.13 72.2418 115.976C74.4695 112.601 76.6442 109.332 79.1018 106.152C80.914 103.775 82.6909 101.346 84.5916 99.0401C87.4558 95.6123 90.7621 92.1933 94.1479 89.2249C95.7126 87.9086 97.295 86.8043 98.9658 85.6646C101.529 83.8447 104.128 81.6802 106.887 80.0635C108.168 79.2684 109.521 78.6058 110.812 77.8548C112.208 77.042 113.561 76.2027 114.958 75.443C116.514 74.6214 118.087 73.7556 119.723 73.0665C121.146 72.4834 122.613 72.0063 124.072 71.5381C125.893 70.9285 127.714 70.3366 129.491 69.621C130.835 69.0909 132.179 68.5608 133.575 68.2074C136.696 67.43 139.949 66.9618 143.114 66.361C150.522 64.9475 158.204 63.6223 165.736 65.1242C168.512 65.6101 171.137 66.3433 173.86 66.9618C175.699 67.377 177.538 67.7922 179.341 68.3046H179.377L179.394 68.3135Z" fill="#FFECCD"/>
<path d="M180.031 65.9988C182.312 66.6437 184.477 67.4653 186.74 68.1986C191.868 69.7358 196.845 71.6883 201.574 74.268C205.632 76.3794 209.089 79.6571 212.678 82.4311C215.135 84.3041 217.893 85.7353 220.369 87.617C223.109 89.6667 225.266 92.2375 227.459 94.8172C230.093 97.8917 232.833 100.887 235.097 104.253C237.36 107.548 239.013 111.373 240.745 114.978C244.379 122.196 247.517 129.899 249.082 137.842C249.869 142.003 250.337 146.208 250.691 150.431C250.929 153.691 251.672 156.871 251.911 160.122C251.999 161.439 251.955 162.764 251.911 164.072C251.796 167.075 251.699 170.008 251.239 172.977C248.649 189.285 241.329 204.56 230.385 216.841C222.252 225.384 213.022 232.902 202.467 238.256C197.95 240.561 193.229 242.92 188.358 244.272C186.652 244.74 184.928 245.12 183.204 245.518C179.394 246.481 175.575 247.285 171.694 247.832C168.556 248.407 165.497 248.636 162.324 248.451C158.947 248.256 155.393 248.513 152.043 248.857C148.887 249.175 145.572 249.034 142.433 248.486C137.987 247.576 133.513 246.666 129.058 245.553C126.698 244.926 124.267 244.493 121.889 243.972C118.441 243.194 115.135 241.63 111.873 240.288C107.391 238.476 103.289 235.835 99.2752 233.079C93.7059 229.28 88.5166 224.968 83.9639 220.056C79.8886 215.851 76.3613 211.319 73.4971 206.151C65.3022 191.521 59.4411 175.088 59.0963 158.091C58.9991 146.985 61.6512 135.986 64.7983 125.429C65.9298 121.639 67.8128 118.158 70.0582 114.916C72.3479 111.453 74.5756 108.096 77.0951 104.827C78.9515 102.388 80.7814 99.8971 82.7351 97.5294C85.6789 94.0044 89.0736 90.5059 92.5478 87.4492C94.1479 86.0975 95.7833 84.9667 97.4895 83.7917C100.124 81.9276 102.785 79.7012 105.622 78.0403C106.94 77.2276 108.328 76.5385 109.654 75.7699C111.086 74.9394 112.474 74.0736 113.906 73.2962C115.506 72.448 117.115 71.5558 118.794 70.8578C120.262 70.2571 121.756 69.7712 123.25 69.2941C125.115 68.6668 126.989 68.0573 128.81 67.324C130.181 66.7762 131.569 66.2373 133.001 65.8751C136.201 65.08 139.542 64.5941 142.787 63.9845C150.407 62.5445 158.284 61.184 166.019 62.7212C168.866 63.2159 171.562 63.9668 174.364 64.6118C176.247 65.0358 178.139 65.4599 179.995 65.99H180.031V65.9988ZM160.467 70.584C156.489 70.1511 152.44 70.4956 148.392 70.902C145.527 71.2112 142.981 71.8561 140.117 72.4657C133.549 73.7379 127.157 76.2646 121.031 78.8001C116.089 80.9911 111.545 83.9949 107.143 87.0958C104.792 88.7744 102.334 90.3911 100.097 92.2022C96.685 95.0646 93.5644 98.2009 90.4615 101.514C88.11 103.996 85.6259 106.364 83.6722 109.156C78.8719 115.782 75.7071 123.388 73.0551 131.092C71.6318 135.377 70.3676 139.485 69.2803 143.814C67.7067 150.979 68.078 158.497 68.9886 165.75C70.4118 175.654 73.6032 185.107 77.705 194.074C81.9307 203.403 87.6768 212.167 95.0319 219.323C100.354 224.235 106.489 228.555 113.066 231.638C116.469 233.202 120.014 234.333 123.639 235.481C126.972 236.586 130.304 237.637 133.787 238.185C145.678 240.128 157.63 240.747 169.573 238.812C173.277 238.3 176.981 237.849 180.526 237.01C188.067 235.155 195.254 232.451 202.176 228.988C208.01 225.922 212.899 221.885 217.752 217.397C222.879 212.759 227.627 207.644 231.428 201.866C237.298 193.296 240.542 182.951 242.239 172.738C242.841 169.646 243.424 166.554 243.61 163.4C243.866 159.398 243.619 155.414 243.168 151.491C242.46 145.06 240.816 138.76 238.297 132.797C236.352 127.947 234.425 123.132 232.153 118.459C229.386 112.751 225.885 107.495 222.004 102.486C220.042 99.959 218.159 97.4234 215.851 95.2236C213.898 93.3507 211.643 91.6721 209.495 89.9494C206.843 87.8379 204.209 85.7264 201.389 83.8535C196.65 80.7084 191.497 78.1994 186.184 75.9289C182.329 74.3033 178.307 72.8456 174.232 72.0682C169.776 71.1052 164.932 71.0964 160.476 70.5928H160.441L160.467 70.584Z" fill="#FFDD00"/>
<path d="M99.6553 106.099C99.9824 109.279 102.29 111.744 104.535 113.812C106.445 115.578 108.301 117.292 110.184 119.042C112.721 121.383 115.029 123.971 117.645 126.242C122.163 130.058 127.025 133.46 131.56 137.25C135.83 140.916 140.656 143.946 144.67 147.904C146.128 149.274 147.393 150.961 149.116 152.003C153.537 154.371 153.934 148.381 154.032 145.422C154.695 134.564 152.918 123.777 152.361 112.972C152.087 108.149 151.998 103.298 152.078 98.4659C152.122 92.264 153.687 82.4753 146.703 79.6482C144.749 78.8796 142.318 78.6853 140.223 78.6676C133.531 78.5174 127.431 83.3941 122.092 86.9544C120.12 88.2266 117.999 89.2603 115.815 90.1172C110.971 91.9902 105.817 93.8012 102.537 97.9977C100.69 100.242 99.3283 103.122 99.6465 106.081V106.125L99.6553 106.099Z" fill="#E98596"/>
<path d="M156.525 98.6779C156.763 109.085 156.807 119.413 157.161 129.793C157.143 132.974 157.17 136.26 157.196 139.467C157.276 142.374 156.94 145.678 157.833 148.505C158.611 151.235 161.502 151.244 163.597 149.892C166.7 147.834 169.016 144.874 171.862 142.471C176.61 138.381 181.454 134.387 185.883 129.935C190.63 125.5 195.802 121.56 200.664 117.266C206.056 112.902 214.587 106.276 208.505 99.1638C206.383 96.7962 204.651 94.9851 201.53 92.7676C198.083 90.3204 192.964 87.1135 188.968 85.7176C183.107 83.8623 178.077 82.0424 172.225 80.143C157.409 75.3458 156.516 86.9898 156.516 98.6426V98.6868L156.525 98.6779Z" fill="#E98596"/>
<path d="M117.804 208.66C120.695 204.287 123.356 199.737 126.238 195.346C127.396 193.632 128.696 192.015 129.889 190.319C131.241 188.428 132.417 186.458 133.77 184.594C134.672 183.331 135.626 182.103 136.528 180.831C137.695 179.214 138.685 177.474 139.781 175.804C141.532 173.047 143.857 170.671 145.704 167.985C148.259 164.275 147.251 160.458 142.371 159.884C138.826 159.522 135.326 160.361 131.86 160.953C126.804 161.775 121.844 163.038 116.841 164.116C112.368 165.035 107.85 165.777 103.377 166.678C100.186 167.305 96.8707 167.791 93.644 168.374C90.5676 168.957 87.2613 169.779 85.0247 172.085C83.4247 173.728 82.7086 175.972 82.6025 178.242C82.3992 181.75 83.575 185.116 85.1397 188.199C86.5541 191.044 88.0304 193.818 89.8869 196.362C91.0891 198.014 92.3798 199.613 93.6086 201.256C96.0574 204.578 98.7625 207.75 101.689 210.683C107.744 216.92 113.199 215.922 117.769 208.695L117.796 208.66H117.804Z" fill="#E98596"/>
<path d="M82.6821 160.273C87.1641 165.609 94.7225 164.522 100.858 163.541C103.819 163.1 106.728 162.384 109.636 161.677C120.014 159.274 130.667 158.709 141.187 157.181C143.123 156.907 145.907 156.032 145.642 153.7C145.536 152.463 144.422 151.094 143.414 150.078C141.885 148.558 140.267 147.224 138.623 145.899C133.849 142.029 128.413 139.052 123.727 135.059C118.688 131.039 114.065 126.525 109.026 122.496C106.091 119.872 102.643 117.54 98.5857 117.522C94.9523 117.434 91.2836 118.98 88.6227 121.471C85.1839 124.855 83.1771 129.572 81.6036 134.078C80.7461 136.826 80.2422 139.688 79.7383 142.506C78.6951 148.479 78.4918 155.343 82.6467 160.237L82.6732 160.273H82.6821Z" fill="#E98596"/>
<path d="M206.949 204.622C206.207 201.716 204.226 199.534 202.229 197.413C198.684 193.756 195.086 190.134 191.417 186.582C188.12 183.578 184.61 180.84 181.003 178.216C179.005 176.776 177.087 175.238 175.23 173.622C172.517 171.281 169.626 169.081 167.062 166.625C165.63 165.317 164.109 163.736 162.103 163.524C157.311 163.497 158.266 170.697 158.637 173.913C159.698 181.679 160.29 189.383 161.086 197.157C161.961 205.267 162.306 213.386 163.367 221.47C163.924 226.276 165.276 230.437 170.589 231.453C174.974 232.319 179.35 230.605 183.266 228.767C187.837 226.744 192.089 224.191 196.093 221.249C201.645 217.424 209.027 212.476 206.958 204.675V204.631L206.949 204.622Z" fill="#E98596"/>
<path d="M158.885 198.359C158.408 192.757 157.585 187.2 157.073 181.608C156.834 178.763 156.56 175.936 156.127 173.109C155.809 171.201 155.517 169.081 154.297 167.535C152.555 165.344 149.859 166.475 148.206 168.241C145.554 171.042 143.68 174.452 141.726 177.747C137.863 184.647 132.744 190.681 128.704 197.475C127.608 199.33 126.565 201.239 125.416 203.059C122.092 208.792 113.915 217 120.085 223.369C122.711 225.931 125.999 227.795 129.394 229.156C132.621 230.41 136.086 231.153 139.436 232.036C141.92 232.69 144.431 233.282 147.012 233.202C150 233.114 153.042 232.31 155.278 230.287C159.026 226.965 158.911 221.708 159.168 217.106C159.495 210.86 159.574 204.552 158.876 198.385V198.341L158.885 198.359Z" fill="#E98596"/>
<path d="M233.532 143.072C233.046 138.548 232.453 133.901 230.738 129.661C228.793 125.42 225.947 121.666 223.198 117.92C221.925 116.294 220.563 114.598 218.645 113.706C216.028 112.478 212.607 112.778 210.149 114.289C208.373 115.375 206.87 116.824 205.225 118.088C200.186 121.842 195.492 125.986 190.789 130.156C185.529 134.679 180.137 139.043 174.956 143.655C172.764 145.581 170.413 147.286 168.096 149.062C166.726 150.184 164.711 151.73 165.047 153.682C165.807 155.864 170.271 155.475 172.234 155.29C177.821 154.601 183.443 153.921 189.065 153.603C191.603 153.435 194.131 153.311 196.677 153.276C200.125 153.223 203.572 153.452 207.011 153.541C212.024 153.585 217.133 153.691 222.172 153.709C230.323 153.656 234.204 152.304 233.523 143.107V143.063L233.532 143.072Z" fill="#E98596"/>
<path d="M231.357 166.413C231.331 163.904 230.57 160.997 228.475 159.495C226.566 158.152 223.896 158.064 221.606 157.896C216.117 157.702 210.742 156.969 205.287 157.066C200.01 157.092 194.431 156.986 189.092 156.889C183.708 156.942 178.095 157.304 172.676 157.605C170.554 157.799 165.029 157.198 164.826 160.043C164.808 160.997 165.657 162.137 166.452 162.914C167.504 163.939 168.662 164.84 169.75 165.83C174.612 170.194 179.81 174.205 185.229 177.853C190.462 181.29 195.103 185.451 199.674 189.692C202.679 192.351 205.862 194.851 209.274 196.963C212.43 199.083 216.886 199.701 220.086 197.36C223.109 195.143 224.241 191.326 225.549 187.978C227.043 183.896 228.528 179.824 229.695 175.627C230.535 172.632 231.401 169.584 231.366 166.448V166.404L231.357 166.413Z" fill="#E98596"/>
<path d="M175.46 176.034C176.123 171.978 173.807 167.641 171.04 164.716C163.871 156.889 149.815 159.433 141.222 163.515C137.032 165.812 135.096 172.102 137.721 176.175C141.151 180.928 149.85 181.06 155.26 181.308C158.213 181.334 161.175 181.158 164.136 181.043C168.008 180.76 174.276 180.636 175.443 176.104L175.46 176.034Z" fill="#ED1C29"/>
<path d="M185.008 154.892C181.657 149.592 175.372 146.111 168.185 145.581C159.309 144.927 149.063 145.713 146.137 145.969C133.487 147.083 128.987 154.186 127.431 158.32C125.053 164.646 126.282 172.332 130.366 176.599C135.511 181.97 143.521 184.612 154.783 184.612C156.427 184.612 158.142 184.559 159.937 184.444C170.085 183.799 181.595 183.075 186.033 171.643C189.048 163.886 187.147 158.25 185.025 154.892M159.557 178.693C152.352 179.143 146.482 178.825 142.044 177.147C141.593 176.979 140.541 176.466 139.896 174.558C139.41 173.1 139.463 170.265 141.125 167.897C143.414 164.61 148.692 162.782 156.374 162.596C163.535 162.419 168.468 164.001 171.04 167.278C172.543 169.196 173.056 171.493 173.153 173.445C173.25 175.397 171.871 177.111 169.953 177.518C166.983 178.145 163.5 178.437 159.557 178.684" fill="#231F20"/>
<path d="M92.0881 133.645C84.4501 134.909 79.0222 141.596 76.9625 148.788C75.2828 153.965 75.7779 159.963 79.7471 163.939C85.7143 169.841 95.4385 172.217 103.43 169.973C108.681 168.436 112.933 164.345 115.099 159.363C117.353 154.318 117.601 147.948 114.525 143.266C109.83 136.455 100.451 132.055 92.1677 133.619L92.0793 133.636L92.0881 133.645Z" fill="white"/>
<path d="M97.2685 173.666C90.0637 173.666 82.6732 170.883 77.7227 165.98C73.3645 161.616 72.0296 154.716 74.2043 147.94C76.821 138.858 83.628 132.135 91.5754 130.8H91.6284C100.76 129.069 111.377 133.628 116.894 141.632C116.903 141.649 116.92 141.667 116.929 141.685C120.315 146.844 120.616 154.062 117.725 160.538C115.143 166.448 110.096 171.016 104.226 172.738C101.98 173.366 99.6288 173.666 97.2508 173.666M95.5888 136.19C94.6076 136.19 93.644 136.278 92.7069 136.455L92.6273 136.472C92.6273 136.472 92.5831 136.472 92.5566 136.481C85.5198 137.647 81.25 144.264 79.7383 149.574C79.7294 149.609 79.7206 149.636 79.7118 149.671C78.5095 153.373 78.4299 158.523 81.7981 161.898C86.9608 167.005 95.5446 169.196 102.661 167.199C106.878 165.962 110.555 162.605 112.474 158.214C114.542 153.576 114.41 148.355 112.147 144.874C108.504 139.609 101.786 136.19 95.6065 136.19" fill="#231F20"/>
<path d="M214.304 134.953C204.191 136.508 199.347 146.535 198.94 153.417C198.463 161.563 205.385 170.053 213.553 171.104C221.12 172.085 230.279 169.911 233.992 162.676C237.704 155.458 236.705 143.142 229.66 138.063C225.204 134.838 220.183 134.052 214.295 134.953" fill="white"/>
<path d="M216.992 174.205C215.719 174.205 214.446 174.125 213.182 173.957C203.493 172.703 195.492 163.029 196.067 153.249C196.589 144.247 203.007 133.778 213.871 132.108C220.793 131.048 226.513 132.232 231.357 135.73C239.596 141.676 240.896 155.555 236.564 163.992C234.513 167.976 230.933 170.989 226.194 172.676C223.383 173.684 220.218 174.196 217.001 174.196M218.574 137.488C217.363 137.488 216.09 137.594 214.738 137.797C209.99 138.531 207.002 141.49 205.331 143.849C203.325 146.685 202.008 150.316 201.822 153.576C201.433 160.264 207.312 167.385 213.924 168.241C220.448 169.081 228.387 167.278 231.428 161.359C234.566 155.255 233.726 144.547 227.971 140.395C225.257 138.442 222.216 137.488 218.565 137.488" fill="#231F20"/>
<path d="M193.044 217.397C192.266 217.397 191.541 216.902 191.284 216.125C190.966 215.18 191.461 214.155 192.389 213.81C192.937 213.536 194.776 212.114 195.245 211.443C195.828 210.603 196.986 210.391 197.826 210.974C198.666 211.557 198.878 212.715 198.295 213.554C197.375 214.879 194.688 216.955 193.636 217.3C193.441 217.362 193.247 217.397 193.052 217.397M192.46 213.784C192.46 213.784 192.434 213.793 192.416 213.801C192.434 213.801 192.442 213.793 192.46 213.784Z" fill="white"/>
<path d="M137.12 89.1543C136.44 89.1543 135.777 88.7744 135.458 88.1206C135.007 87.2018 135.379 86.0887 136.298 85.6381C138.393 84.6044 139.861 84.6221 141.16 84.6309C142.186 84.6398 143.026 85.4791 143.017 86.5039C143.008 87.5199 142.195 88.3326 141.187 88.3326H141.125C140.038 88.315 139.251 88.315 137.942 88.9511C137.677 89.0836 137.403 89.1454 137.12 89.1454" fill="white"/>
<path d="M191.311 96.8315C190.851 96.8315 190.4 96.6636 190.047 96.3279C189.561 95.9569 187.474 94.9232 186.661 94.7995C185.653 94.6494 184.955 93.7041 185.105 92.6881C185.255 91.6721 186.201 90.983 187.218 91.1332C188.809 91.3717 191.859 92.8736 192.637 93.6687C193.353 94.402 193.344 95.5682 192.61 96.2838C192.248 96.6371 191.779 96.8138 191.311 96.8138M189.985 96.2749C189.985 96.2749 190.011 96.2926 190.02 96.3103C190.011 96.3014 189.994 96.2838 189.985 96.2749Z" fill="white"/>
<path d="M95.6596 160.564C91.5754 160.564 88.2603 157.242 88.2603 153.17C88.2603 149.097 91.5842 145.775 95.6596 145.775C99.7349 145.775 103.059 149.097 103.059 153.17C103.059 157.242 99.7349 160.564 95.6596 160.564Z" fill="#231F20"/>
<path d="M217.222 161.686C213.137 161.686 209.822 158.364 209.822 154.292C209.822 150.219 213.146 146.897 217.222 146.897C221.297 146.897 224.621 150.219 224.621 154.292C224.621 158.364 221.297 161.686 217.222 161.686Z" fill="#231F20"/>
<path d="M103.191 109.712C99.5404 104.261 91.4693 105.348 89.9222 111.833C88.994 116.029 92.8572 119.934 96.9944 119.881C102.343 120.049 106.507 114.554 103.244 109.783L103.191 109.712Z" fill="#231F20"/>
<path d="M217.381 104.977C213.491 101.673 207.754 103.237 206.507 108.007C205.146 112.902 209.955 117.451 214.808 116.223C220.263 114.925 221.262 108.281 217.381 104.977Z" fill="#231F20"/>
</svg>
