<svg width="310" height="310" viewBox="0 0 310 310" fill="none" xmlns="http://www.w3.org/2000/svg">
<rect width="310" height="309.818" fill="#DFF0AE"/>
<path d="M219.655 97.7029C235.821 106.908 241.592 126.203 244.259 143.564C247.491 165.395 242.949 184.225 234.674 204.304C228.885 218.117 221.03 231.299 210.198 241.681C199.384 251.917 185.102 254.225 171.448 248.359C164.958 245.586 158.923 243.57 152.178 246.361C148.81 247.638 145.542 249.554 142.193 250.959C132.917 255.074 122.012 255.721 112.955 250.895C104.499 246.434 98.0998 238.835 92.3288 231.336C89.1611 227.094 86.3939 222.578 83.9363 217.888C78.8206 208.118 74.3877 198 71.4749 187.363C65.9041 166.727 62.4998 143.208 72.4397 123.338C78.8388 110.429 91.2001 100.513 104.817 96.3619C119.017 92.1653 132.298 95.6047 145.925 100.221C152.542 102.31 159.478 102.638 166.159 100.695C173.405 98.7612 180.45 95.705 187.805 94.0811C198.364 91.5723 210.088 92.2474 219.582 97.6482L219.664 97.6938L219.655 97.7029Z" fill="#A7DA20"/>
<path d="M76.7452 99.0075C79.0664 97.2833 80.8505 94.9569 82.6255 92.5941C85.2743 89.0179 87.6865 85.2866 90.3262 81.7013C101.204 65.8457 123.842 53.7304 141.856 65.4169C144.759 67.5973 147.454 70.1973 151.268 69.9783C156.529 69.5861 162.209 69.3032 167.343 70.5075C169.436 71.0092 171.739 71.7573 173.205 73.3812C174.206 74.4851 174.142 75.7896 172.75 76.4647C170.856 77.3041 168.654 76.9483 166.624 76.8388C163.62 76.5469 160.316 76.2458 157.294 76.3461C152.378 76.5104 148.127 77.5048 145.943 82.4129C144.86 84.5112 143.995 86.7098 142.921 88.799C141.237 92.1197 139.07 95.1029 136.503 97.8033C123.25 112.081 102.788 117.573 84.0637 112.218C80.2952 111.068 68.116 108.386 71.839 102.766C72.9131 101.334 75.0704 100.294 76.6724 99.0623L76.7452 99.0075Z" fill="#23AA4A"/>
<path d="M177.155 67.3144C181.306 69.8689 182.426 75.5525 178.202 78.6086C175.936 80.3511 173.032 81.3364 171.048 83.4073C170.274 84.1827 169.591 85.0585 168.972 85.98C167.388 88.3884 166.214 91.0249 165.067 93.6797C163.374 97.7668 161.563 101.79 160.443 105.95C159.506 108.924 159.378 112.573 157.093 114.881C155.054 116.916 151.086 116.66 150.549 113.467C150.148 111.105 150.749 108.468 151.168 106.06C152.023 102.055 153.207 97.9766 154.536 94.0903C157.421 85.7063 162.336 78.2893 167.834 71.2738C170.028 68.2997 173.168 64.8604 177.083 67.278L177.155 67.3236V67.3144Z" fill="#662017"/>
<path d="M126.791 179.125C126.791 187.035 120.392 193.448 112.5 193.448C104.608 193.448 98.209 187.035 98.209 179.125C98.209 171.216 104.608 164.802 112.5 164.802C120.392 164.802 126.791 171.216 126.791 179.125Z" fill="#F287B7"/>
<path d="M220.001 178.842C220.001 186.752 213.602 193.165 205.71 193.165C197.818 193.165 191.419 186.752 191.419 178.842C191.419 170.933 197.818 164.519 205.71 164.519C213.602 164.519 220.001 170.933 220.001 178.842Z" fill="#F287B7"/>
<path d="M127.055 143.874C126.354 143.874 125.653 143.619 125.089 143.117C123.887 142.031 123.796 140.17 124.889 138.966C126.436 137.251 129.895 133.985 133.026 132.616C134.51 131.969 136.239 132.644 136.886 134.131C137.532 135.618 136.858 137.351 135.375 137.999C133.618 138.774 130.869 141.101 129.23 142.907C128.648 143.546 127.856 143.874 127.055 143.874Z" fill="#231F20"/>
<path d="M191.046 143.874C190.245 143.874 189.453 143.546 188.87 142.907C187.232 141.101 184.492 138.765 182.726 137.99C181.242 137.342 180.569 135.609 181.215 134.122C181.861 132.635 183.591 131.96 185.075 132.607C188.197 133.976 191.656 137.242 193.212 138.957C194.295 140.161 194.204 142.013 193.012 143.108C192.448 143.619 191.747 143.865 191.046 143.865" fill="#231F20"/>
<path d="M169.081 218.956C168.681 218.956 168.271 218.956 167.871 218.938L146.407 218.253C133.536 217.843 122.303 210.891 117.789 200.528L111.562 186.232C110.916 184.745 111.59 183.011 113.073 182.364C114.557 181.716 116.287 182.391 116.933 183.878L123.159 198.174C126.773 206.467 136.685 212.041 147.308 212.378L168.772 213.062C179.577 213.4 188.898 208.063 193.03 199.779L201.222 183.358C201.951 181.908 203.707 181.315 205.155 182.044C206.602 182.774 207.185 184.535 206.466 185.986L198.273 202.407C193.212 212.552 181.843 218.956 169.081 218.956Z" fill="#231F20"/>
<path d="M223.078 114.918C222.422 114.927 221.73 114.434 221.421 113.924C215.695 105.786 205.319 100.504 190.281 104.974C188.952 105.311 187.824 105.64 187.077 105.886C186.039 106.324 184.701 105.841 184.419 104.645C184.101 103.569 184.947 102.502 185.958 102.264C192.557 100.166 201.541 98.2868 208.887 100.577C218.335 103.295 223.178 109.773 224.643 111.935C225.444 113.093 224.68 114.881 223.15 114.9H223.078V114.918Z" fill="white"/>
<path d="M178.903 108.705C177.538 108.769 176.536 107.227 177.155 106.005C177.62 104.947 179.112 104.591 180.023 105.275C181.497 106.278 180.76 108.696 178.976 108.705H178.903Z" fill="white"/>
<path d="M206.666 234.583C204.8 234.51 204.181 232.166 205.701 231.053C208.313 228.799 210.161 225.798 212.264 223.362C213.839 222.185 215.959 224.028 215.022 225.752C213.738 227.632 208.805 234.501 206.729 234.583H206.657H206.666Z" fill="white"/>
<path d="M143.867 146.082C139.407 146.082 135.793 149.704 135.793 154.174V161.536C135.793 162.959 136.667 164.227 137.996 164.747C140.527 165.742 143.658 167.357 143.658 169.236C143.658 171.115 140.536 172.666 138.005 173.624C136.667 174.126 135.793 175.421 135.793 176.854V178.806C135.793 183.276 139.407 186.898 143.867 186.898C148.328 186.898 151.941 183.276 151.941 178.806V154.183C151.941 149.713 148.328 146.091 143.867 146.091" fill="#231F20"/>
<path d="M174.233 145.845C169.773 145.845 166.159 149.466 166.159 153.937V161.299C166.159 162.722 167.033 163.99 168.362 164.51C170.893 165.505 174.024 167.119 174.024 168.999C174.024 170.878 170.902 172.429 168.371 173.387C167.033 173.889 166.159 175.184 166.159 176.616V178.569C166.159 183.039 169.773 186.661 174.233 186.661C178.694 186.661 182.307 183.039 182.307 178.569V153.946C182.307 149.476 178.694 145.854 174.233 145.854" fill="#231F20"/>
</svg>
