<svg width="310" height="310" viewBox="0 0 310 310" fill="none" xmlns="http://www.w3.org/2000/svg">
<rect width="310" height="309.818" fill="#FFDAA5"/>
<path d="M211.259 86.7391C216.202 90.6907 221.188 95.1968 225.088 100.161C232.223 109.894 236.405 121.89 237.104 133.921C237.502 144.737 237.422 156.117 233.24 166.291C226.626 181.006 214.981 192.923 204.893 205.341C199.747 211.651 193.469 218.736 191.647 226.666C191.161 228.91 191.082 231.286 191.028 233.618C190.949 236.848 190.922 240.334 190.082 243.396C188.473 250.05 182.116 252.452 175.732 251.555C159.657 250.015 146.262 239.682 134.519 229.473C127.216 222.688 122.088 214.107 117.454 205.279C114.192 199.136 111.566 192.808 109.859 186.058C108.71 181.077 107.162 175.893 106.349 170.788C104.271 157.296 103.502 143.453 106.729 130.075C110.593 114.629 118.162 98.8316 130.213 88.5169C135.315 84.2924 141.841 80.4552 147.871 77.4277C151.797 75.4826 155.926 73.7137 160.197 72.7279C166.572 71.1878 173.159 71.7686 179.72 72.9304C191.223 74.8842 202.037 79.2935 211.206 86.6951L211.268 86.7479L211.259 86.7391Z" fill="#FFA400"/>
<path d="M132.981 148.821C128.896 147.29 122.866 146.709 118.533 147.615C115.536 148.179 113.325 150.616 114.713 153.406C117.101 157.886 130.903 158.863 134.847 156.416C138.392 154.181 136.854 150.176 133.069 148.856L132.981 148.821Z" fill="#F47929"/>
<path d="M208.58 148.821C212.665 147.29 218.695 146.709 223.028 147.615C226.025 148.179 228.235 150.616 226.847 153.406C224.46 157.886 210.658 158.863 206.714 156.416C203.168 154.181 204.707 150.176 208.491 148.856L208.58 148.821Z" fill="#F47929"/>
<path d="M182.496 175.171C181.93 174.238 180.807 173.657 179.949 172.98C178.066 171.616 176.625 169.732 175.307 167.831C172.337 163.255 169.1 158.652 164.343 155.783C159.781 152.817 153.158 152.491 148.95 156.249C145.934 158.969 145.139 163.334 145.563 167.206C146.173 174.097 149.789 175.576 156.014 176.791C161.744 177.917 167.597 178.533 173.451 178.243C175.741 178.111 177.995 177.609 180.241 177.248C181.267 177.063 183.168 176.597 182.514 175.224L182.487 175.18L182.496 175.171Z" fill="#ED1C29"/>
<path d="M185.21 145.442C184.821 145.442 184.432 145.362 184.052 145.195C182.611 144.561 181.965 142.88 182.602 141.446C182.761 141.085 186.616 132.654 197.289 132.654C207.961 132.654 211.294 140.944 211.427 141.296C211.975 142.766 211.224 144.394 209.747 144.94C208.27 145.486 206.635 144.737 206.086 143.268C206.016 143.092 204.026 138.322 197.289 138.322C190.551 138.322 187.907 143.532 187.801 143.752C187.333 144.808 186.298 145.433 185.21 145.433" fill="#231F20"/>
<path d="M133.741 145.442C133.352 145.442 132.963 145.362 132.583 145.195C131.142 144.561 130.496 142.88 131.133 141.446C131.292 141.085 135.147 132.654 145.819 132.654C156.492 132.654 159.825 140.944 159.958 141.296C160.506 142.766 159.754 144.394 158.278 144.94C156.801 145.486 155.165 144.737 154.617 143.268C154.546 143.092 152.557 138.322 145.819 138.322C139.082 138.322 136.438 143.532 136.332 143.752C135.863 144.808 134.829 145.433 133.741 145.433" fill="#231F20"/>
<path d="M219.376 150.458C217.82 150.238 216.378 151.303 216.157 152.852C216.157 152.905 215.264 158.071 209.72 163.272C204.875 167.822 197.916 171.088 189.216 172.936C185.829 173.349 181.223 173.024 177.606 167.374L176.996 166.423C174.14 161.935 170.895 156.856 166.722 153.6C161.399 149.446 155.678 149.112 149.701 152.606C145.952 154.797 143.671 157.798 142.902 161.521C142.371 164.091 142.681 166.661 143.317 168.931C143.485 169.521 142.884 170.04 142.318 169.794C138.808 168.236 135.784 166.317 133.282 164.047C127.251 158.573 126.367 153.046 126.341 152.834C126.137 151.285 124.705 150.194 123.149 150.397C121.592 150.599 120.496 152.025 120.699 153.574C120.735 153.873 121.76 161.037 129.073 167.875C137.959 176.192 151.779 180.408 170.206 180.408C171.267 180.408 172.345 180.364 173.442 180.364C183.327 180.381 193.248 177.847 193.849 177.688C202.222 175.47 208.969 171.906 214.009 167.013C220.737 160.482 221.745 153.934 221.79 153.662C222.011 152.113 220.932 150.669 219.376 150.441M173.3 174.705C171.541 174.749 169.834 174.758 168.154 174.722C167.403 174.705 166.704 174.362 166.244 173.772C164.724 171.844 162.319 168.034 160.453 164.707C159.746 163.448 158.216 162.823 156.872 163.36C155.245 164.012 154.608 165.904 155.431 167.374C156.271 168.879 157.385 170.788 158.578 172.672C158.959 173.27 158.463 174.036 157.765 173.939C155.89 173.684 154.087 173.367 152.363 172.989C151.637 172.83 151.01 172.364 150.647 171.721C149.489 169.688 147.809 165.992 148.507 162.63C148.941 160.526 150.285 158.845 152.61 157.49C156.518 155.202 159.79 155.378 163.229 158.053C166.633 160.711 169.596 165.358 172.213 169.459L172.823 170.419C173.459 171.413 174.158 172.302 174.883 173.085C175.44 173.684 175.042 174.643 174.22 174.67C173.919 174.678 173.619 174.687 173.309 174.696" fill="#231F20"/>
<path d="M183.416 235.546C181.682 235.607 180.86 233.31 182.257 232.281C183.292 231.445 185.051 232.061 185.246 233.398C185.467 234.472 184.583 235.537 183.486 235.546H183.416Z" fill="white"/>
<path d="M184.008 227.475C181.727 227.097 182.16 225.302 182.496 222.547C182.885 219.783 184.335 215.7 185.927 212.963C189.463 206.599 197.121 198.96 198.076 198.239C199.685 197.147 201.692 199.075 200.622 200.712C199.959 201.609 195.609 205.517 191.7 210.824C190.799 212.038 189.985 213.253 189.278 214.485C188.102 216.536 187.209 218.657 186.599 220.91C185.909 223.471 185.9 225.213 185.9 225.53C185.962 226.507 185.069 227.511 184.079 227.484H184.008V227.475Z" fill="white"/>
<path d="M218.907 109.912C217.174 109.974 216.352 107.677 217.749 106.647C218.783 105.811 220.543 106.427 220.738 107.765C220.959 108.838 220.074 109.903 218.978 109.912H218.907Z" fill="white"/>
<path d="M213.779 103.637C213.116 103.655 212.426 103.126 212.09 102.554C208.704 97.3179 199.95 90.8755 191.683 87.6104C190.498 86.5191 191.444 84.3716 193.089 84.5388C202.364 87.364 211.206 94.9416 215.079 100.433C216.131 101.622 215.574 103.567 213.85 103.646H213.779V103.637Z" fill="white"/>
<path d="M174.114 74.9282C174.105 74.4705 174.096 74.0481 174.105 73.6608C174.167 69.9116 173.769 64.1822 173.247 61.3835C173.044 60.2658 172.425 59.3681 171.452 58.7696C169.463 57.5463 166.572 57.8983 165.175 58.2944C163.15 58.8752 163.15 60.653 163.141 61.7179C163.141 62.3868 163.238 63.1525 162.77 63.4253C160.214 64.8775 155.077 64.7807 152.239 63.6894C145.006 60.8994 140.329 61.0139 137.234 61.0931C136.889 61.1019 136.562 61.1107 136.244 61.1107C120.912 61.4803 104.749 73.1504 96.6935 84.486C93.5192 89.0713 91.0523 93.9823 89.5668 98.6644C88.5323 101.718 87.6835 104.851 86.8612 107.888C86.313 109.903 85.7471 111.98 85.137 114.031C83.5101 120.174 81.9362 125.666 79.0891 130.559C78.0369 132.346 76.8079 134.044 75.3313 135.76C75.1633 135.963 74.9776 136.174 74.7919 136.385C73.7751 137.547 72.6168 138.858 72.5195 140.548C72.5195 140.583 72.5195 140.619 72.5195 140.645C72.8025 145.107 80.3889 145.574 82.7232 145.618C82.9531 145.618 83.3067 145.635 83.7488 145.662C84.6242 145.714 85.8709 145.785 87.4536 145.785C90.9197 145.785 95.9861 145.442 102.317 143.769C113.776 140.751 125.386 134.484 136.818 125.147C148.198 115.853 155.316 105.74 157.968 95.0912C160.108 86.5015 158.72 79.9271 158.119 77.1108C158.013 76.618 157.933 76.2219 157.906 76.0019C157.871 75.7203 157.836 75.4386 157.8 75.1394C157.438 72.3407 157.349 70.4485 159.525 69.6212C161.045 69.0051 163.114 68.5651 164.175 69.0755C165.113 69.5332 166.032 74.0305 166.209 77.5597C166.342 80.068 167.067 81.6961 168.375 82.4266C169.41 82.9987 170.692 82.9283 171.992 82.2154C172.009 82.2066 172.027 82.1978 172.036 82.189C174.229 80.7808 174.167 77.4101 174.123 74.9458" fill="#007540"/>
</svg>
