<svg width="310" height="310" viewBox="0 0 310 310" fill="none" xmlns="http://www.w3.org/2000/svg">
<rect width="310" height="309.818" fill="#FFC9B4"/>
<path d="M230.474 97.7437C242.661 109.428 249.028 125.681 250.743 142.23C255 178.191 232.997 212.384 203.963 231.688C196.679 236.606 188.292 239.406 180.236 242.799C172.485 245.805 164.556 248.955 156.15 248.713C145.606 248.497 144.448 240.501 134.623 238.123C107.016 231.536 81.7805 219.249 68.2107 192.012C58.6103 173.533 55.0001 147.103 59.0863 126.615C60.6489 119.013 64.1783 112.139 68.6597 105.866C78.0176 92.8616 93.6081 85.1704 109.396 83.5281C120.029 82.1191 129.818 87.4051 139.365 91.2461C145.391 93.9744 151.408 96.3078 158.045 94.3693C166.091 91.991 172.503 86.1038 180.703 83.896C199.625 78.0985 216.473 83.7435 230.42 97.6809L230.483 97.7437H230.474Z" fill="#FE936F"/>
<path d="M127.771 102.635C118.179 115.764 100.092 118.52 84.825 116.797C81.1429 116.5 75.1348 114.984 76.2035 110.182C76.7064 108.073 78.5295 106.018 79.8407 103.766C81.4482 101.109 82.463 98.0668 83.1186 95.0783C84.5017 87.5666 87.9413 81.087 94.1379 76.4113C100.353 71.1881 109.091 67.7778 117.308 69.0702C121.538 69.6535 125.283 71.9151 128.651 74.392C134.398 78.5383 138.251 76.6626 144.394 77.7216C146.855 78.1164 149.863 80.1357 146.846 82.4422C143.523 84.7576 138.763 85.1794 135.683 88.0243C131.462 91.659 131.111 98.0578 127.825 102.563L127.771 102.635Z" fill="#23AA4A"/>
<path d="M158.907 61.1008C167.744 62.4021 171.498 68.6932 170.142 77.2639C169.432 81.2486 167.798 84.9999 166.459 88.841C164.556 93.5795 160.272 103.667 154.623 104.134C146.989 104.232 148.615 93.1667 147.492 87.7551C147.124 84.7037 145.885 81.9486 143.577 80.028C141.035 77.8921 137.739 75.6215 137.56 72.0138C137.299 62.7701 151.623 60.1316 158.826 61.0918H158.907V61.1008Z" fill="#662017"/>
<path d="M132.27 193.735C132.27 198.895 123.657 203.086 113.033 203.086C102.409 203.086 93.7967 198.895 93.7967 193.735C93.7967 188.575 102.409 184.384 113.033 184.384C123.657 184.384 132.27 188.575 132.27 193.735Z" fill="#F2665E"/>
<path d="M218.386 193.161C218.386 198.321 209.773 202.512 199.149 202.512C188.525 202.512 179.913 198.321 179.913 193.161C179.913 188 188.525 183.809 199.149 183.809C209.773 183.809 218.386 188 218.386 193.161Z" fill="#F2665E"/>
<path d="M150.492 212.402C146.81 212.402 143.496 211.316 141.906 207.995C140.847 205.788 140.82 203.535 141.825 201.48C142.212 200.699 142.732 199.99 143.334 199.344C143.909 198.743 143.783 197.773 143.074 197.325C142.409 196.903 141.798 196.418 141.269 195.844C139.76 194.211 139.095 192.129 139.365 189.831C139.625 187.587 140.649 185.712 142.319 184.393C144.816 182.436 148.687 181.763 153.824 182.4C159.544 183.118 165.723 185.855 165.983 185.972C167.438 186.627 168.094 188.332 167.447 189.786C166.792 191.24 165.085 191.895 163.631 191.249C163.577 191.222 157.973 188.745 153.114 188.135C149.719 187.713 147.088 188 145.903 188.934C145.597 189.176 145.229 189.571 145.121 190.486C145.032 191.258 145.265 191.626 145.534 191.922C147.034 193.546 151.749 194.166 154.452 194.076C155.952 194.022 157.236 195.126 157.425 196.607C157.604 198.097 156.626 199.47 155.162 199.784C152.432 200.376 147.959 202.126 147.034 204.02C146.882 204.343 146.783 204.738 147.142 205.483C148.058 207.394 155.036 206.892 163.02 203.356C164.457 202.718 166.208 203.266 166.9 204.675C167.618 206.156 166.971 207.915 165.481 208.579C163.496 209.467 156.518 212.375 150.51 212.375" fill="#231F20"/>
<path d="M212.081 97.268H212.001C210.977 97.268 210.142 96.4334 210.142 95.4103C210.142 94.3872 210.977 93.5526 212.001 93.5526H212.081C213.105 93.5526 213.94 94.3872 213.94 95.4103C213.94 96.4334 213.105 97.268 212.081 97.268Z" fill="white"/>
<path d="M241.583 153.816C240.586 153.816 239.76 153.027 239.724 152.012C239.571 147.202 239.212 135.921 235.647 126.085C229.513 109.168 217.802 101.325 217.685 101.244C216.823 100.678 216.59 99.5296 217.146 98.677C217.712 97.8155 218.862 97.5821 219.715 98.1386C220.236 98.4796 232.557 106.673 239.131 124.82C242.903 135.212 243.271 146.906 243.433 151.896C243.469 152.919 242.661 153.78 241.637 153.807C241.619 153.807 241.592 153.807 241.574 153.807" fill="white"/>
<path d="M188.651 231.562C187.798 231.562 187.034 230.979 186.837 230.109C186.612 229.103 187.241 228.116 188.247 227.892C188.274 227.892 191.992 226.994 198.619 223.162C205.175 219.366 207.753 216.198 207.78 216.162C208.417 215.364 209.585 215.229 210.393 215.857C211.192 216.494 211.336 217.652 210.707 218.46C210.591 218.612 207.744 222.175 200.496 226.375C193.303 230.539 189.243 231.482 189.073 231.518C188.938 231.545 188.794 231.562 188.66 231.562" fill="white"/>
<path d="M218.799 164.936C217.003 154.597 206.549 149.643 196.679 150.442C191.731 150.702 187.726 152.623 184.151 155.979C177.865 161.122 175.979 170.419 178.503 177.958C180.532 184.249 186.504 188.494 192.89 189.544C203.325 191.662 215.656 186.358 218.745 175.795C220.263 170.608 218.799 164.936 218.799 164.936Z" fill="#231F20"/>
<path d="M134.497 164.101C132.701 153.763 122.248 148.809 112.378 149.607C107.429 149.868 103.424 151.788 99.8497 155.145C93.5632 160.287 91.6772 169.585 94.2008 177.123C96.2304 183.414 102.203 187.659 108.588 188.709C119.023 190.827 131.354 185.523 134.443 174.96C135.961 169.773 134.497 164.101 134.497 164.101Z" fill="#231F20"/>
<path d="M118.574 137.94C118.152 135.508 115.692 134.342 113.366 134.53C112.198 134.593 111.255 135.042 110.411 135.831C108.929 137.043 108.489 139.233 109.082 141.01C109.558 142.491 110.968 143.496 112.468 143.738C114.928 144.241 117.829 142.984 118.556 140.498C118.916 139.278 118.574 137.94 118.574 137.94Z" fill="#231F20"/>
<path d="M197.272 140.399C198 142.885 200.9 144.133 203.361 143.639C204.861 143.397 206.271 142.392 206.747 140.911C207.34 139.134 206.9 136.944 205.418 135.733C204.574 134.943 203.631 134.485 202.463 134.431C200.137 134.243 197.676 135.41 197.254 137.842C197.254 137.842 196.913 139.179 197.272 140.399Z" fill="#231F20"/>
<path d="M202.804 169.082C200.604 169.755 198.79 171.756 196.509 171.263C194.488 170.85 192.791 169.19 190.68 169.163C187.286 169.217 184.448 172.205 185.274 175.373C186.037 178.721 189.315 181.045 192.405 182.786C195.35 184.59 198.7 184.904 201.825 183.244C204.996 181.61 208.265 179.492 209.639 176.333C210.339 174.664 210.501 172.753 209.63 171.326C208.318 169.208 205.346 168.283 202.894 169.055L202.804 169.082Z" fill="white"/>
<path d="M205.014 158.824C204.367 156.536 201.538 155.414 199.446 156.482C197.173 157.469 196.347 160.682 197.973 162.566C200.685 165.869 206.19 163.015 205.032 158.896L205.005 158.815L205.014 158.824Z" fill="white"/>
<path d="M209.342 164.702C208.866 162.261 205.292 162.979 205.795 165.42C206.37 167.664 209.63 167.108 209.36 164.783V164.702H209.342Z" fill="white"/>
<path d="M119.598 168.185C117.398 168.858 115.584 170.859 113.303 170.365C111.282 169.953 109.585 168.292 107.474 168.265C104.08 168.319 101.242 171.308 102.068 174.476C102.831 177.823 106.109 180.148 109.199 181.889C112.144 183.692 115.494 184.007 118.619 182.346C121.789 180.713 125.058 178.595 126.433 175.436C127.133 173.767 127.295 171.855 126.424 170.428C125.112 168.31 122.14 167.386 119.688 168.158L119.598 168.185Z" fill="white"/>
<path d="M123.846 158.645C123.199 156.356 120.371 155.234 118.278 156.302C116.006 157.29 115.18 160.502 116.805 162.387C119.517 165.69 125.023 162.836 123.864 158.716L123.837 158.636L123.846 158.645Z" fill="white"/>
<path d="M128.184 164.523C127.708 162.082 124.133 162.8 124.636 165.241C125.211 167.485 128.471 166.928 128.202 164.604V164.523H128.184Z" fill="white"/>
</svg>
