<svg width="310" height="310" viewBox="0 0 310 310" fill="none" xmlns="http://www.w3.org/2000/svg">
<rect width="310" height="309.818" fill="#F6ACA4"/>
<path d="M144.32 58.8318C150.289 61.0752 148.581 72.5736 149.162 77.8687C149.308 93.1999 159.656 92.655 170.732 91.8375C174.938 91.5287 179.172 91.8012 183.27 92.7912C191.093 94.6713 198.579 98.2134 205.593 101.928C210.218 104.707 214.515 108.295 218.168 112.228C222.956 116.215 226.636 121.328 229.361 126.914C231.351 131.719 234.449 135.779 236.448 140.565C239.71 147.64 240.673 154.507 239.81 161.9C239.501 164.552 239.501 167.231 239.828 169.874C240.119 172.199 240.491 174.524 240.618 176.977C241 181.927 240.309 186.822 239.592 191.708C237.747 200.3 235.658 209.301 229.016 215.568C224.855 218.919 222.293 223.479 219.394 227.82C214.979 233.46 208.201 236.067 201.868 238.883C186.786 247.765 183.615 253.896 164.417 251.417C148.317 250.799 142.285 253.651 126.276 246.276C115.364 242.043 106.751 233.797 100.418 224.151C96.5476 219.183 92.5772 214.26 89.3608 208.838C86.1809 202.88 84.4909 196.286 83.0372 189.719C82.2922 186.332 81.947 182.862 82.0378 179.393C82.1378 175.651 82.4467 171.881 82.2831 168.285C82.2377 158.539 81.9197 153.099 86.4898 143.508C89.6152 136.959 92.9133 131.083 99.7094 123.372C104.561 117.868 107.487 112.609 99.6094 107.923C95.2665 104.435 86.9441 102.083 85.6448 96.3424C86.7078 88.0138 97.9377 93.7449 103.135 93.654C106.56 93.7449 105.288 90.9202 104.243 88.8585C101.89 84.2173 98.0104 79.8487 96.9201 74.6444C96.0024 68.9225 101.99 68.6591 105.506 71.4656C108.132 73.2911 110.776 75.2802 113.238 77.3147C114.737 78.8587 117.926 80.1484 118.262 77.0331C118.48 71.9469 116.209 65.9434 118.126 61.1479C121.133 56.4613 125.712 60.394 127.366 64.2268C129.138 66.1614 131.418 75.8161 134.698 71.4928C137.469 67.4602 137.651 57.8963 144.256 58.8046L144.32 58.8228V58.8318Z" fill="#CE102C"/>
<path d="M121.933 163.644C121.933 168.403 118.144 172.263 113.465 172.263C108.786 172.263 104.997 168.403 104.997 163.644C104.997 158.884 108.786 155.033 113.465 155.033C118.144 155.033 121.933 158.893 121.933 163.644Z" fill="#F2665B"/>
<path d="M210.445 163.644C210.445 168.403 206.656 172.263 201.977 172.263C197.298 172.263 193.509 168.403 193.509 163.644C193.509 158.884 197.298 155.033 201.977 155.033C206.656 155.033 210.445 158.893 210.445 163.644Z" fill="#F2665B"/>
<path d="M157.185 181.672C149.253 181.672 146.101 175.133 145.546 171.645C145.292 170.047 146.382 168.548 147.972 168.294C149.571 168.039 151.07 169.129 151.325 170.719C151.479 171.563 152.479 175.896 157.33 175.823C162.173 175.741 163.036 171.373 163.163 170.501C163.363 168.902 164.826 167.776 166.434 167.976C168.033 168.176 169.169 169.656 168.969 171.255C168.524 174.797 165.535 181.536 157.43 181.663C157.349 181.663 157.267 181.663 157.185 181.663" fill="#231F20"/>
<path d="M203.058 135.016C202.186 135.016 201.332 134.634 200.751 133.898C199.27 132.018 196.671 129.793 192.674 129.92C191.056 129.966 189.712 128.703 189.657 127.087C189.603 125.47 190.875 124.126 192.492 124.071C197.516 123.917 202.086 126.115 205.357 130.284C206.356 131.555 206.129 133.39 204.866 134.389C204.33 134.807 203.694 135.016 203.058 135.016Z" fill="#231F20"/>
<path d="M112.238 135.66C111.602 135.66 110.966 135.461 110.439 135.034C109.168 134.035 108.949 132.2 109.94 130.928C113.211 126.769 117.781 124.562 122.805 124.716C124.422 124.771 125.685 126.115 125.64 127.731C125.585 129.348 124.241 130.611 122.623 130.565C118.617 130.438 116.027 132.654 114.546 134.543C113.965 135.279 113.111 135.66 112.238 135.66Z" fill="#231F20"/>
<path d="M198.943 111.165C197.816 111.192 196.835 109.993 197.098 108.885C197.353 107.596 198.97 106.996 200.033 107.705C201.596 108.604 200.805 111.229 199.015 111.165H198.943Z" fill="white"/>
<path d="M230.043 175.051C227.544 175.024 227.49 171.373 229.997 171.291C232.505 171.273 232.614 174.924 230.106 175.051H230.043Z" fill="white"/>
<path d="M191.465 107.559C190.638 107.659 189.966 107.214 189.23 106.951C187.931 106.424 186.432 105.852 185.087 105.389C182.743 104.58 180.29 103.863 177.837 103.572C174.811 103.227 171.013 103.4 168.024 103.699C165.653 104.172 164.281 101.256 166.634 100.121C167.361 99.8119 168.16 99.8483 168.933 99.7665C172.512 99.4668 176.528 99.376 180.163 100.039C184.033 100.829 188.612 102.4 192.156 104.063C193.628 104.934 193.391 107.278 191.556 107.55H191.483L191.465 107.559Z" fill="white"/>
<path d="M224.001 206.15C222.456 206.104 221.911 203.988 222.765 202.889C223.556 201.545 225.963 196.322 226.717 193.38C227.753 190.11 228.244 183.525 228.18 181.718C228.162 181.345 228.18 180.891 228.371 180.482C229.498 178.139 232.296 179.502 232.014 181.827C232.078 188.402 230.597 195.904 227.481 202.053C226.608 203.507 226.118 206.05 224.073 206.15H223.992H224.001Z" fill="white"/>
<path d="M118.953 89.5397C117.217 89.4761 114.692 88.913 113.792 87.2236C113.092 85.7432 114.31 84.0266 116.045 84.617C116.845 84.9076 117.472 85.4344 118.344 85.498C119.471 85.725 120.697 85.1256 121.787 85.5615C122.841 85.9703 123.232 87.4325 122.56 88.3317C121.769 89.4125 120.243 89.467 119.016 89.5397H118.953Z" fill="white"/>
<path d="M202.995 148.33C201.223 141.782 196.399 136.042 189.948 134.289C184.16 132.727 177.428 133.308 172.34 136.759C165.28 141.673 162.991 151.328 165.68 159.584C167.552 165.242 173.503 169.965 179.163 170.819C187.095 171.972 195.045 169.484 200.315 163.362C203.758 159.275 204.512 153.644 203.013 148.403L202.995 148.33Z" fill="#231F20"/>
<path d="M112.556 148.412C111.057 153.644 111.811 159.284 115.255 163.371C120.525 169.493 128.474 171.981 136.406 170.828C142.076 169.974 148.018 165.26 149.889 159.593C152.579 151.328 150.289 141.682 143.23 136.769C138.142 133.317 131.409 132.727 125.622 134.298C119.171 136.06 114.346 141.791 112.575 148.34L112.556 148.412Z" fill="#231F20"/>
<path d="M133.844 142.654C133.572 140.365 130.928 139.23 128.847 139.439C124.268 139.784 120.188 143.689 120.225 148.367C120.17 150.892 122.387 153.299 125.004 152.082C126.884 150.983 128.129 148.321 129.955 146.995C131.445 145.678 133.926 144.752 133.853 142.727V142.654H133.844Z" fill="white"/>
<path d="M136.652 149.638C135.016 146.341 129.737 149.339 131.7 152.563C133.617 155.66 137.805 152.735 136.679 149.711L136.652 149.638Z" fill="white"/>
<path d="M180.235 138.767C176.883 139.339 174.075 141.855 172.967 145.043C171.35 148.748 173.803 154.352 177.719 151.3C179.136 150.192 179.79 148.412 181.117 147.232C182.398 146.06 184.315 145.451 185.478 144.116C188.194 140.747 183.606 137.958 180.308 138.748L180.235 138.767Z" fill="white"/>
<path d="M189.357 150.247C187.985 146.596 182.716 149.039 184.678 152.508C186.159 154.988 190.32 153.099 189.385 150.329L189.357 150.247Z" fill="white"/>
<path d="M80.3752 230.218C83.7914 231.008 84.8635 233.76 85.0724 236.612C85.1542 238.22 84.9725 239.964 84.9634 241.58C84.9907 243.46 84.3092 245.349 82.1741 246.003C80.7113 246.448 79.085 246.267 77.6676 245.785C75.051 244.941 72.2708 243.578 70.6445 241.462C69.5633 240.209 69.009 238.683 69.2453 237.112C69.5996 235.232 70.7171 233.324 72.2072 231.916C73.8971 230.336 78.0129 229.773 80.3388 230.2H80.3842L80.3752 230.218Z" fill="#CE102C"/>
<path d="M83.7005 213.951C85.8447 214.278 87.7163 215.831 89.0883 217.321C91.1689 219.428 91.6595 222.053 91.1689 224.714C90.9417 225.922 90.3694 227.085 89.5244 228.056C88.0434 229.8 85.5994 229.373 83.5279 228.538C81.9379 227.92 80.1662 227.893 78.5308 227.393C76.2412 226.703 74.4877 224.85 74.6512 222.707C74.8329 220.291 75.9686 217.493 77.9675 215.768C79.4303 214.533 81.6381 213.633 83.6551 213.951H83.7005Z" fill="#CE102C"/>
<path d="M97.7923 230.899C100.109 231.217 102.281 232.625 102.88 234.678C103.68 237.339 103.743 240.581 102.399 243.179C101 245.949 97.6379 247.947 94.4851 245.894C93.3767 245.195 92.4136 244.223 91.4051 243.379C90.5056 242.597 89.6788 241.735 89.3245 240.654C88.5068 238.174 88.7339 234.923 90.8055 233.052C92.5408 231.508 95.2665 230.509 97.7378 230.89H97.7923V230.899Z" fill="#CE102C"/>
<path d="M99.037 233.597C98.0104 233.215 96.6929 233.224 95.7662 233.778C94.7486 234.332 95.0121 235.613 96.0751 236.43C97.1381 237.311 98.7826 236.73 99.7003 235.913C100.373 235.177 100.091 234.014 99.0915 233.615L99.0461 233.597H99.037Z" fill="white"/>
<path d="M81.847 235.186C81.7562 234.478 81.2837 233.424 80.4933 233.224C79.2758 232.906 77.7767 233.742 77.8675 235.113C77.8403 236.866 79.7573 237.938 81.1384 236.776C81.6017 236.403 81.9106 235.822 81.8652 235.241V235.195L81.847 235.186Z" fill="white"/>
<path d="M84.9997 217.221C84.3728 216.576 83.4552 216.622 82.6011 216.858C81.6744 216.994 81.0384 217.839 81.5381 218.629C81.9379 219.21 82.6829 219.528 83.2735 219.955C83.7732 220.218 84.4546 220.146 84.9816 219.837C85.9356 219.255 85.7448 217.911 85.0361 217.248L84.9997 217.212V217.221Z" fill="white"/>
</svg>
