<svg width="310" height="310" viewBox="0 0 310 310" fill="none" xmlns="http://www.w3.org/2000/svg">
<rect width="310" height="309.818" fill="#F99EC7"/>
<path d="M153.344 109.178C157.944 113.279 160.197 110.142 164.046 107.42C172.049 102.043 183.454 104.311 191.979 108.535C194.431 109.65 196.408 111.503 198.803 112.429C200.125 112.863 201.446 112.656 202.976 112.032C211.33 107.76 217.28 108.063 225.919 111.484C230.443 112.949 234.445 115.84 236.897 119.932C242.628 129.259 242.704 141.421 238.769 151.429C237.115 155.218 235.633 158.148 237.961 161.994C239.415 164.63 241.43 167.267 242.162 170.158C243.55 176.027 242.828 182.519 240.385 188.009C237.077 194.615 232.439 200.767 226.09 204.717C224.589 205.794 223.515 207.221 222.925 208.95C221.823 212.721 220.739 216.52 218.877 220.026C216.51 224.779 214.01 229.476 210.123 233.076C208.612 234.522 206.587 235.987 204.611 237.007C196.37 241.373 190.478 237.395 186.486 244C181.258 253.781 170.376 259.819 159.341 259.923C149.257 259.999 142.386 253.923 137.443 245.701C135.21 242.035 131.864 242.158 127.977 241.987C126 241.874 124.042 241.723 122.094 241.458C107.467 240.107 100.462 227.576 97.4301 214.441C96.7078 210.963 97.7057 206.768 94.1416 204.585C87.0134 200.587 81.4533 194.001 79.0107 186.082C77.2619 180.024 77.566 173.504 78.526 167.323C78.9157 164.772 80.2558 162.022 79.4669 159.471C79.0962 158.233 78.3359 157.127 77.566 156.059C76.0358 153.942 74.6007 151.703 73.8023 149.274C70.818 139.352 73.7548 124.355 81.4533 117.182C85.9489 113.062 91.4519 109.632 97.5157 108.602C101.574 108.157 105.689 108.299 109.748 108.781C111.582 109.017 113.616 109.405 115.365 108.668C118.055 107.477 119.813 104.255 122.341 102.554C124.27 101.089 126.703 100.484 129.07 100.078C138.812 97.9609 145.037 101.344 153.249 109.121L153.335 109.197L153.344 109.178Z" fill="#E41B93"/>
<path d="M170.832 82.5292C188.168 74.3455 205.01 81.2534 215.075 88.6338C219.922 92.0641 224.313 96.3639 229.094 99.9548C230.985 101.382 232.915 102.686 234.863 103.725C236.944 104.85 239.064 105.606 241.43 106.041C243.797 106.532 247.276 106.664 247.931 109.452C248.492 112.183 245.888 114.687 243.702 116.114C229.227 126.112 209.249 124.553 193.519 117.948C190.744 116.728 189.717 116.936 190.174 120.14C190.43 122.105 190.677 124.128 190.649 126.084C190.696 131.735 189.375 136.639 186.809 141.686C185.155 144.757 183.397 148.783 179.681 149.624C176.193 150.332 174.339 146.902 172.838 144.36C171.916 142.905 170.832 141.553 169.559 140.401C164.578 135.902 157.355 134.372 152.213 130.006C150.826 128.872 149.466 127.275 148.183 126.131C147.119 125.224 146.064 124.666 145.009 125.659C144.191 126.452 143.545 127.52 142.728 128.409C139.839 132.132 119.68 145.144 117.988 136.507C117.807 134.334 118.758 132.236 118.995 130.091C119.452 126.67 118.644 123.419 118.796 119.989C118.672 117.664 119.908 113.119 115.907 114.668C102.715 120.716 87.9448 120.31 74.23 115.916C71.4738 114.933 68.2708 113.449 66.1228 111.503C62.5017 108.186 63.8703 104.888 68.4704 103.801C71.7874 102.941 75.0094 102.204 78.0318 100.503C80.2273 99.3406 82.4323 97.9042 84.4852 96.4395C98.1239 86.2241 111.421 74.5629 129.374 74.4211C137.491 74.3361 148.468 77.6624 154.903 82.8126C157.146 84.5325 158.362 83.3891 159.218 80.762C160.159 77.9554 160.777 75.007 161.176 72.0492C161.803 68.6188 160.539 66.6438 158.096 64.3569C156.091 62.3441 155.331 59.235 156.338 56.5796C158.847 50.7396 163.723 52.4122 168.342 55.0771C175.67 59.3106 170.908 71.7468 169.007 76.6607C168.741 77.5396 167.905 79.4863 167.382 81.14C166.451 84.0789 168.76 83.5025 170.832 82.5292Z" fill="#23AA4A"/>
<path d="M189.964 189.777C189.964 194.379 195.068 198.102 201.37 198.102C207.671 198.102 212.775 194.379 212.775 189.777C212.775 185.174 207.671 181.451 201.37 181.451C195.068 181.451 189.964 185.174 189.964 189.777Z" fill="#F067A6"/>
<path d="M106.108 189.777C106.108 194.379 111.211 198.102 117.513 198.102C123.814 198.102 128.918 194.379 128.918 189.777C128.918 185.174 123.814 181.451 117.513 181.451C111.211 181.451 106.108 185.174 106.108 189.777Z" fill="#F067A6"/>
<path d="M210.94 139.985C207.766 140.023 203.926 138.605 201.474 136.45C200.001 135.137 198.775 133.332 199.412 131.376C200.4 128.711 203.385 128.843 204.991 130.884C206.416 132.548 208.707 133.587 210.912 133.502C212.148 133.474 213.383 132.907 214.628 133.115C216.196 133.323 217.289 134.92 217.014 136.441C216.605 138.993 213.364 139.909 211.026 139.975H210.94V139.985Z" fill="#231F20"/>
<path d="M109.938 139.975C107.828 139.919 105.072 139.163 104.216 137.159C103.703 135.997 104.026 134.523 105.034 133.719C106.497 132.472 108.427 133.427 110.109 133.502C111.668 133.559 113.445 133.011 114.709 132.094C115.926 131.225 116.752 129.713 118.302 129.391C120.031 128.985 121.714 130.478 121.78 132.207C121.904 134.107 120.497 135.609 119.129 136.781C116.534 138.907 113.255 139.928 110.023 139.966H109.938V139.975Z" fill="#231F20"/>
<path d="M167.601 197.478C167.506 197.478 167.411 197.478 167.325 197.478C164.483 197.422 162.307 196.562 160.663 195.276C159.684 194.52 158.353 194.52 157.374 195.276C155.73 196.562 153.553 197.422 150.711 197.478C146.244 197.563 142.68 195.569 140.694 191.855C138.508 187.783 138.688 182.075 141.084 178.465C141.996 177.095 143.811 176.537 145.246 177.359C146.824 178.266 147.261 180.298 146.235 181.744C145.151 183.275 144.828 186.63 146.092 188.983C146.976 190.636 148.449 191.421 150.588 191.383C152.764 191.345 154.143 190.447 155.036 188.501C155.787 186.875 155.844 185.203 155.844 185.184C155.872 183.521 157.231 182.188 158.904 182.188H159.123C160.796 182.188 162.155 183.521 162.183 185.184C162.212 186.186 162.592 191.288 167.439 191.383C169.578 191.43 171.051 190.636 171.935 188.983C173.18 186.658 172.885 183.369 171.84 181.81C170.965 180.497 171.108 178.701 172.315 177.69C173.712 176.518 175.784 176.802 176.81 178.257C179.339 181.848 179.567 187.698 177.343 191.855C175.394 195.494 171.944 197.478 167.601 197.478Z" fill="#231F20"/>
<path d="M230.557 142.943C229.579 142.943 228.666 142.083 228.647 141.1C228.609 140.164 229.407 139.163 229.598 138.17C230.168 136.12 229.997 134.06 229.094 132.482C228.809 132.018 228.562 131.461 228.657 130.903C228.913 128.909 231.622 128.616 232.468 130.421C234.388 133.644 234.378 137.981 232.392 141.809C232.069 142.47 231.327 142.943 230.633 142.943H230.557Z" fill="white"/>
<path d="M227.583 191.383C226.014 191.402 225.054 189.38 226.119 188.198C229.122 186.186 231.28 182.321 230.7 176.925C229.94 174.127 233.751 172.937 234.511 175.762C235.443 180.979 233.513 188.208 228.875 190.967C228.524 191.194 228.067 191.374 227.659 191.374H227.583V191.383Z" fill="white"/>
<path d="M201.084 230.081C199.108 230.052 198.433 227.321 200.201 226.414C201.74 225.875 204.021 224.307 204.867 222.228C206.302 219.979 209.534 221.991 208.222 224.307C206.607 227.51 203.603 229.627 201.161 230.081H201.084Z" fill="white"/>
<path d="M230.757 169.847C229.341 169.913 228.286 168.316 228.932 167.049C229.417 165.953 230.966 165.594 231.926 166.293C233.466 167.333 232.696 169.837 230.833 169.847H230.757Z" fill="white"/>
<path d="M222.004 164.668C221.614 159.641 219.029 155.029 214.913 152.128C209.886 148.272 203.442 146.118 197.178 147.668C177.466 151.797 175.584 179.382 193.842 187.027C202.158 190.58 212.661 187.527 218.135 180.478C221.566 176.084 222.555 170.206 222.023 164.753V164.659L222.004 164.668Z" fill="#231F20"/>
<path d="M95.7003 164.763C95.1586 170.215 96.1565 176.093 99.5876 180.487C105.062 187.527 115.564 190.58 123.881 187.036C142.139 179.382 140.257 151.797 120.545 147.677C114.281 146.127 107.837 148.282 102.81 152.137C98.6942 155.048 96.0995 159.66 95.7193 164.677V164.772L95.7003 164.763Z" fill="#231F20"/>
<path d="M198.727 168.817C195.61 167.295 191.352 167.654 189.195 170.499C183.92 178.484 195.448 184.721 201.113 178.37C203.451 175.384 202.254 170.461 198.803 168.854L198.727 168.817Z" fill="white"/>
<path d="M199.117 160.85C196.855 158.573 193.158 161.814 195.182 164.271C197.729 167.068 201.626 163.638 199.184 160.907L199.127 160.841L199.117 160.85Z" fill="white"/>
<path d="M208.032 163.534C208.032 163.534 208.032 163.534 208.032 163.524C208.023 163.515 208.004 163.496 207.975 163.468C207.994 163.496 208.013 163.524 208.032 163.534Z" fill="white"/>
<path d="M210.579 164.252C211.435 158.781 203.66 157.628 203.023 162.948C202.406 167.938 209.505 169.176 210.57 164.337L210.589 164.252H210.579Z" fill="white"/>
<path d="M116.61 170.971C113.492 169.45 109.235 169.809 107.077 172.653C101.802 180.638 113.331 186.875 118.995 180.525C121.334 177.539 120.136 172.615 116.686 171.009L116.61 170.971Z" fill="white"/>
<path d="M117 163.014C114.738 160.737 111.04 163.978 113.065 166.435C115.612 169.232 119.509 165.802 117.066 163.071L117.009 163.005L117 163.014Z" fill="white"/>
<path d="M125.915 165.698C125.915 165.698 125.915 165.698 125.915 165.688C125.905 165.679 125.886 165.66 125.858 165.632C125.877 165.66 125.896 165.688 125.915 165.698Z" fill="white"/>
<path d="M128.462 166.416C129.317 160.945 121.533 159.792 120.906 165.112C120.288 170.102 127.388 171.34 128.452 166.501L128.471 166.416H128.462Z" fill="white"/>
</svg>
