<svg width="310" height="310" viewBox="0 0 310 310" fill="none" xmlns="http://www.w3.org/2000/svg">
<rect width="310" height="309.818" fill="#FFAEB6"/>
<path d="M200.824 83.1126C214.574 83.9577 227.343 92.4658 234.361 104.259C236.985 108.608 238.754 113.404 240.18 118.275C241.987 124.514 243.185 130.933 243.727 137.409C244.839 150.152 242.443 162.857 238.592 174.992C233.001 192.882 223.008 209.11 211.712 223.961C200.748 237.369 187.398 250.169 171.595 257.775C161.316 262.675 151.865 260.102 142.376 254.366C127.362 245.279 114.763 235.166 103.495 221.777C92.7982 209.357 82.7857 196.13 75.9206 181.155C72.2788 173.482 68.9984 165.563 67.3154 157.216C64.2442 141.397 66.4501 123.934 74.9983 110.099C83.8507 96.1311 99.8725 86.721 116.646 88.0029C129.083 88.3732 140.074 96.2925 152.55 95.8937C161.25 95.7038 168.724 90.918 176.549 87.5566C184.127 84.2711 192.466 82.5619 200.729 83.1221H200.815L200.824 83.1126Z" fill="#FB5374"/>
<path d="M205.455 172.656C205.455 178.031 201.09 182.389 195.709 182.389C190.327 182.389 185.962 178.031 185.962 172.656C185.962 167.282 190.327 162.923 195.709 162.923C201.09 162.923 205.455 167.282 205.455 172.656Z" fill="#FF9EA8"/>
<path d="M133.77 172.656C133.77 178.031 129.406 182.389 124.024 182.389C118.642 182.389 114.278 178.031 114.278 172.656C114.278 167.282 118.642 162.923 124.024 162.923C129.406 162.923 133.77 167.282 133.77 172.656Z" fill="#FF9EA8"/>
<path d="M96.5255 115.436H96.5445C97.638 116.1 98.8361 116.195 100.11 115.721C102.516 114.828 104.484 112.217 105.178 110.109C105.901 108.143 105.549 106.358 104.199 105.076C102.449 103.405 99.4161 102.93 96.9914 103.946C94.7474 104.782 94.1294 106.937 93.9582 108.143C93.5589 110.925 94.6619 114.068 96.5255 115.445" fill="#FAA61A"/>
<path d="M85.2484 130.562C84.4878 129.945 83.5464 129.632 82.4815 129.632C82.1772 129.632 81.8539 129.66 81.5306 129.708C81.5116 129.708 81.5021 129.708 81.4831 129.708C78.7351 129.955 76.7098 131.028 75.778 132.718C74.8461 134.408 75.0363 136.687 76.3009 139.127C77.7462 141.919 79.686 143.182 81.7493 142.688C84.5733 142.014 86.979 138.273 86.998 134.522V134.465C86.9219 132.803 86.3039 131.417 85.2389 130.553" fill="#FAA61A"/>
<path d="M107.679 138.719C108.459 137.19 108.639 135.576 108.173 134.18L108.154 134.114C108.154 134.114 108.154 134.104 108.154 134.095C107.584 132.338 105.473 131.55 103.353 131.55C102.953 131.55 102.554 131.578 102.174 131.635C100.177 131.92 97.8092 133.05 97.7331 135.291C97.619 137.152 98.779 140.257 100.624 141.777C101.527 142.527 102.459 142.783 103.391 142.536C105.112 141.986 106.776 140.523 107.689 138.719" fill="#FAA61A"/>
<path d="M130.005 221.122H129.948C127.086 221.274 124.965 222.432 124.271 224.218C123.587 225.974 124.338 228.149 126.335 230.171C127.59 231.491 128.873 232.213 129.91 232.203C130.823 232.194 131.545 231.757 132.135 230.884C133.476 228.87 133.599 224.901 132.8 222.945C132.316 221.844 131.27 221.16 130.005 221.113" fill="#FAA61A"/>
<path d="M92.3798 164.063H92.4179C95.4416 162.638 95.8504 157.986 94.8045 155.26C94.1294 153.532 92.4083 152.811 90.8204 152.811C90.6303 152.811 90.4496 152.82 90.2594 152.839C88.3577 152.953 85.9521 153.684 85.3245 155.346C84.6209 157.283 85.6478 160.417 87.6826 162.468C89.1945 163.996 90.906 164.576 92.3798 164.063Z" fill="#FAA61A"/>
<path d="M234.684 157.748V157.691C234.684 157.691 234.675 157.682 234.675 157.672C234.57 156.704 234.123 155.944 233.353 155.422C232.469 154.814 231.261 154.567 230.072 154.567C229.274 154.567 228.484 154.672 227.8 154.862C226.659 155.137 225.813 155.764 225.29 156.742C224.538 158.119 224.491 160.132 225.157 162.002C225.157 162.021 225.166 162.031 225.176 162.05C225.641 163.749 226.859 165.278 228.209 165.848C229.122 166.237 230.034 166.18 230.938 165.696C233.667 164.129 234.912 160.436 234.684 157.758" fill="#FAA61A"/>
<path d="M184.451 208.047L184.479 207.999C186.067 205.502 186.638 203.166 186.029 201.58C185.601 200.45 184.565 199.652 182.948 199.197C182.273 198.997 181.598 198.893 180.951 198.893C179.763 198.893 178.66 199.225 177.814 199.871C176.739 200.687 176.178 201.922 176.216 203.441C176.14 206.556 177.719 209.537 179.81 210.259C181.37 210.8 182.977 210.031 184.46 208.047" fill="#FAA61A"/>
<path d="M148.528 199.035C147.7 198.361 146.531 198.105 145.333 198.105C144.467 198.105 143.593 198.238 142.822 198.437C141.548 198.75 140.645 199.453 140.198 200.479C139.637 201.76 139.827 203.451 140.702 205.008C142.176 207.866 144.467 209.357 146.559 208.844C148.623 208.331 149.878 206.053 149.84 202.9V202.815C149.811 201.01 149.374 199.738 148.528 199.045" fill="#FAA61A"/>
<path d="M102.906 190.195L102.849 190.157C102.107 189.711 101.099 189.483 100.044 189.483C99.2069 189.483 98.3321 189.625 97.5049 189.91C96.0406 190.423 95.0137 191.296 94.6048 192.388C94.234 193.585 94.5858 195.18 95.5461 196.604C96.5636 198.124 98.0564 199.14 99.4351 199.263C101.498 199.444 103.191 197.374 103.895 195.37C104.484 193.67 104.589 191.296 102.925 190.195" fill="#FAA61A"/>
<path d="M156.458 226.145C157.18 226.762 159.053 228.092 161.003 226.943L161.06 226.905C162.695 225.822 163.979 223.354 163.969 221.264C163.969 220.334 163.713 219.062 162.476 218.264C161.754 217.837 160.774 217.618 159.729 217.618C158.996 217.618 158.236 217.723 157.494 217.951C156.011 218.397 154.879 219.232 154.385 220.258C153.577 222.205 154.851 224.759 156.458 226.155" fill="#FAA61A"/>
<path d="M121.828 200.564L121.771 200.526C121.029 200.08 120.021 199.852 118.966 199.852C118.129 199.852 117.245 199.994 116.427 200.279C114.963 200.792 113.936 201.666 113.527 202.758C113.156 203.954 113.508 205.549 114.468 206.974C115.485 208.493 116.978 209.509 118.348 209.632C120.401 209.813 122.103 207.743 122.807 205.739C123.397 204.039 123.501 201.666 121.837 200.564" fill="#FAA61A"/>
<path d="M219.005 192.018C218.101 191.296 216.694 190.888 215.23 190.888C214.735 190.888 214.231 190.935 213.737 191.03C212.215 191.334 211.074 192.056 210.513 193.072C209.981 194.202 210.105 195.826 210.846 197.383C211.645 199.026 212.976 200.241 214.317 200.555C216.333 201.02 218.301 199.206 219.271 197.326C220.098 195.731 220.535 193.395 219.033 192.065L218.986 192.018H219.005Z" fill="#FAA61A"/>
<path d="M160.803 241.101H160.717C158.749 241.31 156.61 241.737 155.64 243.323C154.48 245.326 155.431 248.033 156.895 249.818C157.779 250.881 158.787 251.385 159.814 251.271C161.05 251.138 162.277 250.103 163.085 248.507C163.085 248.488 163.104 248.469 163.114 248.46C164.283 246.599 164.977 243.893 164.026 242.316C163.465 241.395 162.391 240.977 160.803 241.101Z" fill="#FAA61A"/>
<path d="M189.557 227.873L189.528 227.854C187.579 226.791 184.042 227.123 182.549 229.117C181.142 231.073 181.579 235.356 183.329 236.79C185.135 237.863 187.027 236.021 188.806 233.865C189.785 232.688 190.688 230.865 190.498 229.421C190.412 228.757 190.108 228.253 189.566 227.873" fill="#FAA61A"/>
<path d="M203.268 210.686C202.755 210.496 202.127 210.326 201.509 210.326C200.995 210.326 200.501 210.439 200.073 210.753C199.246 211.37 198.837 212.671 198.942 214.437V214.456C198.98 216.061 199.446 217.457 200.225 218.292C200.539 218.634 201.014 218.777 201.633 218.71C202.945 218.577 204.533 217.561 205.246 216.393C206.187 214.855 206.501 213.696 206.206 212.851C205.911 212.016 204.97 211.323 203.249 210.686" fill="#FAA61A"/>
<path d="M212.748 179.142C213.575 180.139 214.555 180.538 215.648 180.329C217.274 180.015 218.966 178.344 219.585 176.436C220.222 174.802 220.155 173.407 219.423 172.457C218.681 171.507 217.312 171.099 215.572 171.308C213.661 171.422 212.349 172.115 211.75 173.321C210.989 174.84 211.36 177.053 212.71 179.104L212.738 179.142H212.748Z" fill="#FAA61A"/>
<path d="M108.772 180.016L108.801 179.978C110.151 177.926 110.522 175.704 109.761 174.195C109.162 172.989 107.85 172.296 105.977 172.191C105.663 172.153 105.368 172.134 105.083 172.134C103.733 172.134 102.697 172.552 102.088 173.331C101.356 174.271 101.299 175.676 101.917 177.271C102.554 179.218 104.246 180.899 105.872 181.202C106.975 181.411 107.945 181.013 108.772 180.016Z" fill="#FAA61A"/>
<path d="M170.654 144.815C169.865 144.075 168.876 143.98 168.182 144.027C166.736 144.132 165.167 144.958 164.274 146.088C162.914 147.892 163.228 151.253 164.93 153.01C166.879 154.691 168.628 153.428 169.494 152.526C171.472 150.465 172.422 146.667 170.701 144.863L170.663 144.815H170.654Z" fill="#FAA61A"/>
<path d="M196.165 130.543C195.585 129.983 194.558 129.67 193.408 129.67C193.103 129.67 192.799 129.689 192.495 129.736C191.107 129.936 190.004 130.534 189.538 131.35C189.024 132.3 189.091 133.8 189.709 135.253C190.327 136.687 191.354 137.75 192.409 138.045C193.693 138.311 195.034 137.532 195.975 135.937C197.097 134.038 197.192 131.73 196.194 130.572L196.165 130.543Z" fill="#FAA61A"/>
<path d="M154.641 165.202C154.128 166.152 154.195 167.652 154.813 169.105C155.421 170.539 156.458 171.602 157.513 171.897C158.797 172.163 160.137 171.384 161.079 169.789C162.201 167.89 162.296 165.582 161.297 164.424L161.278 164.405C160.698 163.844 159.671 163.531 158.521 163.531C158.217 163.531 157.912 163.55 157.608 163.598C156.22 163.797 155.117 164.395 154.651 165.212" fill="#FAA61A"/>
<path d="M222.133 137.418L222.104 137.399C221.515 137.095 220.811 136.934 220.069 136.934C219.423 136.934 218.757 137.048 218.12 137.285C216.903 137.741 216.019 138.548 215.629 139.555C214.83 141.748 215.81 145.214 218.234 146.211C220.193 146.876 221.867 145.157 222.684 143.486C223.711 141.397 223.863 138.567 222.133 137.418Z" fill="#FAA61A"/>
<path d="M215.315 123.668H215.363C216.352 123.915 217.226 123.668 217.968 122.966C219.337 121.655 219.841 119.177 219.528 117.544C219.328 116.11 218.548 115.027 217.379 114.534C216.152 114.011 214.688 114.23 213.461 115.113C211.493 116.366 211.236 117.933 211.36 119.044C211.588 121.029 213.214 122.928 215.315 123.678" fill="#FAA61A"/>
<path d="M169.579 135.453C171.548 134.731 173.031 131.768 172.755 129.119C172.632 127.486 171.69 125.159 166.974 126.261C166.955 126.261 166.936 126.28 166.917 126.28C165.747 126.698 164.987 127.4 164.654 128.388C164.179 129.784 164.606 131.749 165.757 133.515L165.804 133.591C166.613 134.778 167.925 136.06 169.579 135.453Z" fill="#FAA61A"/>
<path d="M150.981 143.096C152.426 141.14 152.816 138.491 151.884 136.943C151.333 136.022 150.353 135.547 149.022 135.547C148.727 135.547 148.423 135.566 148.1 135.614C146.664 135.794 145.599 136.412 145.019 137.409C144.401 138.463 144.382 139.839 144.962 141.264C145.608 143.182 146.835 144.521 148.109 144.73C149.336 144.92 150.315 143.989 150.924 143.163L150.981 143.087V143.096Z" fill="#FAA61A"/>
<path d="M131.707 131.816C131.222 131.616 130.671 131.512 130.1 131.512C129.368 131.512 128.607 131.673 127.951 132.006C127.324 132.319 126.515 132.917 126.249 133.962C125.812 135.718 127.295 138.13 129.187 138.729C130.927 139.27 132.325 137.921 132.934 136.345C133.561 134.731 133.466 132.642 131.774 131.844L131.707 131.816Z" fill="#FAA61A"/>
<path d="M128.084 165.858C114.192 165.858 110.617 155.27 110.465 154.814C109.942 153.209 110.826 151.481 112.443 150.968C114.04 150.456 115.761 151.32 116.284 152.915C116.313 153 116.95 154.719 118.671 156.381C120.981 158.612 124.148 159.742 128.084 159.742C132.021 159.742 135.149 158.622 137.412 156.4C139.124 154.719 139.723 152.972 139.723 152.953C140.217 151.339 141.929 150.446 143.545 150.94C145.162 151.434 146.065 153.162 145.57 154.776C145.428 155.232 142.005 165.867 128.084 165.867" fill="#231F20"/>
<path d="M193.379 165.858C179.459 165.858 176.036 155.222 175.893 154.767C175.399 153.152 176.302 151.443 177.928 150.949C179.544 150.456 181.256 151.358 181.75 152.981C181.75 152.981 182.349 154.719 184.051 156.4C186.314 158.622 189.452 159.742 193.379 159.742C202.859 159.742 205.151 153 205.17 152.934C205.693 151.329 207.414 150.446 209.021 150.959C210.628 151.481 211.512 153.2 210.998 154.805C210.856 155.26 207.271 165.848 193.379 165.848" fill="#231F20"/>
<path d="M196.08 179.389C195.319 179.227 193.065 178.487 191.782 177.091C190.631 175.837 190.08 172.799 189.985 171.517C189.87 169.836 188.425 168.564 186.733 168.668C185.05 168.782 183.766 170.235 183.88 171.916C183.899 172.153 183.966 173.112 184.222 174.394C184.337 174.983 184.203 175.581 183.861 176.075C181.684 179.18 173.506 189.245 158.996 189.245C144.486 189.245 137.488 179.275 135.701 176.236C135.415 175.761 135.33 175.192 135.444 174.65C135.739 173.245 135.824 172.172 135.843 171.916C135.957 170.235 134.683 168.782 132.991 168.668C131.308 168.554 129.843 169.827 129.729 171.507C129.634 172.78 129.083 175.818 127.932 177.081C126.658 178.477 124.395 179.218 123.653 179.379C121.999 179.721 120.934 181.335 121.267 182.988C121.561 184.431 122.836 185.428 124.262 185.428C124.462 185.428 124.671 185.409 124.88 185.362C125.279 185.276 128.398 184.583 131.07 182.475C131.574 182.076 132.316 182.171 132.715 182.684C136.746 187.821 145.028 195.36 158.977 195.36C172.926 195.36 182.33 187.451 186.685 182.38C187.104 181.886 187.845 181.829 188.34 182.247C191.078 184.535 194.397 185.286 194.805 185.371C195.015 185.409 195.224 185.437 195.423 185.437C196.84 185.437 198.105 184.45 198.409 183.007C198.761 181.364 197.696 179.74 196.051 179.389" fill="#231F20"/>
<path d="M232.773 137.997C228.076 137.807 234.684 128.274 225.556 114.458C224.738 113.442 224.615 111.875 225.879 111.153C226.859 110.574 228.057 110.992 228.618 111.932C233.591 119.661 235.274 126.232 234.77 135.851C234.779 136.962 233.971 137.959 232.849 137.997H232.773Z" fill="white"/>
<path d="M221.42 107.763C218.805 107.735 218.748 103.918 221.372 103.832C223.996 103.813 224.111 107.63 221.486 107.763H221.42Z" fill="white"/>
<path d="M162.182 50.4951C166.717 52.2328 164.188 56.297 162.267 59.1077C160.822 61.4626 159.748 62.8584 159.358 71.6989C159.329 72.411 159.443 74.671 160.242 74.747C161.231 74.4716 162.4 71.8128 163.247 70.8443C165.386 67.7012 168.058 64.6151 171.567 63.1243C176.616 60.6554 182.492 60.475 187.978 59.6109C192.675 58.7278 197.458 58.424 202.013 56.8287C204.057 56.202 205.769 54.7017 207.528 53.7236C212.444 51.6156 211.569 59.2216 211.959 62.0418C212.948 69.5054 213.556 72.2306 210.875 79.5802C206.691 92.0195 196.66 92.3708 201.556 96.8528C203.819 98.6949 206.358 100.357 208.108 102.778C211.788 107.355 213.632 113.461 213.613 119.329C213.385 122.766 212.634 134.066 207.823 133.306C205.312 132.518 203.867 129.717 201.794 128.198C198.485 125.549 194.073 124.675 189.937 124.457C185.554 124.257 181.113 125.539 176.682 124.789C169.741 123.194 162.362 120.896 157.446 115.464C155.069 112.862 153.776 114.657 152.264 116.794C150.686 119.006 148.851 120.877 146.854 122.757C145.19 124.381 143.222 125.634 141.263 126.868C138.277 128.815 135.301 130.914 131.84 131.987C124.652 134.436 117.359 136.924 109.723 136.222C107.679 135.937 105.625 135.424 103.657 134.997C102.04 134.683 99.7679 133.819 100.196 131.825C100.804 129.613 102.972 128.264 104.38 126.451C105.435 125.226 106.367 123.915 107.365 122.643C110.303 119.111 112.833 115.075 114.335 110.697C114.877 109.169 115.628 107.706 115.257 106.14C114.525 103.946 111.996 103.291 110.246 101.866C108.25 100.357 106.747 98.4765 104.941 96.6914C100.909 92.9026 97.1246 88.4492 95.6602 83.0082C92.8838 73.9683 99.7964 77.8805 105.102 77.3203C108.107 77.0164 110.798 75.9339 113.489 74.6995C118.414 72.0502 123.891 69.6193 129.558 69.2395C135.044 68.4609 141.111 68.138 146.008 71.357C150.42 74.2532 150.886 72.2021 150.876 67.9291C150.876 64.0264 150.933 62.3742 152.093 58.9557C153.453 54.9771 157.095 49.5456 162.077 50.4666L162.153 50.4856L162.182 50.4951Z" fill="#23AA4A"/>
</svg>
