<svg width="310" height="310" viewBox="0 0 310 310" fill="none" xmlns="http://www.w3.org/2000/svg">
<rect width="310" height="309.818" fill="#FFC387"/>
<path d="M236.57 105.231C239.258 108.281 242.658 109.994 245.899 112.39C250.929 116.341 255.584 121.6 257.619 127.571C258.716 130.492 259.082 133.631 259.695 136.671C260.337 139.79 262.136 142.464 263.44 145.326C264.507 147.732 264.913 150.287 265.693 152.842C266.603 156.011 267.798 159.001 267.877 162.131C268.006 165.319 267.156 168.508 266.879 171.667C266.603 174.459 266.79 177.034 266.435 179.787C265.763 184.758 263.796 190.531 261.582 195.096C260.258 197.77 258.43 199.81 257.185 202.384C255.811 205.008 255.198 208.078 253.449 210.574C251.67 213.416 248.389 214.97 246.275 217.327C244.555 219.209 243.774 221.694 242.539 223.893C240.701 227.17 237.272 229.804 233.714 231.042C231.49 231.805 229.158 232.29 227.113 233.468C223.851 235.419 221.163 238.34 217.576 239.786C213.356 241.687 208.563 242.727 203.929 242.628C201.982 242.598 200.005 242.529 198.088 242.886C193.69 243.717 189.708 246.817 185.033 246.589C182.602 246.54 180.003 245.728 177.849 244.51C175.813 243.371 173.886 242.044 171.643 241.38C169.518 240.687 167.097 240.578 164.577 239.786C161.998 239.034 159.438 237.806 157.076 236.598C153.37 234.568 149.22 234.429 145.217 233.043C138.922 230.805 134.495 225.437 132.222 219.169C130.641 214.624 129.168 210.722 125.324 207.563C123.101 205.613 120.818 203.721 119.049 201.345C113.702 194.046 110.945 183.906 113.07 174.905C113.495 172.914 113.999 170.914 114.236 168.904C114.681 165.448 114.305 161.942 114.473 158.348C114.592 155.139 115.224 151.911 116.42 148.921C117.418 146.445 118.822 144.177 119.76 141.682C120.877 138.87 121.302 135.631 122.35 132.789C125.275 125.204 131.066 117.797 137.578 112.628C140.098 110.717 142.944 109.4 145.395 107.409C147.559 105.716 149.546 103.527 151.651 101.794C154.863 99.1109 158.598 97.0611 162.818 96.1996C165.387 95.6846 168.174 95.8233 170.625 94.9518C173.125 94.1497 175.23 92.2187 177.839 91.5157C182.049 90.2779 186.348 92.2485 190.587 92.2584C194.007 92.3178 197.327 90.9116 200.746 90.8423C204.067 90.7433 207.328 91.4761 210.421 92.6644C212.872 93.5853 215.313 94.8528 217.794 95.6054C220.037 96.3085 222.389 96.5363 224.682 97.0413C229.623 97.9523 233.289 101.438 236.501 105.151L236.56 105.221L236.57 105.231Z" fill="#FFF041"/>
<path d="M185.152 135.073C185.152 138.311 182.533 140.925 179.312 140.925C176.09 140.925 173.471 138.301 173.471 135.073C173.471 131.845 176.09 129.221 179.312 129.221C182.533 129.221 185.152 131.845 185.152 135.073Z" fill="#F287B7"/>
<path d="M214.216 135.073C214.216 138.311 211.597 140.925 208.376 140.925C205.154 140.925 202.535 138.301 202.535 135.073C202.535 131.845 205.154 129.221 208.376 129.221C211.597 129.221 214.216 131.845 214.216 135.073Z" fill="#F287B7"/>
<path d="M193.75 142.72C188.65 142.72 185.508 141.096 183.769 139.729C181.723 138.125 180.972 136.412 180.833 136.085C180.833 136.085 179.45 133.213 182.523 131.995C185.004 131.015 186.743 133.728 186.743 133.728C186.743 133.728 188.107 136.343 193.75 136.343C199.393 136.343 200.648 133.768 200.648 133.768C200.648 133.768 202.417 130.47 205.322 132.085C207.941 133.54 206.587 136.036 206.587 136.036C206.458 136.362 205.737 138.095 203.701 139.71C201.191 141.7 197.841 142.71 193.74 142.71" fill="#231F20"/>
<path d="M248.605 141.356C247.162 141.356 246.233 139.742 246.767 138.494C247.281 137.346 247.3 133.731 245.976 130.959C245.699 130.325 245.304 129.552 244.889 128.849C243.239 126.067 241.756 124.928 240.145 123.69C239.493 123.145 238.564 122.581 238.05 121.809C237.161 120.482 238.396 118.511 239.997 118.739C241.183 118.917 241.964 120.026 242.922 120.64C244.642 121.898 247.014 124.086 248.822 127.443C249.662 128.968 250.265 130.414 250.69 132.058C251.846 136.534 250.739 139.633 250.561 140.069C250.265 140.772 249.474 141.366 248.694 141.356H248.605Z" fill="white"/>
<path d="M258.287 166.911C257.428 166.238 256.064 164.98 255.214 164.277C255.876 163.079 256.103 161.514 255.669 160.148C255.135 158.375 254.453 157.87 253.9 156.979C252.832 155.137 255.066 153.087 256.785 154.275C257.833 155.068 259.266 157.207 259.829 159.89C260.373 162.049 259.592 165.653 258.297 166.911H258.278H258.287Z" fill="white"/>
<path d="M243.289 208.681C243.032 207.611 242.775 205.849 242.538 204.749C242.519 204.66 242.538 204.67 242.627 204.631C243.527 204.423 245.108 202.908 245.463 201.769C246.155 200.046 245.938 199.234 246.056 198.194C246.373 196.085 249.397 195.887 250.009 197.887C250.335 199.155 250.128 201.719 248.883 204.175C247.954 206.215 245.108 208.512 243.299 208.691H243.289V208.681Z" fill="white"/>
<path d="M232.334 117.042C229.616 117.013 229.557 113.032 232.285 112.943C235.012 112.923 235.131 116.904 232.403 117.042H232.334Z" fill="white"/>
<path d="M179.18 123.649C179.18 126.878 176.571 129.492 173.349 129.492C170.128 129.492 167.519 126.878 167.519 123.649C167.519 120.421 170.128 117.807 173.349 117.807C176.571 117.807 179.18 120.421 179.18 123.649Z" fill="#231F20"/>
<path d="M218.975 123.649C218.975 126.878 216.366 129.492 213.145 129.492C209.923 129.492 207.314 126.878 207.314 123.649C207.314 120.421 209.923 117.807 213.145 117.807C216.366 117.807 218.975 120.421 218.975 123.649Z" fill="#231F20"/>
<path d="M147.051 130.799C157.546 134.898 167.191 140.949 175.255 148.89C180.157 153.545 184.041 158.862 186.6 165.17C188.893 170.656 191.284 177.766 191.265 183.945C191.739 194.61 189.031 205.414 184.416 214.851C182.529 218.753 179.949 222.278 177.202 225.625C172.419 231.616 167.29 237.112 160.412 240.509C150.856 245.46 140.548 249.391 129.836 250.302C126.723 250.5 123.59 250.223 120.487 250.302C114.824 250.56 109.063 250.48 103.41 249.589C94.9015 248.381 86.5312 246.401 79.0996 242.053C65.4817 234.24 54.4826 223.496 48.4049 208.91C42.0012 193.581 42.0901 175.182 49.9268 160.308C54.8779 151.029 61.3113 143.85 69.9485 137.8C76.6488 132.621 84.6239 128.957 92.9646 127.085C101.908 125.322 111.375 124.857 120.517 125.897C129.361 126.818 138.591 127.461 146.972 130.769L147.061 130.799H147.051Z" fill="#FF9016"/>
<path d="M134.767 135.157C133.66 135.067 132.76 136.266 131.634 135.978C130.675 135.711 129.954 134.731 128.926 134.592C127.582 134.305 126.564 135.355 126.485 136.82C126.653 139.583 123.679 138.335 123.244 140.514C122.927 142.276 125.803 142.564 126.159 144.257C126.297 144.881 126.278 145.574 126.623 146.129C127.157 147.079 128.402 147.584 129.46 147.297C130.023 147.149 130.576 146.851 131.169 146.931C132.622 147.149 133.897 148.782 135.429 148.02C135.873 147.802 136.081 147.624 136.367 147.307C136.881 146.752 136.852 145.931 137.346 145.425C138.255 144.663 139.846 144.663 140.024 143.158C140.36 141.395 138.364 140.672 137.731 139.553C137.593 139.316 137.514 139.048 137.524 138.781C137.781 137.068 137.168 135.414 134.846 135.157H134.767Z" fill="#662017"/>
<path d="M96.4734 193.006C96.1275 196.244 91.0974 198.363 85.2272 197.749C79.3571 197.135 74.8804 193.996 75.2164 190.758C75.5623 187.52 80.5924 185.401 86.4625 186.015C92.3327 186.639 96.8094 189.768 96.4734 193.006Z" fill="#F37021"/>
<path d="M153.195 199.006C152.85 202.244 147.819 204.363 141.949 203.749C136.079 203.135 131.602 199.996 131.938 196.758C132.284 193.52 137.314 191.401 143.185 192.015C149.055 192.639 153.531 195.768 153.195 199.006Z" fill="#F37021"/>
<path d="M116.987 204.393C116.276 204.393 115.515 204.344 114.724 204.245C109.269 203.542 106.255 200.769 104.704 198.561C103.014 196.174 102.628 193.897 102.589 193.639C102.589 193.639 102.115 191.213 105.05 190.609C107.995 190.005 108.874 192.669 108.874 192.669V192.619C108.953 193.085 109.872 197.175 115.535 197.907C121.415 198.67 123.194 194.6 123.203 194.55C123.885 192.926 125.743 192.164 127.364 192.837C128.985 193.52 129.746 195.382 129.074 197.006C128.975 197.244 128.056 199.353 125.822 201.254C124.073 202.75 121.197 204.374 116.978 204.374" fill="#231F20"/>
<path d="M182.099 192.592C180.843 192.602 179.845 191.294 180.132 190.047C180.201 189.71 180.646 187.165 180.122 183.145C179.579 178.639 177.691 173.361 175.339 169.222C173.867 166.588 172.651 164.686 171.139 162.597C167.67 157.824 165.032 155.774 164.775 155.576C164.182 155.121 163.777 154.219 163.994 153.437C164.251 152.219 165.694 151.516 166.81 152.061C167.71 152.556 168.817 153.467 171.673 156.665C176.288 162.082 180.715 169.42 182.761 176.094C185.389 184.541 184.283 190.304 184.134 190.968C183.937 191.829 183.067 192.592 182.178 192.592H182.099Z" fill="white"/>
<path d="M158.787 149.968C156.069 149.939 156.02 145.958 158.738 145.869C161.455 145.849 161.584 149.82 158.856 149.968H158.787Z" fill="white"/>
<path d="M144.598 238.538C142.078 238.389 141.95 234.844 144.46 234.438C150.004 233.21 155.439 230.051 160.637 225.08C161.418 224.278 162.673 224.11 163.543 224.872C164.689 225.862 164.304 227.486 163.197 228.308C157.297 233.804 151.219 237.369 144.687 238.528H144.608L144.598 238.538Z" fill="white"/>
<path d="M143.658 168.268C138.805 167.318 134.882 170.011 132.649 174.566C132.085 175.705 132.599 177.081 133.755 177.596C136.345 178.745 139.28 180.419 138.815 181.983C138.351 183.518 135.129 184.073 132.392 184.261C131.176 184.34 130.257 185.39 130.316 186.608C130.465 189.628 131.364 192.321 133.459 194.243C138.39 199.144 147.354 196.877 149.725 188.945L149.804 188.737C152.759 180.25 152.354 170.041 143.667 168.278" fill="#231F20"/>
<path d="M97.2227 163.911C92.3606 162.96 88.4471 165.654 86.2137 170.209C85.6504 171.348 86.1643 172.724 87.3205 173.239C89.9097 174.388 92.8547 176.061 92.3803 177.626C91.9257 179.161 88.6942 179.715 85.9568 179.903C84.7412 179.983 83.8222 181.032 83.8815 182.25C84.0297 185.271 84.929 187.964 87.0241 189.885C91.9554 194.787 100.919 192.519 103.29 184.587L103.37 184.379C106.324 175.893 105.919 165.683 97.2326 163.921" fill="#231F20"/>
<path d="M204.081 98.674L204.051 98.5947C202.717 95.8814 197.905 96.9311 197.539 93.485C197.41 92.7126 196.58 80.8494 196.709 79.0571C196.798 77.7796 196.897 76.4923 196.976 75.205C197.124 71.9867 199.802 66.0352 198.527 63.1932C197.835 61.5989 196.491 61.2226 194.89 59.8165C193.517 58.5984 191.461 58.5489 190.068 62.6783C187.785 69.4219 179.632 75.1158 174.088 79.265C170.965 82.0179 166.617 83.5726 162.674 82.1169C161.024 81.5624 157.891 79.9483 156.28 79.2848C151.843 77.5222 129.44 69.8576 105.119 85.5828C89.2578 95.416 82.6662 112.904 85.5025 129.203C86.1152 133.65 89.4258 145.562 91.9952 148.82C93.191 151.326 95.6912 151.821 96.4423 149.147C96.798 147.889 97.134 146.632 97.4898 145.384C99.0512 139.482 105.198 136.917 110.09 134.254C114.408 132.036 118.539 129.401 122.947 127.342C134.519 122.42 146.299 119.677 157.496 113.102C160.974 111.042 164.295 108.537 166.825 105.457C167.763 104.308 168.584 103.09 169.295 101.793C171.509 98.0402 169.513 94.4555 171.726 90.742C173.278 88.2466 183.565 80.4137 186.332 80.0275C188.645 80.3147 188.17 85.9195 188.22 87.9297C188.23 88.3159 187.943 92.9107 187.498 93.9207C186.313 96.6439 183.13 95.8418 181.282 97.7332C180.63 98.3769 180.294 99.3374 180.433 100.258C180.561 101.268 181.243 102.209 182.182 102.308C182.903 102.377 183.812 102.219 184.05 103.11C184.405 104.447 185.117 105.041 186.53 105.319C187.627 105.655 188.546 105.586 189.307 104.823C190.275 103.873 190.72 104.388 191.412 105.239C191.886 105.804 192.627 106.032 193.398 106.002C194.149 106.002 194.881 105.744 195.306 105.14C195.671 104.625 196.017 103.833 196.768 104.239C197.322 104.497 197.865 104.903 198.488 104.972C199.614 105.101 201.057 104.556 201.304 103.536C201.413 103.199 201.433 102.744 201.66 102.477C201.976 102.15 202.52 102.17 202.915 101.981C204.032 101.496 204.585 99.8028 204.091 98.6838" fill="#007540"/>
</svg>
