<svg preserveAspectRatio="xMidYMid meet" width="380" height="380" overflow="visible" style="display: block;" viewBox="-7.5240 0.0000 322.5150 322.5150" fill="none" xmlns="http://www.w3.org/2000/svg">
<g id="Vector">
<path d="M196.867 152.955L149.627 177.585V312.495H180.977L196.867 152.955Z" fill="white"/>
<path d="M98.8674 308.645L86.7474 181.275L66.6574 218.185L98.8674 308.645Z" fill="white"/>
<path d="M139.627 176.895L92.6274 137.505L95.7974 170.795V170.805L109.277 312.495H139.627V176.895Z" fill="#176CF1"/>
<path d="M203.747 218.515L226.437 244.855L265.257 228.955L247.397 185.355L203.747 218.515Z" fill="#71C4E9"/>
<path d="M89.6174 312.495L57.3674 221.895L18.5574 211.355L74.9374 312.495H89.6174Z" fill="#176CF1"/>
<path d="M219.617 252.265L200.207 229.725L191.087 312.495H207.527L219.617 252.265Z" fill="#176CF1"/>
<path d="M262.297 240.975L229.377 254.465L217.727 312.495H231.237L262.297 240.975Z" fill="white"/>
<path d="M94.2574 125.825L145.277 168.585L195.717 142.285L154.677 74.5952L94.2474 125.825H94.2574ZM127.167 122.915H126.927C125.437 122.915 123.987 122.335 122.897 121.315C120.587 119.135 120.437 115.435 122.557 113.075C123.607 111.905 125.107 111.195 126.677 111.125C128.237 111.055 129.797 111.645 130.947 112.725C133.257 114.905 133.407 118.605 131.287 120.965C130.237 122.135 128.737 122.845 127.167 122.915ZM159.147 112.255C160.197 111.085 161.697 110.375 163.267 110.305C164.827 110.235 166.387 110.825 167.537 111.905C169.847 114.085 169.997 117.785 167.877 120.145C166.827 121.315 165.327 122.025 163.757 122.085H163.517C162.027 122.085 160.577 121.505 159.487 120.485C157.177 118.305 157.027 114.605 159.147 112.245V112.255ZM157.657 141.975C157.207 142.605 153.097 148.145 146.307 148.575C146.047 148.595 145.787 148.605 145.507 148.605C142.387 148.605 137.977 147.455 133.447 142.525C131.577 140.495 131.707 137.325 133.737 135.455C135.767 133.585 138.937 133.715 140.797 135.745C142.037 137.095 143.877 138.685 145.627 138.595C147.387 138.505 149.077 136.745 149.527 136.145C151.127 133.895 154.227 133.385 156.477 134.975C158.727 136.575 159.247 139.715 157.647 141.965H157.657V141.975Z" fill="#71C4E9"/>
<path d="M14.9574 200.015L58.6974 211.895L80.3474 172.105L32.6174 150.985L14.9574 200.015Z" fill="#71C4E9"/>
<path d="M276.677 232.715C276.807 232.075 276.827 231.415 276.697 230.755C276.637 230.425 276.537 230.105 276.407 229.795L254.177 175.545C253.587 174.105 252.367 173.025 250.867 172.615C249.367 172.205 247.767 172.515 246.527 173.455L201.467 207.695L207.737 144.735C207.767 144.455 207.767 144.165 207.737 143.885C207.737 143.795 207.707 143.705 207.697 143.615C207.667 143.405 207.637 143.195 207.587 142.995C207.557 142.885 207.527 142.785 207.487 142.675C207.427 142.475 207.347 142.285 207.257 142.105C207.227 142.045 207.217 141.985 207.187 141.925C207.167 141.885 207.137 141.855 207.107 141.815C207.077 141.765 207.057 141.705 207.027 141.645L160.187 64.3852C159.427 63.1352 158.157 62.2752 156.717 62.0452C155.267 61.8052 153.797 62.2152 152.677 63.1652L83.2574 122.025C83.0574 122.195 82.8774 122.375 82.7174 122.575C82.6974 122.595 82.6774 122.605 82.6574 122.635C82.6374 122.665 82.6174 122.695 82.5974 122.715C82.4074 122.945 82.2374 123.185 82.0974 123.445C82.0774 123.475 82.0674 123.515 82.0474 123.545C81.9274 123.775 81.8274 124.015 81.7474 124.265C81.7274 124.325 81.7074 124.385 81.6874 124.435C81.6074 124.695 81.5574 124.965 81.5274 125.245C81.5274 125.305 81.5274 125.375 81.5074 125.435C81.4874 125.695 81.4774 125.965 81.5074 126.235V126.315L85.0174 163.245L31.7374 139.675C30.4674 139.115 29.0274 139.105 27.7474 139.655C26.4674 140.205 25.4774 141.255 25.0074 142.555L3.68737 201.735C3.64737 201.835 3.62737 201.945 3.58737 202.055C3.58737 202.075 3.56737 202.095 3.55737 202.125V202.165C3.47737 202.455 3.43737 202.745 3.40737 203.035C3.40737 203.085 3.40737 203.135 3.40737 203.185C3.40737 203.465 3.40737 203.745 3.43737 204.015C3.43737 204.075 3.43737 204.125 3.45737 204.185C3.49737 204.455 3.55737 204.725 3.64737 204.985C3.66737 205.035 3.67737 205.075 3.69737 205.125C3.78737 205.375 3.89737 205.625 4.02737 205.865L67.6074 319.945C68.4874 321.525 70.1574 322.515 71.9774 322.515H234.497C236.487 322.515 238.287 321.335 239.087 319.505L276.347 233.685V233.655C276.447 233.415 276.517 233.175 276.577 232.915C276.597 232.845 276.627 232.785 276.637 232.715H276.687H276.677ZM98.8674 308.645L66.6674 218.175L86.7574 181.265L98.8774 308.635L98.8674 308.645ZM58.6974 211.895L14.9474 200.015L32.6174 150.985L80.3474 172.105L58.6974 211.895ZM57.3674 221.895L89.6174 312.495H74.9274L18.5574 211.355L57.3674 221.895ZM226.437 244.855L203.747 218.515L247.387 185.355L265.247 228.955L226.427 244.865H226.437L226.437 244.855ZM95.7974 170.805L92.6274 137.525L139.627 176.905V312.515H109.277L95.7974 170.815V170.805ZM145.277 168.575L94.2574 125.815L154.687 74.5852L195.727 142.275L145.287 168.575H145.277ZM149.627 177.585L196.867 152.955L180.977 312.495H149.627V177.585ZM200.207 229.725L219.627 252.265L207.527 312.505H191.087L200.207 229.725ZM229.377 254.465L262.297 240.975L231.237 312.505H217.717L229.367 254.465L229.377 254.465Z" fill="var(--fill-0, black)"/>
<path d="M225.297 80.6852L240.777 86.0552C242.987 86.8152 244.367 89.0152 244.107 91.3352L239.227 135.205L288.057 80.5752L265.437 74.8952C263.817 74.4852 262.497 73.2952 261.947 71.7152C261.387 70.1352 261.657 68.3852 262.657 67.0452L294.257 24.9352L251.997 11.2252L225.287 80.6852H225.297Z" fill="#FFED00"/>
<path d="M307.227 20.8352C306.737 19.2952 305.537 18.0852 304.007 17.5852L250.587 0.245156C248.057 -0.574844 245.327 0.725156 244.377 3.20516L214.107 81.9152C213.617 83.1752 213.667 84.5852 214.237 85.8152C214.807 87.0452 215.857 87.9852 217.137 88.4352L233.727 94.1852L227.557 149.635C227.317 151.795 228.497 153.865 230.487 154.755C231.147 155.045 231.837 155.195 232.527 155.195C233.917 155.195 235.287 154.615 236.257 153.525L301.027 81.0652C302.197 79.7552 302.597 77.9452 302.077 76.2652C301.567 74.5952 300.217 73.3052 298.517 72.8852L275.177 67.0252L306.467 25.3352C307.437 24.0452 307.717 22.3652 307.237 20.8252H307.227V20.8352ZM262.667 67.0452C261.667 68.3852 261.397 70.1352 261.957 71.7152C262.517 73.2952 263.827 74.4852 265.447 74.8952L288.067 80.5752L239.237 135.205L244.117 91.3352C244.377 89.0152 242.997 86.8252 240.787 86.0552L225.307 80.6852L252.017 11.2252L294.277 24.9352L262.677 67.0452H262.667Z" fill="var(--fill-0, black)"/>
<path d="M167.537 111.905C166.397 110.825 164.827 110.245 163.267 110.305C161.697 110.375 160.197 111.085 159.147 112.255C157.027 114.615 157.177 118.315 159.487 120.495C160.577 121.515 162.027 122.095 163.517 122.095H163.757C165.327 122.025 166.827 121.315 167.877 120.155C169.997 117.795 169.847 114.095 167.537 111.915V111.905Z" fill="var(--fill-0, black)"/>
<path d="M130.947 112.725C129.807 111.645 128.247 111.065 126.677 111.125C125.107 111.195 123.607 111.905 122.557 113.075C120.437 115.435 120.587 119.135 122.897 121.315C123.987 122.345 125.437 122.915 126.927 122.915H127.167C128.737 122.845 130.237 122.135 131.287 120.965C133.407 118.605 133.257 114.905 130.947 112.725Z" fill="var(--fill-0, black)"/>
<path d="M149.537 136.145C149.087 136.755 147.397 138.505 145.637 138.595C143.877 138.695 142.047 137.095 140.807 135.745C138.937 133.715 135.777 133.585 133.747 135.455C131.717 137.325 131.587 140.485 133.457 142.525C137.987 147.455 142.397 148.605 145.517 148.605C145.797 148.605 146.067 148.605 146.317 148.575C153.107 148.145 157.227 142.605 157.667 141.975C159.267 139.725 158.747 136.575 156.497 134.985C154.247 133.385 151.137 133.895 149.547 136.155H149.537V136.145Z" fill="var(--fill-0, black)"/>
<path d="M32.2374 75.5852C32.8074 75.3752 33.3974 75.2752 33.9774 75.2752C35.6274 75.2752 37.2174 76.0952 38.1674 77.5452L49.7974 95.3552L51.2474 59.2852L41.0974 64.1052C39.5874 64.8252 37.8174 64.7352 36.3774 63.8752C34.9374 63.0152 34.0374 61.4852 33.9574 59.8152L32.5974 30.0152L11.2574 38.4352L24.6074 78.4252L32.2374 75.5952V75.5852Z" fill="#FFED00"/>
<path d="M19.3374 89.4152C20.5574 90.0052 21.9674 90.0652 23.2374 89.5952L31.9674 86.3452L49.9674 113.915C50.9074 115.355 52.4974 116.185 54.1574 116.185C54.5974 116.185 55.0474 116.125 55.4874 116.005C57.5874 115.425 59.0674 113.555 59.1574 111.385L61.5574 51.4252C61.6274 49.6752 60.7774 48.0152 59.3174 47.0552C57.8574 46.0952 55.9974 45.9552 54.4174 46.7152L43.5874 51.8552L42.2574 22.5752C42.1874 20.9652 41.3374 19.4852 39.9774 18.6052C38.6174 17.7252 36.9274 17.5552 35.4274 18.1452L3.16737 30.8652C0.697371 31.8452 -0.582629 34.5752 0.257371 37.1052L16.7474 86.4952C17.1774 87.7852 18.1074 88.8352 19.3274 89.4252L19.3374 89.4152ZM32.5974 30.0052L33.9574 59.8052C34.0374 61.4752 34.9374 63.0052 36.3774 63.8652C37.8174 64.7252 39.5874 64.8152 41.0974 64.0952L51.2474 59.2752L49.7974 95.3452L38.1674 77.5352C37.2274 76.0852 35.6274 75.2652 33.9774 75.2652C33.3974 75.2652 32.8074 75.3652 32.2374 75.5752L24.6074 78.4052L11.2574 38.4152L32.5974 29.9952V30.0052Z" fill="var(--fill-0, black)"/>
</g>
</svg>
