<svg preserveAspectRatio="xMidYMid meet" width="380" height="380" overflow="visible" style="display: block;" viewBox="-10.6400 0.0000 302.2800 302.2800" fill="none" xmlns="http://www.w3.org/2000/svg">
<g id="Vector">
<path d="M153.91 46.7303C143.58 41.2303 133.19 37.0003 123.03 34.1503C80.6203 22.2903 49.8603 32.3903 41.4603 35.7503L12.9803 224.7C20.1403 222.03 31.3803 219.07 46.0103 219.07C65.3603 219.07 90.6303 224.24 120.22 242.11C142.89 255.8 177.46 271.41 213.48 268.05C230.14 266.5 241.1 261.37 245.21 259.13L270.07 79.8403C255.23 81.9403 218.77 81.2603 153.91 46.7103V46.7303ZM192.4 95.4503C192.98 94.6303 193.99 94.2303 194.98 94.4503L199.24 95.3803L202.04 92.0403C202.69 91.2703 203.73 90.9603 204.69 91.2603C205.65 91.5603 206.34 92.4003 206.44 93.4003L206.87 97.7403L210.92 99.3703C211.85 99.7503 212.47 100.65 212.48 101.65C212.49 102.66 211.91 103.57 210.98 103.98L206.98 105.73L206.68 110.08C206.61 111.08 205.95 111.95 204.99 112.27C204.72 112.36 204.45 112.4 204.18 112.4C203.48 112.4 202.8 112.11 202.31 111.56L199.41 108.3L195.18 109.36C194.2 109.6 193.18 109.24 192.57 108.43C191.97 107.63 191.9 106.54 192.41 105.67L194.61 101.9L192.3 98.2003C191.77 97.3503 191.8 96.2603 192.38 95.4403H192.4V95.4503ZM123.23 74.1103C123.81 73.2903 124.82 72.8903 125.81 73.1103L130.07 74.0403L132.87 70.7003C133.52 69.9303 134.56 69.6203 135.52 69.9203C136.48 70.2203 137.17 71.0603 137.27 72.0603L137.7 76.4003L141.75 78.0303C142.68 78.4103 143.3 79.3103 143.31 80.3103C143.31 81.3203 142.74 82.2303 141.81 82.6403L137.81 84.3903L137.51 88.7403C137.44 89.7403 136.78 90.6103 135.82 90.9303C135.55 91.0203 135.28 91.0603 135.01 91.0603C134.31 91.0603 133.63 90.7703 133.14 90.2203L130.24 86.9603L126.01 88.0203C125.03 88.2603 124.01 87.9003 123.4 87.0903C122.8 86.2903 122.73 85.2003 123.24 84.3303L125.44 80.5603L123.13 76.8603C122.6 76.0103 122.63 74.9203 123.21 74.1003H123.23V74.1103ZM143.9 134.21C143.52 135.73 142.57 137.01 141.22 137.81C140.3 138.36 139.27 138.64 138.22 138.64C137.77 138.64 137.32 138.59 136.88 138.48C135.35 138.12 134.02 137.15 133.21 135.81C131.56 133.05 132.47 129.46 135.24 127.8C136.56 127.01 138.1 126.77 139.59 127.12C141.12 127.48 142.45 128.45 143.26 129.79C144.06 131.12 144.29 132.69 143.91 134.2H143.9V134.21ZM72.4003 123.17C72.9803 122.35 73.9903 121.95 74.9803 122.17L79.2403 123.1L82.0403 119.76C82.6903 118.99 83.7303 118.68 84.6903 118.98C85.6503 119.28 86.3403 120.12 86.4403 121.12L86.8703 125.46L90.9203 127.09C91.8503 127.47 92.4703 128.37 92.4803 129.37C92.4803 130.38 91.9103 131.29 90.9803 131.7L86.9803 133.45L86.6803 137.8C86.6103 138.8 85.9503 139.67 84.9903 139.99C84.7203 140.08 84.4503 140.12 84.1803 140.12C83.4803 140.12 82.8003 139.83 82.3103 139.28L79.4103 136.02L75.1803 137.08C74.2003 137.32 73.1803 136.96 72.5703 136.15C71.9703 135.35 71.9003 134.26 72.4103 133.39L74.6103 129.62L72.3003 125.92C71.7703 125.07 71.8003 123.98 72.3803 123.16H72.4003V123.17ZM85.2503 171.54C85.1803 172.54 84.5203 173.41 83.5603 173.73C83.3003 173.82 83.0203 173.86 82.7503 173.86C82.0503 173.86 81.3703 173.56 80.8803 173.02L77.9803 169.76L73.7503 170.82C72.7703 171.06 71.7503 170.7 71.1403 169.89C70.5403 169.09 70.4703 168 70.9803 167.13L73.1803 163.36L70.8703 159.66C70.3403 158.81 70.3703 157.72 70.9503 156.9C71.5303 156.08 72.5403 155.68 73.5303 155.9L77.7903 156.83L80.5903 153.49C81.2403 152.72 82.2803 152.41 83.2403 152.71C84.2003 153.01 84.8903 153.85 84.9903 154.85L85.4203 159.19L89.4703 160.82C90.4003 161.2 91.0203 162.09 91.0303 163.1C91.0403 164.11 90.4603 165.02 89.5303 165.43L85.5303 167.18L85.2303 171.53H85.2503V171.54ZM105.51 196.87L101.51 198.62L101.21 202.97C101.14 203.97 100.48 204.84 99.5203 205.16C99.2503 205.25 98.9803 205.29 98.7103 205.29C98.0103 205.29 97.3303 205 96.8403 204.45L93.9403 201.19L89.7103 202.25C88.7303 202.49 87.7103 202.13 87.1003 201.32C86.5003 200.52 86.4303 199.43 86.9403 198.56L89.1403 194.79L86.8303 191.09C86.3003 190.24 86.3303 189.15 86.9103 188.33C87.4903 187.51 88.5003 187.11 89.4903 187.33L93.7503 188.26L96.5503 184.92C97.2003 184.15 98.2403 183.84 99.2003 184.14C100.16 184.44 100.85 185.28 100.95 186.28L101.38 190.62L105.43 192.25C106.36 192.63 106.98 193.53 106.99 194.53C106.99 195.54 106.42 196.45 105.49 196.86H105.51V196.87ZM110.72 100.93L106.72 102.68L106.42 107.03C106.35 108.03 105.69 108.9 104.73 109.22C104.46 109.31 104.19 109.35 103.92 109.35C103.22 109.35 102.54 109.06 102.05 108.51L99.1503 105.25L94.9203 106.31C93.9403 106.55 92.9203 106.19 92.3103 105.38C91.7103 104.58 91.6403 103.49 92.1503 102.62L94.3503 98.8503L92.0403 95.1503C91.5103 94.3003 91.5403 93.2103 92.1203 92.3903C92.7003 91.5703 93.7103 91.1703 94.7003 91.3903L98.9603 92.3203L101.76 88.9803C102.41 88.2103 103.45 87.9003 104.41 88.2003C105.37 88.5003 106.06 89.3403 106.16 90.3403L106.59 94.6803L110.64 96.3103C111.57 96.6903 112.19 97.5803 112.2 98.5903C112.21 99.6003 111.63 100.51 110.7 100.92H110.72V100.93ZM137.65 219.65L133.65 221.4L133.35 225.75C133.28 226.75 132.62 227.62 131.66 227.94C131.39 228.03 131.12 228.07 130.85 228.07C130.15 228.07 129.47 227.78 128.98 227.23L126.08 223.97L121.85 225.03C120.87 225.27 119.85 224.91 119.24 224.1C118.64 223.3 118.57 222.21 119.08 221.34L121.28 217.57L118.97 213.87C118.44 213.02 118.47 211.93 119.05 211.11C119.63 210.29 120.64 209.89 121.63 210.11L125.89 211.04L128.69 207.7C129.34 206.93 130.38 206.62 131.34 206.92C132.3 207.22 132.99 208.06 133.09 209.06L133.52 213.4L137.57 215.03C138.5 215.41 139.12 216.3 139.13 217.31C139.14 218.32 138.56 219.23 137.63 219.64H137.65V219.65ZM144.04 166.44C132.49 163.07 124.32 153.88 123.72 143.59C123.56 140.83 125.66 138.47 128.42 138.31C131.14 138.14 133.54 140.25 133.7 143.01C134.05 149 139.45 154.69 146.84 156.85C154.23 159.01 161.84 157.12 165.36 152.26C166.98 150.02 170.11 149.52 172.34 151.14C174.58 152.76 175.08 155.89 173.46 158.12C168.98 164.3 161.34 167.74 152.98 167.74C150.05 167.74 147.03 167.32 144.04 166.44ZM161.75 138.47C162.15 136.99 163.09 135.75 164.41 134.96C167.18 133.3 170.78 134.2 172.43 136.95C174.08 139.71 173.17 143.3 170.4 144.96C169.46 145.53 168.42 145.79 167.39 145.79C165.4 145.79 163.47 144.78 162.38 142.96C161.58 141.62 161.35 139.98 161.75 138.46V138.47ZM175.97 219.64L171.97 221.39L171.67 225.74C171.6 226.74 170.94 227.61 169.98 227.93C169.72 228.02 169.44 228.06 169.17 228.06C168.47 228.06 167.79 227.77 167.3 227.22L164.4 223.96L160.16 225.02C159.18 225.26 158.16 224.9 157.55 224.09C156.95 223.29 156.88 222.2 157.39 221.33L159.59 217.56L157.28 213.86C156.75 213.01 156.78 211.92 157.36 211.1C157.94 210.28 158.95 209.88 159.94 210.1L164.2 211.03L167 207.69C167.65 206.92 168.69 206.61 169.65 206.91C170.61 207.21 171.3 208.05 171.4 209.05L171.83 213.39L175.88 215.02C176.81 215.4 177.43 216.29 177.44 217.3C177.45 218.31 176.87 219.22 175.94 219.63H175.97V219.64ZM179.25 84.7703L175.25 86.5203L174.95 90.8703C174.88 91.8703 174.22 92.7403 173.26 93.0603C173 93.1503 172.72 93.1903 172.45 93.1903C171.75 93.1903 171.07 92.9003 170.58 92.3503L167.68 89.0903L163.44 90.1503C162.46 90.3903 161.44 90.0303 160.83 89.2203C160.23 88.4203 160.16 87.3303 160.67 86.4603L162.87 82.6903L160.56 78.9903C160.03 78.1403 160.06 77.0503 160.64 76.2303C161.22 75.4103 162.23 75.0103 163.22 75.2303L167.48 76.1603L170.28 72.8103C170.93 72.0403 171.97 71.7303 172.93 72.0303C173.89 72.3303 174.58 73.1703 174.68 74.1703L175.11 78.5103L179.16 80.1403C180.09 80.5203 180.71 81.4203 180.72 82.4203C180.72 83.4303 180.15 84.3403 179.22 84.7503L179.25 84.7703ZM208.01 201.97L204.01 203.72L203.71 208.07C203.64 209.07 202.98 209.94 202.02 210.26C201.75 210.35 201.48 210.39 201.21 210.39C200.51 210.39 199.83 210.1 199.34 209.55L196.44 206.29L192.21 207.35C191.23 207.59 190.21 207.23 189.6 206.42C189 205.62 188.93 204.53 189.44 203.66L191.64 199.89L189.33 196.19C188.8 195.34 188.83 194.25 189.41 193.43C189.99 192.61 191 192.21 191.99 192.43L196.25 193.36L199.05 190.02C199.7 189.25 200.74 188.94 201.7 189.24C202.66 189.54 203.35 190.38 203.45 191.38L203.88 195.72L207.93 197.35C208.86 197.73 209.48 198.62 209.49 199.63C209.5 200.64 208.92 201.55 207.99 201.96H208.01V201.97ZM225.64 173.23L221.64 174.98L221.34 179.33C221.27 180.33 220.61 181.2 219.65 181.52C219.38 181.61 219.11 181.65 218.84 181.65C218.14 181.65 217.46 181.36 216.97 180.81L214.07 177.55L209.84 178.61C208.86 178.85 207.84 178.49 207.23 177.68C206.63 176.88 206.56 175.79 207.07 174.92L209.27 171.15L206.96 167.45C206.43 166.6 206.46 165.51 207.04 164.69C207.62 163.87 208.63 163.47 209.62 163.69L213.88 164.62L216.68 161.28C217.33 160.51 218.37 160.2 219.33 160.5C220.29 160.8 220.98 161.64 221.08 162.64L221.51 166.98L225.56 168.61C226.49 168.99 227.11 169.88 227.12 170.89C227.13 171.9 226.55 172.81 225.62 173.22H225.64V173.23ZM226.55 136.94L222.16 137.96L222.68 142.44C222.82 143.61 222.12 144.71 221 145.09C220.73 145.18 220.46 145.22 220.19 145.22C219.33 145.22 218.51 144.78 218.05 144.01L215.72 140.15L211.62 142.03C210.55 142.52 209.28 142.2 208.58 141.26C207.87 140.32 207.92 139.01 208.69 138.12L211.64 134.71L208.59 131.39C207.79 130.52 207.71 129.22 208.39 128.26C209.07 127.3 210.32 126.94 211.41 127.4L215.56 129.16L217.77 125.23C218.35 124.2 219.56 123.72 220.69 124.07C221.82 124.42 222.54 125.5 222.44 126.67L222.05 131.16L226.47 132.05C227.62 132.28 228.46 133.29 228.48 134.46C228.5 135.64 227.69 136.67 226.55 136.93V136.94Z" fill="#176CF1"/>
<path d="M279.08 69.3903C277.65 68.3003 275.78 68.0403 274.12 68.7403C273.79 68.8703 240.1 81.3103 158.61 37.9003C147.65 32.0603 136.58 27.5603 125.72 24.5203C105.1 18.7503 87.1403 17.7903 72.7303 18.8303L72.7703 18.5303C73.4103 14.2703 72.3603 10.0203 69.8003 6.55031C67.2403 3.08031 63.4903 0.82031 59.2303 0.18031C50.4503 -1.13969 42.2103 4.93031 40.8803 13.7203L39.0403 25.9203C36.4503 26.9203 34.9503 27.6603 34.6703 27.8003C33.2203 28.5303 32.2203 29.9203 31.9803 31.5203L1.71031 232.35C1.42031 234.27 2.28031 236.18 3.89031 237.25C4.84031 237.88 5.97031 238.15 7.07031 238.06L0.18031 283.75C-1.13969 292.54 4.93031 300.77 13.7203 302.1C14.5303 302.22 15.3503 302.28 16.1603 302.28C19.5803 302.28 22.9003 301.19 25.7003 299.13C29.1703 296.57 31.4303 292.82 32.0703 288.56L41.0003 229.31C57.9403 228.45 83.7403 231.78 115.05 250.68C136.78 263.8 168.88 278.52 203.47 278.52C207.33 278.52 211.23 278.34 215.14 277.95C238.88 275.58 252.09 266.73 252.64 266.35C253.81 265.55 254.58 264.3 254.77 262.91L280.95 74.0603C281.2 72.2803 280.49 70.4903 279.07 69.4003H279.08V69.3903ZM213.48 268.07C177.46 271.42 142.89 255.81 120.22 242.13C90.6203 224.26 65.3503 219.09 46.0103 219.09C31.3803 219.09 20.1403 222.05 12.9803 224.72L41.4603 35.7703C49.8503 32.4103 80.6203 22.3103 123.03 34.1703C133.2 37.0103 143.59 41.2403 153.91 46.7503C218.77 81.3003 255.23 81.9803 270.07 79.8803L245.21 259.17C241.1 261.41 230.15 266.54 213.48 268.09V268.07ZM19.7703 291.09C18.4503 292.06 16.8303 292.46 15.2203 292.22C11.8803 291.72 9.57031 288.59 10.0803 285.25L17.8603 233.64C21.2403 232.48 25.5603 231.28 30.7303 230.42L22.1903 287.07C21.9503 288.69 21.0903 290.11 19.7703 291.08V291.09ZM56.8203 10.0103C57.1203 10.0103 57.4303 10.0303 57.7403 10.0803C59.3603 10.3203 60.7803 11.1803 61.7503 12.5003C62.7203 13.8203 63.1203 15.4303 62.8803 17.0503L62.4403 19.9703C57.6003 20.6903 53.3203 21.6103 49.6603 22.5603L50.7703 15.2303C51.2303 12.2003 53.8503 10.0203 56.8203 10.0203V10.0103Z" fill="var(--fill-0, black)"/>
<path d="M179.18 80.1603L175.13 78.5303L174.7 74.1903C174.6 73.1903 173.91 72.3503 172.95 72.0503C171.99 71.7503 170.94 72.0503 170.3 72.8303L167.5 76.1803L163.24 75.2503C162.26 75.0403 161.24 75.4303 160.66 76.2503C160.08 77.0703 160.05 78.1603 160.58 79.0103L162.89 82.7103L160.69 86.4803C160.18 87.3503 160.24 88.4403 160.85 89.2403C161.45 90.0403 162.48 90.4103 163.46 90.1703L167.7 89.1103L170.6 92.3703C171.08 92.9103 171.77 93.2103 172.47 93.2103C172.74 93.2103 173.01 93.1703 173.28 93.0803C174.23 92.7503 174.9 91.8903 174.97 90.8903L175.27 86.5403L179.27 84.7903C180.19 84.3903 180.78 83.4703 180.77 82.4603C180.75 81.4503 180.14 80.5603 179.21 80.1803L179.18 80.1603Z" fill="#FFED00"/>
<path d="M194.64 101.91L192.44 105.68C191.93 106.55 191.99 107.64 192.6 108.44C193.2 109.24 194.23 109.61 195.21 109.37L199.44 108.31L202.34 111.57C202.82 112.11 203.51 112.41 204.21 112.41C204.48 112.41 204.75 112.37 205.02 112.28C205.97 111.95 206.64 111.09 206.71 110.09L207.01 105.74L211.01 103.99C211.93 103.59 212.52 102.67 212.51 101.66C212.49 100.65 211.88 99.7603 210.95 99.3803L206.9 97.7503L206.47 93.4103C206.37 92.4103 205.68 91.5703 204.72 91.2703C203.76 90.9703 202.71 91.2703 202.07 92.0503L199.27 95.3903L195.01 94.4603C194.02 94.2503 193.01 94.6403 192.43 95.4603C191.85 96.2803 191.82 97.3703 192.35 98.2203L194.66 101.92H194.64V101.91Z" fill="#FFED00"/>
<path d="M125.47 80.5803L123.27 84.3503C122.76 85.2203 122.82 86.3103 123.43 87.1103C124.03 87.9103 125.06 88.2803 126.04 88.0403L130.27 86.9803L133.17 90.2403C133.65 90.7803 134.34 91.0803 135.04 91.0803C135.31 91.0803 135.58 91.0403 135.85 90.9503C136.8 90.6203 137.47 89.7603 137.54 88.7603L137.84 84.4103L141.84 82.6603C142.76 82.2603 143.35 81.3403 143.34 80.3303C143.32 79.3203 142.71 78.4303 141.78 78.0503L137.73 76.4203L137.3 72.0803C137.2 71.0803 136.51 70.2403 135.55 69.9403C134.59 69.6403 133.54 69.9403 132.9 70.7203L130.1 74.0603L125.84 73.1303C124.85 72.9203 123.84 73.3103 123.26 74.1303C122.68 74.9503 122.65 76.0403 123.18 76.8903L125.49 80.5903H125.47V80.5803Z" fill="#FFED00"/>
<path d="M226.48 132.05L222.06 131.16L222.45 126.67C222.55 125.5 221.82 124.41 220.7 124.07C219.58 123.73 218.36 124.21 217.78 125.23L215.57 129.16L211.42 127.4C210.34 126.94 209.08 127.3 208.4 128.26C207.72 129.22 207.81 130.53 208.6 131.39L211.65 134.71L208.7 138.12C207.93 139.01 207.88 140.32 208.59 141.26C209.3 142.2 210.56 142.52 211.63 142.03L215.73 140.15L218.06 144.01C218.52 144.78 219.34 145.22 220.2 145.22C220.47 145.22 220.74 145.18 221.01 145.09C222.12 144.71 222.82 143.6 222.69 142.44L222.17 137.96L226.56 136.94C227.71 136.67 228.51 135.64 228.49 134.47C228.47 133.29 227.64 132.29 226.48 132.06V132.05Z" fill="#FFED00"/>
<path d="M110.65 96.3203L106.6 94.6903L106.17 90.3503C106.07 89.3503 105.38 88.5103 104.42 88.2103C103.46 87.9103 102.41 88.2103 101.77 88.9903L98.9703 92.3303L94.7103 91.4003C93.7203 91.1903 92.7103 91.5803 92.1303 92.4003C91.5503 93.2203 91.5203 94.3103 92.0503 95.1603L94.3603 98.8603L92.1603 102.63C91.6503 103.5 91.7103 104.59 92.3203 105.39C92.9203 106.19 93.9503 106.56 94.9303 106.32L99.1603 105.26L102.06 108.52C102.54 109.06 103.23 109.36 103.93 109.36C104.2 109.36 104.47 109.32 104.74 109.23C105.69 108.9 106.36 108.04 106.43 107.04L106.73 102.69L110.73 100.94C111.65 100.54 112.24 99.6203 112.23 98.6103C112.21 97.6003 111.6 96.7103 110.67 96.3303H110.65V96.3203Z" fill="#FFED00"/>
<path d="M91.0503 163.11C91.0303 162.1 90.4203 161.21 89.4903 160.83L85.4403 159.2L85.0103 154.86C84.9103 153.86 84.2203 153.02 83.2603 152.72C82.3003 152.42 81.2503 152.72 80.6103 153.5L77.8103 156.84L73.5503 155.91C72.5603 155.7 71.5503 156.09 70.9703 156.91C70.3903 157.73 70.3603 158.82 70.8903 159.67L73.2003 163.37L71.0003 167.14C70.4903 168.01 70.5503 169.1 71.1603 169.9C71.7603 170.7 72.7903 171.07 73.7703 170.83L78.0003 169.77L80.9003 173.03C81.3803 173.57 82.0703 173.87 82.7703 173.87C83.0403 173.87 83.3103 173.83 83.5803 173.74C84.5303 173.41 85.2003 172.55 85.2703 171.55L85.5703 167.2L89.5703 165.45C90.4903 165.05 91.0803 164.13 91.0703 163.12H91.0503V163.11Z" fill="#FFED00"/>
<path d="M207.94 197.36L203.89 195.73L203.46 191.39C203.36 190.39 202.67 189.55 201.71 189.25C200.75 188.95 199.71 189.25 199.06 190.03L196.26 193.37L192 192.44C191.01 192.23 190 192.62 189.42 193.44C188.84 194.26 188.81 195.35 189.34 196.2L191.65 199.9L189.45 203.67C188.94 204.54 189 205.63 189.61 206.43C190.21 207.23 191.24 207.6 192.22 207.36L196.45 206.3L199.35 209.56C199.83 210.1 200.52 210.4 201.22 210.4C201.49 210.4 201.76 210.36 202.03 210.27C202.98 209.94 203.65 209.08 203.72 208.08L204.02 203.73L208.02 201.98C208.94 201.58 209.53 200.66 209.52 199.65C209.5 198.64 208.89 197.75 207.96 197.37H207.94V197.36Z" fill="#FFED00"/>
<path d="M105.44 192.26L101.39 190.63L100.96 186.29C100.86 185.29 100.17 184.45 99.2103 184.15C98.2503 183.85 97.2003 184.15 96.5603 184.93L93.7603 188.27L89.5003 187.34C88.5203 187.13 87.5003 187.52 86.9203 188.34C86.3403 189.16 86.3103 190.25 86.8403 191.1L89.1503 194.8L86.9503 198.57C86.4403 199.44 86.5003 200.53 87.1103 201.33C87.7103 202.13 88.7403 202.5 89.7203 202.26L93.9503 201.2L96.8503 204.46C97.3303 205 98.0203 205.3 98.7203 205.3C98.9903 205.3 99.2603 205.26 99.5303 205.17C100.48 204.84 101.15 203.98 101.22 202.98L101.52 198.63L105.52 196.88C106.44 196.48 107.03 195.56 107.02 194.55C107 193.54 106.39 192.65 105.46 192.27H105.44V192.26Z" fill="#FFED00"/>
<path d="M225.57 168.62L221.52 166.99L221.09 162.65C220.99 161.65 220.3 160.81 219.34 160.51C218.38 160.21 217.33 160.51 216.69 161.29L213.89 164.63L209.63 163.7C208.64 163.49 207.63 163.88 207.05 164.7C206.47 165.52 206.44 166.61 206.97 167.46L209.28 171.16L207.08 174.93C206.57 175.8 206.63 176.89 207.24 177.69C207.84 178.49 208.87 178.86 209.85 178.62L214.08 177.56L216.98 180.82C217.46 181.36 218.15 181.66 218.85 181.66C219.12 181.66 219.39 181.62 219.66 181.53C220.61 181.2 221.28 180.34 221.35 179.34L221.65 174.99L225.65 173.24C226.57 172.84 227.16 171.92 227.15 170.91C227.13 169.9 226.52 169.01 225.59 168.63H225.57V168.62Z" fill="#FFED00"/>
<path d="M74.6403 129.64L72.4403 133.41C71.9303 134.28 71.9903 135.37 72.6003 136.17C73.2003 136.97 74.2303 137.34 75.2103 137.1L79.4403 136.04L82.3403 139.3C82.8203 139.84 83.5103 140.14 84.2103 140.14C84.4803 140.14 84.7503 140.1 85.0203 140.01C85.9703 139.68 86.6403 138.82 86.7103 137.82L87.0103 133.47L91.0103 131.72C91.9303 131.32 92.5203 130.4 92.5103 129.39C92.4903 128.38 91.8803 127.49 90.9503 127.11L86.9003 125.48L86.4703 121.14C86.3703 120.14 85.6803 119.3 84.7203 119C83.7603 118.7 82.7103 119 82.0703 119.78L79.2703 123.12L75.0103 122.19C74.0203 121.98 73.0103 122.37 72.4303 123.19C71.8503 124.01 71.8203 125.1 72.3503 125.95L74.6603 129.65H74.6403V129.64Z" fill="#FFED00"/>
<path d="M173.46 158.12C175.08 155.88 174.58 152.76 172.34 151.14C170.1 149.52 166.98 150.02 165.36 152.26C161.84 157.12 154.23 159.01 146.84 156.85C139.46 154.69 134.05 149 133.7 143.01C133.54 140.25 131.14 138.14 128.42 138.31C125.66 138.47 123.56 140.84 123.72 143.59C124.32 153.89 132.49 163.07 144.04 166.44C147.04 167.32 150.05 167.74 152.98 167.74C161.33 167.74 168.98 164.3 173.46 158.12Z" fill="var(--fill-0, black)"/>
<path d="M167.39 145.79C168.42 145.79 169.46 145.52 170.4 144.96C173.17 143.3 174.08 139.71 172.43 136.95C170.78 134.19 167.18 133.3 164.41 134.96C163.09 135.75 162.15 137 161.75 138.47C161.34 139.99 161.57 141.62 162.38 142.97C163.47 144.79 165.4 145.8 167.39 145.8V145.79Z" fill="var(--fill-0, black)"/>
<path d="M139.59 127.13C138.1 126.78 136.55 127.02 135.24 127.81C132.47 129.47 131.56 133.06 133.21 135.82C134.01 137.16 135.35 138.14 136.88 138.49C137.33 138.59 137.78 138.65 138.22 138.65C139.27 138.65 140.3 138.37 141.22 137.82C142.57 137.01 143.52 135.73 143.9 134.22C144.28 132.71 144.05 131.14 143.25 129.81C142.45 128.47 141.11 127.49 139.58 127.14H139.59V127.13Z" fill="var(--fill-0, black)"/>
</g>
</svg>
