<svg preserveAspectRatio="xMidYMid meet" width="380" height="380" overflow="visible" style="display: block;" viewBox="-0.0050 0.0000 328.0500 328.0500" fill="none" xmlns="http://www.w3.org/2000/svg">
<g id="Vector">
<path d="M164 85.19C166.68 85.19 169.34 85.33 171.95 85.6V74.39C171.95 72.84 172.67 71.38 173.9 70.43L200.35 50.05C203.96 47.27 204.64 42.06 201.85 38.45C199.06 34.84 193.86 34.16 190.25 36.95L181.87 43.41C179.99 44.85 177.51 45.1 175.39 44.06C173.27 43.02 171.95 40.9 171.95 38.53V18.26C171.95 13.7 168.24 9.99 163.68 9.99C159.12 9.99 155.41 13.7 155.41 18.26V38.03C155.41 40.4 154.09 42.51 151.97 43.56C149.85 44.6 147.37 44.36 145.49 42.91L137.75 36.95C134.14 34.17 128.93 34.84 126.15 38.45C123.37 42.06 124.04 47.27 127.65 50.05L153.46 69.94C154.69 70.89 155.41 72.35 155.41 73.9V85.68C158.23 85.37 161.1 85.19 164 85.19Z" fill="white"/>
<path d="M164 239.81C161.1 239.81 158.23 239.64 155.41 239.32V254.13C155.41 255.68 154.69 257.14 153.46 258.09L127.65 277.98C125.9 279.33 124.78 281.28 124.5 283.47C124.22 285.66 124.8 287.83 126.15 289.58C128.93 293.19 134.14 293.87 137.75 291.08L145.49 285.12C147.36 283.68 149.84 283.43 151.97 284.47C154.09 285.51 155.41 287.63 155.41 290V309.77C155.41 314.33 159.12 318.04 163.68 318.04C168.24 318.04 171.95 314.33 171.95 309.77V289.5C171.95 287.13 173.27 285.02 175.39 283.97C177.51 282.93 179.99 283.17 181.87 284.62L190.25 291.08C193.86 293.86 199.07 293.19 201.85 289.58C204.63 285.97 203.96 280.76 200.35 277.98L173.9 257.6C172.67 256.65 171.95 255.19 171.95 253.64V239.4C169.34 239.67 166.68 239.81 164 239.81Z" fill="white"/>
<path d="M309.76 153.91H289.99C287.62 153.91 285.51 152.59 284.46 150.47C283.42 148.35 283.66 145.87 285.11 143.99L291.07 136.25C293.85 132.64 293.18 127.43 289.57 124.65C285.96 121.87 280.75 122.54 277.97 126.15L258.08 151.96C257.13 153.19 255.67 153.91 254.12 153.91H240.82C241.13 156.73 241.31 159.6 241.31 162.5C241.31 165.18 241.17 167.84 240.9 170.45H253.62C255.17 170.45 256.63 171.17 257.58 172.4L277.96 198.85C280.74 202.46 285.95 203.14 289.56 200.35C291.31 199 292.43 197.05 292.71 194.86C292.99 192.67 292.41 190.5 291.06 188.75L284.6 180.37C283.16 178.5 282.91 176.02 283.95 173.89C284.99 171.77 287.11 170.45 289.48 170.45H309.75C314.31 170.45 318.02 166.74 318.02 162.18C318.02 157.62 314.31 153.91 309.75 153.91H309.76Z" fill="white"/>
<path d="M297.79 143.91L298.99 142.36C305.14 134.38 303.65 122.89 295.67 116.74C287.69 110.59 276.19 112.08 270.05 120.06L251.66 143.92H239.04C236.44 133.41 231.68 123.75 225.26 115.43C225.44 115.29 225.63 115.16 225.8 114.99L241.5 99.29L261.97 102.31C262.22 102.35 262.46 102.36 262.71 102.36C265.15 102.36 267.28 100.57 267.65 98.09C268.05 95.36 266.17 92.82 263.43 92.41L250.31 90.48L259.11 81.68C261.06 79.73 261.06 76.56 259.11 74.61C257.16 72.66 253.99 72.66 252.04 74.61L243.37 83.28L241.48 70.45C241.08 67.72 238.54 65.83 235.8 66.23C233.07 66.63 231.18 69.17 231.58 71.91L234.56 92.09L218.73 107.92C218.73 107.92 218.73 107.92 218.71 107.94C208.76 97.97 196.1 90.71 181.95 87.33V76.86L206.45 57.98C214.43 51.83 215.92 40.34 209.77 32.36C203.62 24.38 192.13 22.89 184.15 29.04L181.96 30.73V18.27C181.96 8.2 173.76 0 163.69 0C153.62 0 145.42 8.2 145.42 18.27V30.24L143.87 29.04C135.89 22.89 124.4 24.38 118.25 32.36C112.1 40.34 113.59 51.83 121.57 57.98L145.43 76.37V87.48C130.95 91.07 118.09 98.75 108.11 109.21L93.5 94.6L96.48 74.42C96.88 71.69 95 69.15 92.26 68.74C89.53 68.34 86.99 70.22 86.58 72.96L84.69 85.79L76.02 77.12C74.07 75.17 70.9 75.17 68.95 77.12C67 79.07 67 82.24 68.95 84.19L77.75 92.99L64.63 94.93C61.9 95.33 60.01 97.87 60.41 100.61C60.78 103.09 62.91 104.88 65.35 104.88C65.59 104.88 65.84 104.86 66.09 104.83L86.56 101.81L101.66 116.92C95.8 124.91 91.44 134.05 88.99 143.94H76.37L57.98 120.08C51.83 112.1 40.34 110.61 32.36 116.76C24.38 122.91 22.89 134.4 29.04 142.38L30.24 143.93H18.27C8.2 143.93 0 152.13 0 162.2C0 172.27 8.2 180.47 18.27 180.47H30.73L29.04 182.66C22.89 190.64 24.38 202.14 32.36 208.28C35.59 210.77 39.47 212.08 43.48 212.08C44.27 212.08 45.07 212.03 45.86 211.93C50.7 211.3 55.01 208.83 57.98 204.96L76.86 180.46H88.84C91.26 190.59 95.67 199.96 101.65 208.12L86.54 223.23L66.07 220.21C63.34 219.81 60.8 221.69 60.39 224.43C59.99 227.16 61.87 229.7 64.61 230.11L77.73 232.04L68.93 240.84C66.98 242.79 66.98 245.96 68.93 247.91C69.91 248.89 71.19 249.37 72.47 249.37C73.75 249.37 75.03 248.88 76.01 247.91L84.68 239.24L86.57 252.07C86.94 254.55 89.07 256.34 91.51 256.34C91.75 256.34 92 256.32 92.25 256.29C94.98 255.89 96.87 253.35 96.47 250.61L93.49 230.43L108.11 215.81C118.39 226.59 131.74 234.41 146.76 237.85H145.44V251.68L121.58 270.07C117.71 273.05 115.24 277.35 114.61 282.19C113.98 287.03 115.28 291.82 118.26 295.69C124.41 303.67 135.9 305.16 143.88 299.01L145.43 297.81V309.78C145.43 319.85 153.63 328.05 163.7 328.05C173.77 328.05 181.97 319.85 181.97 309.78V297.32L184.16 299.01C192.14 305.16 203.63 303.67 209.78 295.69C215.93 287.71 214.44 276.22 206.46 270.07L181.96 251.19V237.85H181.28C196.29 234.41 209.64 226.59 219.93 215.81L234.55 230.43L231.57 250.61C231.17 253.34 233.05 255.88 235.79 256.29C236.04 256.33 236.28 256.34 236.53 256.34C238.97 256.34 241.1 254.55 241.47 252.07L243.36 239.24L252.03 247.91C253.01 248.89 254.29 249.37 255.57 249.37C256.85 249.37 258.13 248.88 259.11 247.91C261.06 245.96 261.06 242.79 259.11 240.84L250.31 232.04L263.43 230.11C266.16 229.71 268.05 227.17 267.65 224.43C267.25 221.7 264.7 219.81 261.97 220.21L241.5 223.23L226.39 208.12C232.37 199.96 236.78 190.6 239.2 180.46H251.18L270.06 204.96C273.65 209.62 279.07 212.07 284.55 212.07C288.44 212.07 292.37 210.83 295.68 208.28C303.66 202.13 305.15 190.64 299 182.66L297.31 180.47H309.77C319.84 180.47 328.04 172.27 328.04 162.2C328.04 152.13 319.84 143.93 309.77 143.93V143.91H297.79ZM289.49 170.45C287.12 170.45 285.01 171.77 283.96 173.89C282.92 176.01 283.17 178.5 284.61 180.37L291.07 188.75C292.42 190.5 293.01 192.67 292.72 194.86C292.44 197.05 291.32 199 289.57 200.35C285.96 203.13 280.75 202.46 277.97 198.85L257.59 172.4C256.64 171.17 255.18 170.45 253.63 170.45H240.91C241.18 167.84 241.32 165.18 241.32 162.5C241.32 159.6 241.14 156.73 240.83 153.91H254.13C255.68 153.91 257.14 153.19 258.09 151.96L277.98 126.15C280.76 122.54 285.97 121.86 289.58 124.65C293.19 127.43 293.87 132.64 291.08 136.25L285.12 143.99C283.68 145.86 283.43 148.35 284.47 150.47C285.51 152.59 287.63 153.91 290 153.91H309.77C314.33 153.91 318.04 157.62 318.04 162.18C318.04 166.74 314.33 170.45 309.77 170.45H289.49ZM164 229.81C126.89 229.81 96.69 199.62 96.69 162.5C96.69 125.38 126.88 95.19 164 95.19C201.12 95.19 231.31 125.38 231.31 162.5C231.31 199.62 201.12 229.81 164 229.81ZM173.9 257.6L200.35 277.98C203.96 280.76 204.64 285.97 201.85 289.58C199.07 293.19 193.86 293.87 190.25 291.08L181.87 284.62C180 283.18 177.51 282.93 175.39 283.97C173.27 285.01 171.95 287.13 171.95 289.5V309.77C171.95 314.33 168.24 318.04 163.68 318.04C159.12 318.04 155.41 314.33 155.41 309.77V290C155.41 287.63 154.09 285.52 151.97 284.47C149.85 283.43 147.36 283.68 145.49 285.12L137.75 291.08C134.14 293.86 128.93 293.19 126.15 289.58C124.8 287.83 124.21 285.66 124.5 283.47C124.78 281.28 125.9 279.33 127.65 277.98L153.46 258.09C154.69 257.14 155.41 255.68 155.41 254.13V239.32C158.23 239.63 161.1 239.81 164 239.81C166.68 239.81 169.34 239.67 171.95 239.4V253.64C171.95 255.19 172.67 256.65 173.9 257.6ZM153.46 69.94L127.65 50.05C124.04 47.27 123.36 42.06 126.15 38.45C128.93 34.84 134.14 34.16 137.75 36.95L145.49 42.91C147.36 44.35 149.85 44.6 151.97 43.56C154.09 42.52 155.41 40.4 155.41 38.03V18.26C155.41 13.7 159.12 9.99 163.68 9.99C168.24 9.99 171.95 13.7 171.95 18.26V38.53C171.95 40.9 173.27 43.01 175.39 44.06C177.51 45.1 179.99 44.86 181.87 43.41L190.25 36.95C193.86 34.17 199.07 34.84 201.85 38.45C204.63 42.06 203.96 47.27 200.35 50.05L173.9 70.43C172.67 71.38 171.95 72.84 171.95 74.39V85.6C169.34 85.33 166.68 85.19 164 85.19C161.1 85.19 158.23 85.36 155.41 85.68V73.9C155.41 72.35 154.69 70.89 153.46 69.94ZM70.41 172.4L50.03 198.85C48.68 200.6 46.73 201.72 44.54 202C42.35 202.28 40.18 201.7 38.43 200.35C34.82 197.57 34.14 192.36 36.93 188.75L43.39 180.37C44.83 178.5 45.08 176.01 44.04 173.89C43 171.77 40.88 170.45 38.51 170.45H18.24C13.68 170.45 9.97 166.74 9.97 162.18C9.97 157.62 13.68 153.91 18.24 153.91H38.01C40.38 153.91 42.49 152.59 43.54 150.47C44.58 148.35 44.34 145.87 42.89 143.99L36.93 136.25C34.15 132.64 34.82 127.43 38.43 124.65C42.04 121.87 47.25 122.54 50.03 126.15L69.92 151.96C70.87 153.19 72.33 153.91 73.88 153.91H87.18C86.87 156.73 86.69 159.6 86.69 162.5C86.69 165.18 86.83 167.84 87.1 170.45H74.38C72.83 170.45 71.37 171.17 70.42 172.4H70.41Z" fill="var(--fill-0, black)"/>
<path d="M87.1 170.45C86.83 167.84 86.69 165.18 86.69 162.5C86.69 159.6 86.87 156.73 87.18 153.91H73.88C72.33 153.91 70.87 153.19 69.92 151.96L50.03 126.15C47.25 122.54 42.04 121.86 38.43 124.65C34.82 127.43 34.14 132.64 36.93 136.25L42.89 143.99C44.33 145.86 44.58 148.35 43.54 150.47C42.5 152.59 40.38 153.91 38.01 153.91H18.24C13.68 153.91 9.97 157.62 9.97 162.18C9.97 166.74 13.68 170.45 18.24 170.45H38.51C40.88 170.45 42.99 171.77 44.04 173.89C45.08 176.01 44.83 178.5 43.39 180.37L36.93 188.75C34.15 192.36 34.82 197.57 38.43 200.35C40.18 201.7 42.35 202.29 44.54 202C46.73 201.72 48.68 200.6 50.03 198.85L70.41 172.4C71.36 171.17 72.82 170.45 74.37 170.45H87.1Z" fill="white"/>
<path d="M164 95.19C126.89 95.19 96.69 125.38 96.69 162.5C96.69 199.62 126.88 229.81 164 229.81C201.12 229.81 231.31 199.62 231.31 162.5C231.31 125.38 201.12 95.19 164 95.19ZM117.41 169.8C111.51 169.8 107.07 167 107.07 163.28C107.07 159.56 111.52 156.76 117.41 156.76C123.3 156.76 127.75 159.56 127.75 163.28C127.75 167 123.3 169.8 117.41 169.8ZM146.64 147.5C146.22 147.34 135.34 143.41 121.03 150.37C120.33 150.71 119.58 150.87 118.85 150.87C117 150.87 115.22 149.83 114.35 148.06C113.14 145.58 114.18 142.58 116.66 141.38C123.44 138.08 129.7 136.75 134.94 136.39L126.42 127.87C124.47 125.92 124.47 122.75 126.42 120.8C128.37 118.85 131.54 118.85 133.49 120.8L152 139.31C153.67 140.98 153.94 143.6 152.65 145.58C151.35 147.56 148.85 148.36 146.64 147.5ZM180.79 193.03C180.79 201.67 173.76 208.7 165.12 208.7H164.52C155.88 208.7 148.85 201.67 148.85 193.03V171.98C148.85 163.34 155.88 156.31 164.52 156.31H165.12C173.76 156.31 180.79 163.34 180.79 171.98V193.03ZM220.93 163.28C220.93 167 216.48 169.8 210.59 169.8C204.7 169.8 200.25 167 200.25 163.28C200.25 159.56 204.7 156.76 210.59 156.76C216.48 156.76 220.93 159.56 220.93 163.28ZM213.35 148.06C212.48 149.84 210.7 150.87 208.85 150.87C208.12 150.87 207.37 150.71 206.67 150.37C192.37 143.41 181.48 147.34 181.03 147.51C178.83 148.33 176.33 147.51 175.05 145.54C173.78 143.56 174.04 140.97 175.7 139.31L194.21 120.8C196.16 118.85 199.33 118.85 201.28 120.8C203.23 122.75 203.23 125.92 201.28 127.87L192.76 136.39C198 136.75 204.26 138.08 211.04 141.38C213.52 142.59 214.56 145.58 213.35 148.06Z" fill="#71C4E9"/>
<path d="M117.41 156.76C111.51 156.76 107.07 159.56 107.07 163.28C107.07 167 111.52 169.8 117.41 169.8C123.3 169.8 127.75 167 127.75 163.28C127.75 159.56 123.3 156.76 117.41 156.76Z" fill="var(--fill-0, black)"/>
<path d="M200.24 163.28C200.24 167 204.69 169.8 210.58 169.8C216.47 169.8 220.92 167 220.92 163.28C220.92 159.56 216.47 156.76 210.58 156.76C204.69 156.76 200.24 159.56 200.24 163.28Z" fill="var(--fill-0, black)"/>
<path d="M152.65 145.58C153.95 143.6 153.68 140.98 152 139.31L133.49 120.8C131.54 118.85 128.37 118.85 126.42 120.8C124.47 122.75 124.47 125.92 126.42 127.87L134.94 136.39C129.7 136.75 123.44 138.08 116.66 141.38C114.18 142.59 113.14 145.58 114.35 148.06C115.22 149.84 117 150.87 118.85 150.87C119.58 150.87 120.33 150.71 121.03 150.37C135.34 143.41 146.22 147.34 146.64 147.5C148.84 148.36 151.35 147.56 152.65 145.58Z" fill="var(--fill-0, black)"/>
<path d="M192.77 136.39L201.29 127.87C203.24 125.92 203.24 122.75 201.29 120.8C199.34 118.85 196.17 118.85 194.22 120.8L175.71 139.31C174.05 140.97 173.79 143.57 175.06 145.54C176.33 147.52 178.83 148.33 181.04 147.51C181.5 147.34 192.38 143.41 206.68 150.37C207.38 150.71 208.13 150.87 208.86 150.87C210.71 150.87 212.49 149.83 213.36 148.06C214.57 145.58 213.53 142.58 211.05 141.38C204.27 138.08 198.01 136.75 192.77 136.39Z" fill="var(--fill-0, black)"/>
<path d="M165.12 166.31H164.52C161.389 166.31 158.85 168.849 158.85 171.98V193.03C158.85 196.161 161.389 198.7 164.52 198.7H165.12C168.251 198.7 170.79 196.161 170.79 193.03V171.98C170.79 168.849 168.251 166.31 165.12 166.31Z" fill="#E6323C"/>
<path d="M165.12 156.31H164.52C155.88 156.31 148.85 163.34 148.85 171.98V193.03C148.85 201.67 155.88 208.7 164.52 208.7H165.12C173.76 208.7 180.79 201.67 180.79 193.03V171.98C180.79 163.34 173.76 156.31 165.12 156.31ZM170.79 193.03C170.79 196.16 168.25 198.7 165.12 198.7H164.52C161.39 198.7 158.85 196.16 158.85 193.03V171.98C158.85 168.85 161.39 166.31 164.52 166.31H165.12C168.25 166.31 170.79 168.85 170.79 171.98V193.03Z" fill="var(--fill-0, black)"/>
</g>
</svg>
