<svg preserveAspectRatio="xMidYMid meet" width="380" height="380" overflow="visible" style="display: block;" viewBox="0.0000 -21.6670 312.1820 312.1820" fill="none" xmlns="http://www.w3.org/2000/svg">
<g id="Vector">
<path d="M307.469 0.0782836C306.739 0.0382836 289.199 -0.941716 262.609 5.32828C238.219 11.0783 201.229 24.3083 163.509 54.7283C152.929 63.2583 143.039 72.5383 134.019 81.9883C124.879 78.4483 109.279 74.4483 87.7789 76.2283C60.1189 78.5183 45.4589 87.8683 44.8489 88.2583C43.3489 89.2383 42.4789 90.9383 42.5889 92.7283C42.6889 94.5183 43.7389 96.1183 45.3489 96.9183C45.5089 96.9983 61.1889 104.938 73.2489 118.818C83.9089 131.088 86.529 144.208 86.909 146.498C83.989 152.588 82.1489 157.758 81.5889 161.588C81.1589 164.558 81.3489 167.788 82.0889 171.168L44.8589 186.038C43.0189 186.778 41.7889 188.528 41.7189 190.508C41.6489 192.488 42.7589 194.328 44.5489 195.188C44.5889 195.208 45.5989 195.698 47.2789 196.588C41.4389 198.318 36.0289 201.118 31.3989 204.948C22.9689 211.928 18.2889 221.398 18.8889 230.278C19.3289 236.878 18.0889 241.378 15.4889 242.598C13.2489 243.648 9.92894 242.518 8.61894 241.278C7.27894 240.008 5.33894 239.578 3.58894 240.168C1.83894 240.758 0.548944 242.268 0.248944 244.088C-0.881056 250.948 1.88894 258.298 7.47894 263.258C11.5889 266.908 16.6989 268.848 21.8689 268.848C23.7889 268.848 25.7089 268.578 27.5989 268.038C36.7689 265.378 41.4089 256.968 45.1389 250.208C45.4589 249.628 45.7689 249.058 46.0889 248.498C47.6589 245.698 49.5889 244.188 51.2189 244.448C52.4989 244.658 53.6289 245.848 53.9089 247.288C54.3489 249.528 52.7089 251.968 49.4089 253.958C47.8989 254.868 46.9789 256.518 46.9989 258.278C47.0189 260.038 47.9589 261.668 49.4789 262.558C60.8589 269.188 69.5389 267.448 74.8089 264.828C82.7789 260.868 88.2789 252.378 91.8289 243.738C92.6189 246.158 92.9489 247.658 92.9589 247.698C93.3889 249.778 95.0889 251.358 97.1889 251.638C97.4089 251.668 97.6389 251.678 97.8589 251.678C99.7189 251.678 101.449 250.638 102.309 248.948L120.419 213.448C123.449 214.448 126.399 214.988 129.179 214.988C129.569 214.988 129.949 214.978 130.329 214.958C134.589 214.728 140.599 213.118 147.809 210.298C152.109 212.008 162.189 216.748 171.689 226.668C184.409 239.948 190.879 256.298 190.949 256.448C191.599 258.118 193.099 259.318 194.869 259.578C195.119 259.618 195.369 259.628 195.609 259.628C197.129 259.628 198.579 258.938 199.529 257.728C199.979 257.158 210.629 243.418 215.439 216.078C219.089 195.368 216.749 179.728 214.139 170.228C224.469 162.058 234.699 152.978 244.239 143.148C277.969 108.378 294.629 72.8683 302.669 49.2083C311.429 23.4083 312.159 5.95828 312.179 5.22828C312.279 2.51828 310.199 0.218284 307.489 0.0582836L307.469 0.0782836ZM205.569 214.388C203.169 228.018 199.189 237.918 196.109 244.058C192.629 237.458 186.919 228.168 178.889 219.788C172.229 212.828 165.349 208.108 159.819 205.018C173.319 198.458 189.269 188.878 205.409 176.938C207.229 185.488 208.419 198.208 205.569 214.398V214.388ZM129.779 204.998C122.719 205.368 112.599 199.518 103.989 190.078C95.3789 180.638 90.4689 170.018 91.4889 163.028C93.9689 145.978 127.949 96.2483 169.789 62.5083C193.729 43.2083 217.439 30.9883 238.249 23.2483C242.799 33.3983 249.059 42.8883 256.909 51.4983C264.469 59.7883 273.019 66.6883 282.329 72.0783C272.669 91.9483 258.319 114.268 237.039 136.218C199.609 174.798 146.989 204.078 129.779 204.998ZM70.3489 255.888C67.5189 257.288 64.4489 257.568 61.0389 256.718C63.5089 253.288 64.4789 249.358 63.7089 245.388C62.6189 239.808 58.2289 235.468 52.7889 234.598C46.8289 233.638 41.0589 237.018 37.3489 243.628C37.0289 244.208 36.6989 244.798 36.3689 245.388C33.2289 251.068 29.9889 256.938 24.7989 258.448C21.1089 259.518 17.2189 258.548 14.1189 255.798C13.1589 254.938 12.3389 253.968 11.6989 252.928C14.3689 253.208 17.1589 252.868 19.7489 251.658C24.4389 249.458 29.8189 243.838 28.8689 229.618C28.4889 223.938 31.8189 217.598 37.7889 212.658C44.0789 207.448 51.9889 204.668 60.4889 204.508C66.2289 208.368 72.519 213.228 77.479 218.668C80.899 222.418 83.6189 226.378 85.7689 230.128C83.4089 239.888 78.2489 251.968 70.3589 255.888H70.3489ZM84.8589 211.928C76.8389 203.138 66.1089 195.918 58.4489 191.388L85.4189 180.618C88.0089 186.018 91.7889 191.538 96.6089 196.818C101.309 201.968 106.329 206.158 111.349 209.218L98.7789 233.858C96.0489 227.478 91.6689 219.398 84.8589 211.938V211.928ZM126.619 89.9983C112.839 105.408 101.569 120.858 93.729 133.958C91.399 127.778 87.449 119.908 80.799 112.258C73.179 103.498 64.4589 96.9683 58.1989 92.8983C64.5989 90.3783 74.8189 87.3283 88.6089 86.1883C105.459 84.7883 118.279 87.3183 126.619 89.9983ZM301.679 10.0583C300.579 18.9583 297.109 38.5883 286.529 62.9683C278.419 58.1583 270.959 52.0483 264.309 44.7583C257.379 37.1683 251.829 28.8383 247.749 19.9583C272.919 11.8383 292.739 10.2883 301.689 10.0583H301.679Z" fill="var(--fill-0, black)"/>
<path d="M77.47 218.669C72.51 213.229 66.23 208.379 60.48 204.509C51.98 204.669 44.07 207.449 37.78 212.659C31.82 217.599 28.48 223.939 28.86 229.619C29.81 243.839 24.42 249.449 19.74 251.659C17.15 252.879 14.36 253.209 11.69 252.929C12.33 253.969 13.14 254.939 14.11 255.799C17.21 258.549 21.11 259.519 24.79 258.449C29.99 256.939 33.23 251.069 36.36 245.389C36.69 244.799 37.01 244.209 37.34 243.629C41.05 237.019 46.82 233.639 52.78 234.599C58.22 235.469 62.61 239.809 63.7 245.389C64.47 249.359 63.5 253.299 61.03 256.719C64.43 257.569 67.51 257.289 70.34 255.889C78.23 251.969 83.39 239.889 85.75 230.129C83.6 226.379 80.88 222.419 77.46 218.669H77.47Z" fill="#FFED00"/>
<path d="M98.78 233.849L111.35 209.209C106.34 206.149 101.31 201.969 96.61 196.809C91.79 191.529 88.01 186.009 85.42 180.609L58.45 191.379C66.1 195.919 76.83 203.129 84.86 211.919C91.67 219.379 96.06 227.459 98.78 233.839V233.849Z" fill="white"/>
<path d="M80.8 112.259C87.45 119.909 91.4 127.779 93.73 133.959C101.57 120.859 112.85 105.409 126.62 89.9995C118.28 87.3095 105.46 84.7895 88.61 86.1895C74.82 87.3295 64.6 90.3895 58.2 92.8995C64.45 96.9695 73.18 103.499 80.8 112.259Z" fill="white"/>
<path d="M178.89 219.779C186.92 228.169 192.62 237.459 196.11 244.049C199.2 237.909 203.17 228.009 205.57 214.379C208.42 198.189 207.23 185.469 205.41 176.919C189.27 188.859 173.31 198.439 159.82 204.999C165.35 208.089 172.23 212.809 178.89 219.769V219.779Z" fill="white"/>
<path d="M237.04 136.219C258.33 114.269 272.67 91.9496 282.33 72.0797C273.02 66.6897 264.47 59.7898 256.91 51.4998C249.06 42.8899 242.8 33.4099 238.25 23.25C217.44 30.99 193.73 43.2099 169.79 62.5097C127.95 96.2495 93.97 145.969 91.49 163.029C90.47 170.019 95.38 180.639 103.99 190.079C112.6 199.519 122.72 205.379 129.78 204.999C146.99 204.089 199.61 174.799 237.04 136.219ZM149.69 151.929C148.1 151.929 146.56 151.169 145.61 149.809C144.36 148.029 144.39 145.649 145.7 143.909L168.05 114.299L161.07 106.029C160.2 104.989 159.78 103.649 159.91 102.299C160.05 100.95 160.72 99.7195 161.79 98.8795L207.29 62.9797C209.38 61.3298 212.39 61.6098 214.14 63.5997L239.63 92.5796C240.7 93.7896 241.11 95.4495 240.74 97.0195C240.37 98.5895 239.27 99.8895 237.78 100.51L206.84 113.269L216.91 123.269C218.15 124.499 218.66 126.299 218.25 127.999C217.84 129.699 216.56 131.059 214.9 131.589L151.21 151.689C150.71 151.849 150.21 151.919 149.71 151.919H149.69V151.929Z" fill="#176CF1"/>
<path d="M264.31 44.76C270.96 52.05 278.42 58.16 286.53 62.97C297.1 38.59 300.57 18.96 301.68 10.06C292.73 10.29 272.92 11.84 247.74 19.96C251.83 28.84 257.38 37.17 264.3 44.76H264.31Z" fill="white"/>
<path d="M193.07 110.56C193.39 108.92 194.52 107.55 196.07 106.91L227.49 93.9495L209.75 73.7795L172.03 103.54L178.25 110.91C179.76 112.69 179.83 115.28 178.42 117.15L163.09 137.46L203.98 124.56L194.44 115.09C193.25 113.91 192.73 112.21 193.06 110.57L193.07 110.56Z" fill="#FFED00"/>
<path d="M218.24 128C218.65 126.3 218.15 124.51 216.9 123.27L206.83 113.27L237.77 100.51C239.26 99.8896 240.37 98.5996 240.73 97.0196C241.09 95.4396 240.68 93.7996 239.62 92.5796L214.13 63.5996C212.38 61.5996 209.37 61.3296 207.28 62.9796L161.78 98.8796C160.72 99.7196 160.04 100.95 159.9 102.3C159.76 103.65 160.18 104.99 161.06 106.03L168.04 114.3L145.69 143.91C144.38 145.65 144.34 148.03 145.6 149.81C146.55 151.16 148.09 151.93 149.68 151.93C150.18 151.93 150.69 151.85 151.18 151.7L214.87 131.6C216.54 131.07 217.81 129.71 218.22 128.01H218.24V128ZM163.1 137.45L178.43 117.14C179.84 115.28 179.77 112.69 178.26 110.9L172.04 103.53L209.76 73.7696L227.5 93.9396L196.08 106.9C194.53 107.54 193.41 108.91 193.08 110.55C192.75 112.19 193.27 113.89 194.46 115.07L204 124.54L163.11 137.44L163.1 137.45Z" fill="var(--fill-0, black)"/>
</g>
</svg>
