<svg preserveAspectRatio="xMidYMid meet" width="380" height="380" overflow="visible" style="display: block;" viewBox="-57.7650 0.0000 280.6600 280.6600" fill="none" xmlns="http://www.w3.org/2000/svg">
<g id="Vector">
<path d="M129.8 9.99H89.94V22.15H129.8V9.99Z" fill="white"/>
<path d="M9.98 91.44C15.35 93.88 20.9 98.47 21.16 107.05L21.68 123.01H143.41L143.92 107.12C144.18 98.47 149.74 93.87 155.1 91.43V87.54H9.98V91.44Z" fill="white"/>
<path d="M22 133.02L26.33 267.04C26.39 269.07 28.03 270.65 30.05 270.65H135.02C137.04 270.65 138.68 269.07 138.74 267.04L143.07 133.01H21.99L22 133.02ZM95.68 151.95C98.44 151.95 100.68 154.19 100.68 156.95C100.68 161.4 104.28 165.02 108.72 165.06C113.16 165.02 116.76 161.4 116.76 156.95C116.76 154.19 119 151.95 121.76 151.95C124.52 151.95 126.76 154.19 126.76 156.95C126.76 166.84 118.8 174.9 108.95 175.06H108.49C98.64 174.9 90.68 166.84 90.68 156.95C90.68 154.19 92.92 151.95 95.68 151.95ZM42.75 151.95C45.51 151.95 47.75 154.19 47.75 156.95C47.75 161.4 51.35 165.02 55.79 165.06C60.23 165.02 63.83 161.4 63.83 156.95C63.83 154.19 66.07 151.95 68.83 151.95C71.59 151.95 73.83 154.19 73.83 156.95C73.83 166.84 65.87 174.9 56.02 175.06H55.56C45.71 174.9 37.75 166.84 37.75 156.95C37.75 154.19 39.99 151.95 42.75 151.95ZM36.45 184.55C31.37 184.55 27.54 182.08 27.54 178.81C27.54 175.54 31.37 173.07 36.45 173.07C41.53 173.07 45.36 175.54 45.36 178.81C45.36 182.08 41.53 184.55 36.45 184.55ZM111.15 190.38C107.35 201.04 95.89 208.21 82.64 208.21C69.39 208.21 57.93 201.05 54.13 190.38C53.2 187.78 54.56 184.92 57.16 183.99C59.76 183.06 62.62 184.42 63.55 187.02C65.9 193.61 73.75 198.21 82.64 198.21C91.53 198.21 99.38 193.61 101.73 187.02C102.66 184.42 105.52 183.06 108.12 183.99C110.72 184.92 112.08 187.78 111.15 190.38ZM128.83 184.55C123.75 184.55 119.92 182.08 119.92 178.81C119.92 175.54 123.75 173.07 128.83 173.07C133.91 173.07 137.74 175.54 137.74 178.81C137.74 182.08 133.91 184.55 128.83 184.55Z" fill="#F29FC5"/>
<path d="M155.1 70.36C155.1 67.96 154.72 65.6 153.96 63.32C153.93 63.24 153.91 63.16 153.89 63.09L146.73 37.53C145.84 34.37 142.93 32.16 139.65 32.16H25.43C22.15 32.16 19.23 34.37 18.35 37.53L11.19 63.09C11.17 63.17 11.14 63.25 11.12 63.32C10.36 65.59 9.98 67.96 9.98 70.36V77.56H155.1V70.36Z" fill="#FFED00"/>
<path d="M165.1 70.36C165.1 66.93 164.56 63.54 163.49 60.28L156.37 34.83C154.29 27.42 147.5 22.23 139.81 22.16V7.83C139.81 3.51 136.3 0 131.98 0H87.79C83.47 0 79.96 3.51 79.96 7.83V22.16H25.45C17.7 22.16 10.83 27.37 8.74 34.83L1.62 60.28C0.55 63.54 0 66.93 0 70.36V93.64C0 96.47 1.79 99.02 4.45 99.98C11.04 102.37 11.14 105.87 11.19 107.46L16.36 267.36C16.59 274.82 22.62 280.66 30.08 280.66H135.05C142.51 280.66 148.53 274.82 148.77 267.37L153.94 107.36C153.98 105.86 154.09 102.36 160.68 99.98C163.34 99.02 165.13 96.47 165.13 93.64V70.37H165.1V70.36ZM135.02 270.65H30.05C28.03 270.65 26.39 269.07 26.33 267.04L22 133.02H143.08L138.75 267.05C138.69 269.07 137.05 270.66 135.03 270.66H135.02V270.65ZM155.1 91.44C149.73 93.88 144.18 98.48 143.92 107.13L143.41 123.02H21.68L21.16 107.06C20.9 98.48 15.35 93.88 9.98 91.45V87.56H155.1V91.45V91.44ZM9.98 70.36C9.98 67.96 10.36 65.6 11.12 63.32C11.15 63.24 11.17 63.16 11.19 63.09L18.35 37.53C19.24 34.37 22.15 32.16 25.43 32.16H139.65C142.93 32.16 145.85 34.37 146.73 37.53L153.89 63.09C153.91 63.17 153.94 63.25 153.96 63.32C154.72 65.59 155.1 67.96 155.1 70.36V77.56H9.98V70.36ZM89.94 9.99H129.8V22.15H89.94V9.99Z" fill="var(--fill-0, black)"/>
<path d="M108.12 183.99C105.52 183.06 102.66 184.42 101.73 187.02C99.38 193.61 91.53 198.21 82.64 198.21C73.75 198.21 65.9 193.61 63.55 187.02C62.62 184.42 59.76 183.06 57.16 183.99C54.56 184.92 53.2 187.78 54.13 190.38C57.93 201.04 69.39 208.21 82.64 208.21C95.89 208.21 107.35 201.05 111.15 190.38C112.08 187.78 110.72 184.92 108.12 183.99Z" fill="var(--fill-0, black)"/>
<path d="M36.45 173.06C31.37 173.06 27.54 175.53 27.54 178.8C27.54 182.07 31.37 184.54 36.45 184.54C41.53 184.54 45.36 182.07 45.36 178.8C45.36 175.53 41.53 173.06 36.45 173.06Z" fill="var(--fill-0, black)"/>
<path d="M128.83 173.06C123.75 173.06 119.92 175.53 119.92 178.8C119.92 182.07 123.75 184.54 128.83 184.54C133.91 184.54 137.74 182.07 137.74 178.8C137.74 175.53 133.91 173.06 128.83 173.06Z" fill="var(--fill-0, black)"/>
<path d="M108.49 175.06H108.95C118.8 174.9 126.76 166.84 126.76 156.95C126.76 154.19 124.52 151.95 121.76 151.95C119 151.95 116.76 154.19 116.76 156.95C116.76 161.4 113.16 165.02 108.72 165.06C104.28 165.02 100.68 161.4 100.68 156.95C100.68 154.19 98.44 151.95 95.68 151.95C92.92 151.95 90.68 154.19 90.68 156.95C90.68 166.84 98.64 174.9 108.49 175.06Z" fill="var(--fill-0, black)"/>
<path d="M55.56 175.06H56.02C65.87 174.9 73.83 166.84 73.83 156.95C73.83 154.19 71.59 151.95 68.83 151.95C66.07 151.95 63.83 154.19 63.83 156.95C63.83 161.4 60.23 165.02 55.79 165.06C51.35 165.02 47.75 161.4 47.75 156.95C47.75 154.19 45.51 151.95 42.75 151.95C39.99 151.95 37.75 154.19 37.75 156.95C37.75 166.84 45.71 174.9 55.56 175.06Z" fill="var(--fill-0, black)"/>
</g>
</svg>
