<svg preserveAspectRatio="xMidYMid meet" width="380" height="380" overflow="visible" style="display: block;" viewBox="-57.0050 0.0000 350.2580 350.2580" fill="none" xmlns="http://www.w3.org/2000/svg">
<g id="Vector">
<path d="M211.798 22.968C211.488 22.238 211.208 21.468 210.978 20.628C209.908 16.668 209.648 13.628 209.488 10.598C206.908 10.258 203.258 9.90798 199.528 10.018C196.328 10.118 193.648 10.508 191.768 10.878C191.768 11.038 191.768 11.188 191.768 11.348C191.848 14.828 191.948 19.468 190.668 24.028C198.548 23.548 205.818 23.208 211.788 22.968H211.798Z" fill="var(--fill-0, #FFED00)"/>
<path d="M14.2975 136.378L26.3075 147.348C29.6075 144.458 34.9575 139.878 40.2375 135.858C45.6075 131.768 51.8275 128.138 55.8275 125.938L47.9775 108.188L14.2975 136.378Z" fill="#E6007E"/>
<path d="M85.7375 57.238L9.99752 121.458C9.94752 122.578 10.0575 124.448 10.3075 126.678L85.8175 63.478L85.7375 57.238Z" fill="#E6007E"/>
<path d="M98.8175 131.618C99.9175 135.178 101.138 140.278 101.488 146.298C102.078 156.148 100.218 162.378 99.1475 165.058L108.778 337.308C108.868 338.958 110.228 340.238 111.878 340.238H217.518C219.198 340.238 220.588 338.878 220.628 337.198L225.158 129.868L98.8075 131.618H98.8175ZM175.788 163.798C178.548 163.798 180.788 166.038 180.788 168.798C180.788 173.248 184.388 176.868 188.828 176.908C193.268 176.868 196.868 173.248 196.868 168.798C196.868 166.038 199.108 163.798 201.868 163.798C204.628 163.798 206.868 166.038 206.868 168.798C206.868 178.688 198.908 186.748 189.058 186.908H188.608C178.758 186.748 170.798 178.688 170.798 168.798C170.798 166.038 173.038 163.798 175.798 163.798H175.788ZM122.858 163.798C125.618 163.798 127.858 166.038 127.858 168.798C127.858 173.248 131.458 176.868 135.898 176.908C140.338 176.868 143.938 173.248 143.938 168.798C143.938 166.038 146.178 163.798 148.938 163.798C151.698 163.798 153.938 166.038 153.938 168.798C153.938 178.688 145.978 186.748 136.128 186.908H135.678C125.828 186.748 117.868 178.688 117.868 168.798C117.868 166.038 120.108 163.798 122.868 163.798H122.858ZM116.558 196.388C111.478 196.388 107.648 193.918 107.648 190.648C107.648 187.378 111.478 184.908 116.558 184.908C121.638 184.908 125.468 187.378 125.468 190.648C125.468 193.918 121.638 196.388 116.558 196.388ZM191.258 202.218C187.458 212.878 175.998 220.048 162.748 220.048C149.498 220.048 138.038 212.888 134.238 202.218C133.308 199.618 134.668 196.758 137.268 195.828C139.868 194.898 142.728 196.258 143.658 198.858C146.008 205.448 153.858 210.048 162.748 210.048C171.638 210.048 179.488 205.448 181.838 198.858C182.768 196.258 185.628 194.898 188.228 195.828C190.828 196.758 192.188 199.618 191.258 202.218ZM208.938 196.388C203.858 196.388 200.028 193.918 200.028 190.648C200.028 187.378 203.858 184.908 208.938 184.908C214.018 184.908 217.848 187.378 217.848 190.648C217.848 193.918 214.018 196.388 208.938 196.388Z" fill="white"/>
<path d="M188.228 195.828C185.628 194.898 182.768 196.258 181.838 198.858C179.488 205.448 171.638 210.048 162.748 210.048C153.858 210.048 146.008 205.448 143.658 198.858C142.728 196.258 139.868 194.898 137.268 195.828C134.668 196.758 133.308 199.618 134.238 202.218C138.038 212.878 149.498 220.048 162.748 220.048C175.998 220.048 187.458 212.888 191.258 202.218C192.188 199.618 190.828 196.758 188.228 195.828Z" fill="black"/>
<path d="M116.558 184.908C111.478 184.908 107.648 187.378 107.648 190.648C107.648 193.918 111.478 196.388 116.558 196.388C121.638 196.388 125.468 193.918 125.468 190.648C125.468 187.378 121.638 184.908 116.558 184.908Z" fill="black"/>
<path d="M208.938 184.908C203.858 184.908 200.028 187.378 200.028 190.648C200.028 193.918 203.858 196.388 208.938 196.388C214.018 196.388 217.848 193.918 217.848 190.648C217.848 187.378 214.018 184.908 208.938 184.908Z" fill="black"/>
<path d="M189.048 186.898C198.898 186.738 206.858 178.678 206.858 168.788C206.858 166.028 204.618 163.788 201.858 163.788C199.098 163.788 196.858 166.028 196.858 168.788C196.858 173.238 193.258 176.858 188.818 176.898C184.378 176.858 180.778 173.238 180.778 168.788C180.778 166.028 178.538 163.788 175.778 163.788C173.018 163.788 170.778 166.028 170.778 168.788C170.778 178.678 178.738 186.738 188.588 186.898H189.048Z" fill="black"/>
<path d="M136.128 186.898C145.978 186.738 153.938 178.678 153.938 168.788C153.938 166.028 151.698 163.788 148.938 163.788C146.178 163.788 143.938 166.028 143.938 168.788C143.938 173.238 140.338 176.858 135.898 176.898C131.458 176.858 127.858 173.238 127.858 168.788C127.858 166.028 125.618 163.788 122.858 163.788C120.098 163.788 117.858 166.028 117.858 168.788C117.858 178.678 125.818 186.738 135.668 186.898H136.128Z" fill="black"/>
<path d="M46.2875 143.818C41.6475 147.348 36.9075 151.368 33.6975 154.168L39.0975 159.858C41.5575 158.488 45.4775 156.098 50.4375 152.438C56.0775 148.278 60.8275 144.108 63.6375 141.528L60.0275 135.028C56.3175 137.088 50.9075 140.278 46.2775 143.808H46.2875V143.818Z" fill="#E6007E"/>
<path d="M225.218 84.028L95.9875 85.828L96.5575 121.648L226.128 119.848L225.218 84.028Z" fill="#E6007E"/>
<path d="M236.248 124.658L235.078 78.538C235.078 78.138 234.998 77.758 234.898 77.388L233.768 30.928C233.708 28.618 232.758 26.478 231.078 24.888C229.568 23.448 227.628 22.638 225.568 22.538V22.508C224.688 22.468 221.718 22.028 220.638 18.038C219.678 14.478 219.558 11.898 219.398 8.63798L219.368 8.06798C219.198 4.55798 216.558 1.59798 213.088 1.02798C210.348 0.577983 204.898 -0.152017 199.218 0.0279832C194.008 0.187983 189.908 0.987983 187.388 1.62798C184.098 2.46798 181.768 5.41798 181.738 8.82798C181.738 9.67798 181.738 10.608 181.778 11.608C181.858 15.058 181.958 18.958 180.768 22.258C179.938 24.558 178.248 24.878 177.748 24.918H177.828C169.218 25.558 160.328 26.368 151.918 27.368C123.828 30.718 100.438 37.398 91.6875 40.118C90.3775 40.528 89.2275 41.228 88.2775 42.148C87.9575 42.318 87.6475 42.518 87.3575 42.758L2.34752 114.838C2.05752 115.078 1.79752 115.358 1.57752 115.658C0.63752 116.908 -1.55248 119.848 1.78752 137.168C1.78752 137.198 1.80752 137.228 1.80752 137.268C1.80752 137.328 1.83752 137.378 1.84752 137.438C1.90752 137.698 1.99752 137.938 2.09752 138.178C2.11752 138.228 2.13752 138.278 2.15752 138.328C2.27752 138.598 2.42752 138.848 2.59752 139.088C2.63752 139.138 2.67752 139.188 2.71752 139.238C2.88752 139.468 3.07752 139.678 3.28752 139.878C3.28752 139.878 3.30752 139.908 3.32752 139.918L26.2275 160.848L33.5475 168.568C34.8575 169.948 36.6175 170.668 38.4075 170.668C39.4375 170.668 40.4675 170.428 41.4375 169.938C43.9275 168.688 49.1675 165.798 56.3575 160.498C63.9975 154.858 70.1075 149.218 72.3775 147.058C74.5875 144.948 75.0975 141.608 73.6175 138.938L68.0475 128.898L55.9475 101.528L85.9675 76.398L86.0275 80.968C86.0275 81.168 86.0675 81.358 86.0875 81.548C85.9875 81.958 85.9175 82.388 85.9175 82.838L86.6175 126.818C86.6375 127.798 86.9375 128.698 87.4375 129.458C87.5175 129.828 87.6175 130.198 87.7875 130.548C87.8175 130.618 90.9375 137.488 91.4975 146.908C92.0875 156.808 89.6775 161.788 89.6775 161.788C89.2475 162.598 89.0375 163.508 89.0975 164.428L98.7975 337.878C99.1875 344.818 104.938 350.258 111.888 350.258H217.528C224.598 350.258 230.478 344.508 230.628 337.438L235.208 127.808C235.888 126.908 236.268 125.808 236.248 124.668V124.658ZM111.898 340.238C110.248 340.238 108.888 338.948 108.798 337.308L99.1675 165.058C100.228 162.388 102.088 156.148 101.508 146.298C101.148 140.288 99.9275 135.178 98.8375 131.618L225.188 129.868L220.658 337.198C220.618 338.878 219.228 340.238 217.548 340.238H111.898ZM63.6375 141.538C60.8275 144.118 56.0775 148.278 50.4375 152.448C45.4775 156.108 41.5475 158.488 39.0975 159.868L33.6975 154.178C36.9075 151.378 41.6475 147.368 46.2875 143.828C50.9175 140.308 56.3175 137.108 60.0375 135.048L63.6475 141.548H63.6375V141.538ZM40.2275 135.858C34.9475 139.878 29.5975 144.448 26.2975 147.348L14.2875 136.378L47.9675 108.188L55.8175 125.938C51.8175 128.138 45.5975 131.768 40.2275 135.858ZM10.3075 126.678C10.0675 124.448 9.94752 122.578 9.99752 121.458L85.7375 57.238L85.8175 63.478L10.3075 126.678ZM191.778 11.348C191.778 11.188 191.778 11.028 191.778 10.878C193.658 10.508 196.338 10.108 199.538 10.018C203.258 9.89798 206.918 10.248 209.498 10.598C209.658 13.628 209.928 16.668 210.988 20.628C211.218 21.468 211.498 22.238 211.808 22.968C205.838 23.208 198.578 23.558 190.688 24.028C191.968 19.468 191.868 14.828 191.788 11.348H191.778ZM96.5575 121.648L95.9875 85.818L225.218 84.028L226.128 119.848L96.5575 121.648ZM223.808 32.548L224.818 74.038L95.9775 75.828L95.6475 49.358C103.408 46.998 126.318 40.488 153.118 37.288C180.258 34.048 212.568 32.878 223.808 32.548Z" fill="black"/>
<path d="M95.9775 75.818L224.818 74.028L223.808 32.538C212.558 32.868 180.258 34.038 153.118 37.278C126.318 40.478 103.408 46.978 95.6475 49.348L95.9775 75.818Z" fill="var(--fill-0, #FFED00)"/>
</g>
</svg>
