<svg preserveAspectRatio="xMidYMid meet" width="380" height="380" overflow="visible" style="display: block;" viewBox="0.0000 -25.8135 343.6350 343.6350" fill="none" xmlns="http://www.w3.org/2000/svg">
<g id="Vector">
<path d="M162.377 271.349C171.557 268.989 180.037 265.259 187.637 260.429C218.967 240.519 235.487 201.989 225.757 164.139C223.027 153.529 218.467 143.869 212.507 135.409L130.817 273.589C141.107 274.739 151.767 274.079 162.377 271.349Z" fill="#FFED00"/>
<path d="M118.547 100.759C95.7668 106.619 76.6268 120.989 64.6568 141.239C52.6868 161.489 49.3168 185.189 55.1768 207.969C57.9068 218.579 62.4668 228.239 68.4268 236.699L150.117 98.519C139.827 97.369 129.167 98.029 118.557 100.759H118.547Z" fill="#FFED00"/>
<path d="M62.8968 246.049L58.9868 252.659C58.3168 253.799 58.1168 255.159 58.4468 256.449C58.7768 257.729 59.6068 258.839 60.7468 259.509L114.537 291.309C116.917 292.719 119.987 291.929 121.387 289.549L125.297 282.939C138.107 284.959 151.527 284.469 164.867 281.039C217.247 267.579 248.897 214.029 235.447 161.649C232.017 148.309 225.987 136.309 218.037 126.059L221.007 121.029C221.677 119.889 221.877 118.529 221.547 117.239C221.217 115.959 220.387 114.859 219.247 114.179L165.457 82.379C163.777 81.389 161.767 81.489 160.227 82.459C159.587 82.869 159.027 83.429 158.607 84.129L155.637 89.159C142.827 87.139 129.407 87.629 116.067 91.059C105.897 93.669 96.3868 97.809 87.7768 103.279C74.8968 111.459 64.0468 122.619 56.0568 136.139C42.7268 158.689 38.9768 185.079 45.4968 210.449C48.9268 223.789 54.9568 235.789 62.9068 246.039L62.8968 246.049ZM55.1668 207.979C49.3168 185.199 52.6768 161.499 64.6468 141.249C76.6168 120.999 95.7568 106.629 118.537 100.769C129.147 98.039 139.807 97.389 150.097 98.529L68.4068 236.709C62.4468 228.249 57.8768 218.589 55.1568 207.979H55.1668ZM164.667 93.539L209.847 120.249L115.317 280.159L70.1368 253.449L164.667 93.539ZM225.757 164.139C235.487 201.989 218.967 240.519 187.637 260.429C180.037 265.259 171.557 268.989 162.377 271.349C151.767 274.079 141.107 274.729 130.817 273.589L212.507 135.409C218.467 143.869 223.037 153.529 225.757 164.139Z" fill="var(--fill-0, black)"/>
<path d="M164.672 93.5428L70.1405 253.451L115.325 280.162L209.857 120.254L164.672 93.5428Z" fill="#FFED00"/>
<path d="M9.21684 219.559C11.9168 218.979 13.6468 216.329 13.0668 213.629C9.58685 197.269 9.27685 180.699 12.1368 164.369C12.6168 161.649 10.7968 159.059 8.07684 158.579C6.79684 158.359 5.54684 158.639 4.53684 159.279C3.39684 160.009 2.54684 161.199 2.28684 162.639C-0.793157 180.229 -0.453157 198.089 3.28684 215.699C3.85684 218.399 6.51684 220.129 9.21684 219.549V219.559Z" fill="var(--fill-0, black)"/>
<path d="M241.657 80.379C243.647 82.299 246.807 82.239 248.727 80.259C250.647 78.269 250.587 75.109 248.607 73.189C232.687 57.819 213.317 45.719 192.577 38.199C191.057 37.649 189.447 37.879 188.187 38.679C187.287 39.249 186.567 40.109 186.167 41.189C185.227 43.789 186.567 46.649 189.167 47.599C208.587 54.649 226.747 65.979 241.657 80.389V80.379Z" fill="var(--fill-0, black)"/>
<path d="M258.067 68.589C260.017 70.549 263.187 70.559 265.137 68.619C267.097 66.669 267.107 63.509 265.167 61.549C246.117 42.349 222.577 27.519 197.117 18.669C195.617 18.149 194.037 18.379 192.787 19.169C191.867 19.749 191.137 20.639 190.747 21.749C189.837 24.359 191.217 27.209 193.827 28.109C217.867 36.469 240.077 50.459 258.067 68.589Z" fill="var(--fill-0, black)"/>
<path d="M274.017 57.529C275.927 59.519 279.097 59.599 281.087 57.679C283.077 55.769 283.147 52.609 281.237 50.609C259.457 27.859 232.237 10.449 202.537 0.269006C201.037 -0.240994 199.467 -0.000992115 198.237 0.779008C197.317 1.36901 196.577 2.25901 196.187 3.37901C195.297 5.98901 196.687 8.839 199.297 9.729C227.497 19.389 253.337 35.909 274.017 57.519V57.529Z" fill="var(--fill-0, black)"/>
<path d="M228.347 93.469C228.497 93.489 228.657 93.489 228.807 93.499C228.937 93.499 229.067 93.529 229.197 93.519C230.517 93.489 231.817 92.959 232.777 91.909C234.647 89.879 234.507 86.709 232.477 84.849C228.917 81.579 225.207 78.519 221.347 75.659C210.977 67.889 199.567 61.599 187.267 56.919C185.737 56.339 184.087 56.559 182.807 57.369C181.927 57.929 181.217 58.759 180.817 59.809C180.567 60.459 180.467 61.129 180.497 61.789C180.497 63.799 181.727 65.699 183.727 66.449C195.147 70.749 205.747 76.529 215.387 83.679C218.927 86.329 222.337 89.169 225.597 92.189C226.387 92.919 227.347 93.339 228.337 93.469H228.347Z" fill="var(--fill-0, black)"/>
<path d="M89.2468 47.389C108.777 40.639 130.017 38.029 150.677 39.829C153.427 40.069 155.857 38.029 156.097 35.279C156.337 32.529 154.307 30.099 151.547 29.859C129.507 27.929 106.827 30.719 85.9868 37.929C85.6068 38.059 85.2569 38.229 84.9369 38.439C83.0269 39.649 82.1268 42.059 82.8968 44.289C83.7968 46.899 86.6468 48.279 89.2568 47.379L89.2468 47.389Z" fill="var(--fill-0, black)"/>
<path d="M80.6068 29.309C104.547 20.679 130.617 17.569 155.997 20.339C158.747 20.639 161.207 18.649 161.507 15.909C161.807 13.169 159.827 10.699 157.077 10.399C130.187 7.469 102.567 10.759 77.2068 19.909C76.8568 20.039 76.5269 20.199 76.2169 20.389C74.2869 21.619 73.3868 24.059 74.1968 26.309C75.1368 28.909 77.9968 30.249 80.5968 29.319L80.6068 29.309Z" fill="var(--fill-0, black)"/>
<path d="M96.7568 65.319C112.647 60.109 129.087 58.019 145.627 59.109C148.377 59.289 150.767 57.209 150.947 54.449C151.127 51.689 149.047 49.309 146.287 49.129C128.467 47.949 110.747 50.209 93.6368 55.819C93.2268 55.949 92.8568 56.129 92.5068 56.349C90.6268 57.549 89.7168 59.909 90.4368 62.129C91.2968 64.749 94.1268 66.179 96.7468 65.319H96.7568Z" fill="var(--fill-0, black)"/>
<path d="M9.39684 115.719C19.1668 97.509 32.9968 81.189 49.4068 68.499C51.5868 66.809 51.9968 63.669 50.3068 61.489C48.7168 59.429 45.8268 58.959 43.6768 60.329C43.5468 60.409 43.4168 60.499 43.2968 60.599C25.7868 74.139 11.0268 91.569 0.596845 110.999C-0.713154 113.429 0.206843 116.459 2.63684 117.769C5.06684 119.069 8.09684 118.159 9.40684 115.729L9.39684 115.719Z" fill="var(--fill-0, black)"/>
<path d="M52.9568 77.969C52.7968 78.069 52.6468 78.179 52.4868 78.299C38.5968 89.519 27.1068 103.189 18.3368 118.929C16.9968 121.339 17.8568 124.389 20.2668 125.729C22.6768 127.069 25.7268 126.209 27.0668 123.799C35.2068 109.189 45.8768 96.499 58.7668 86.079C60.9168 84.339 61.2468 81.199 59.5168 79.049C57.9068 77.049 55.0668 76.619 52.9468 77.969H52.9568Z" fill="var(--fill-0, black)"/>
<path d="M306.587 115.669C303.377 116.699 304.527 112.239 304.197 109.929C304.137 108.199 304.077 106.399 304.027 104.669C303.907 102.429 304.087 101.349 303.407 100.149C302.687 98.809 300.897 98.269 299.577 98.999C298.737 99.409 298.237 100.119 297.787 100.899C296.837 102.559 294.607 106.539 293.117 109.169C292.237 110.749 291.717 111.779 291.047 111.899C289.797 112.129 288.707 109.079 287.987 108.009C286.667 105.829 285.567 102.659 283.607 102.279C282.447 101.909 281.157 102.489 280.517 103.469C279.977 104.229 279.887 105.079 279.897 105.979C279.907 108.009 279.967 113.219 279.997 116.569C279.857 118.639 280.667 120.539 278.287 120.309C275.637 120.079 271.977 117.399 269.617 119.559C267.407 122.029 270.267 124.699 271.667 126.879C272.607 128.489 275.357 130.909 272.887 131.969C270.037 133.189 263.717 135.769 260.837 136.969C257.927 137.739 256.547 141.269 259.557 142.889C260.347 143.289 261.177 143.299 262.047 143.329C264.887 143.439 271.707 143.679 274.047 143.779C274.467 143.799 274.987 143.879 275.277 144.109L275.347 144.159C276.447 145.379 273.437 148.309 272.577 149.979C271.667 151.339 270.687 152.809 269.827 154.099C269.097 155.199 268.627 156.089 268.817 157.319C268.997 159.039 270.707 159.779 272.267 159.779C272.957 159.869 273.927 159.909 274.307 160.729C275.277 163.289 273.377 168.359 277.017 169.109C278.807 169.439 280.137 168.039 280.917 166.589C281.957 164.889 283.857 161.659 284.807 160.169C285.537 159.109 286.137 158.859 286.657 159.179C287.257 159.469 288.167 161.499 288.977 162.899C291.057 166.679 294.207 172.399 295.417 174.599C296.147 176.399 298.387 177.749 300.187 176.519C302.257 175.139 301.717 172.239 302.237 169.729C302.807 165.419 303.357 160.259 303.947 156.189C304.367 154.449 305.847 155.209 307.267 156.039C310.347 157.709 316.647 161.129 319.067 162.439C320.487 163.369 322.507 163.659 323.767 162.269C325.277 160.129 324.157 158.759 322.807 156.249C322.017 154.819 321.207 153.339 320.417 151.909C319.427 149.579 316.307 146.449 318.987 145.409C322.827 143.609 338.147 136.609 341.937 134.789C344.967 133.079 343.647 128.939 340.307 128.949C336.667 128.729 319.627 127.729 315.987 127.499C315.547 127.469 315.047 127.359 314.847 126.979C314.507 126.369 315.037 125.659 315.487 125.169C317.477 123.039 321.727 119.099 323.667 116.799C325.597 114.089 322.947 111.169 320.007 112.129C316.867 112.929 309.457 114.919 306.627 115.639L306.587 115.669Z" fill="var(--fill-0, black)"/>
</g>
</svg>
