<svg preserveAspectRatio="xMidYMid meet" width="380" height="380" overflow="visible" style="display: block;" viewBox="-118.4630 0.0000 375.9500 375.9500" fill="none" xmlns="http://www.w3.org/2000/svg">
<g id="Vector">
<path d="M128.69 74.52H10.32C10.14 74.52 9.99 74.67 9.99 74.85V360.13C9.99 363.34 12.6 365.95 15.81 365.95H123.19C126.4 365.95 129.01 363.34 129.01 360.13V74.85C129.01 74.67 128.86 74.52 128.68 74.52H128.69ZM82.55 100.62C85.31 100.62 87.55 102.86 87.55 105.62C87.55 110.07 91.15 113.69 95.59 113.73C100.03 113.69 103.63 110.07 103.63 105.62C103.63 102.86 105.87 100.62 108.63 100.62C111.39 100.62 113.63 102.86 113.63 105.62C113.63 115.51 105.67 123.57 95.82 123.73H95.36C85.51 123.57 77.55 115.51 77.55 105.62C77.55 102.86 79.79 100.62 82.55 100.62ZM29.62 100.62C32.38 100.62 34.62 102.86 34.62 105.62C34.62 110.07 38.22 113.69 42.66 113.73C47.1 113.69 50.7 110.07 50.7 105.62C50.7 102.86 52.94 100.62 55.7 100.62C58.46 100.62 60.7 102.86 60.7 105.62C60.7 115.51 52.74 123.57 42.89 123.73H42.43C32.58 123.57 24.62 115.51 24.62 105.62C24.62 102.86 26.86 100.62 29.62 100.62ZM23.32 133.21C18.24 133.21 14.41 130.74 14.41 127.47C14.41 124.2 18.24 121.73 23.32 121.73C28.4 121.73 32.23 124.2 32.23 127.47C32.23 130.74 28.4 133.21 23.32 133.21ZM98.02 139.05C94.22 149.71 82.76 156.88 69.51 156.88C56.26 156.88 44.8 149.72 41 139.05C40.07 136.45 41.43 133.59 44.03 132.66C46.63 131.73 49.49 133.09 50.42 135.69C52.77 142.28 60.62 146.88 69.51 146.88C78.4 146.88 86.25 142.28 88.6 135.69C89.53 133.09 92.39 131.73 94.99 132.66C97.59 133.59 98.95 136.45 98.02 139.05ZM115.7 133.21C110.62 133.21 106.79 130.74 106.79 127.47C106.79 124.2 110.62 121.73 115.7 121.73C120.78 121.73 124.61 124.2 124.61 127.47C124.61 130.74 120.78 133.21 115.7 133.21Z" fill="var(--fill-0, #71C4E9)"/>
<path d="M138.44 71.45C138.96 70.48 139.14 69.36 138.95 68.25C138.92 68.08 136.02 51.11 136.02 37.05C136.02 22.99 138.92 6.02 138.95 5.85C139.2 4.4 138.8 2.91 137.85 1.78C136.9 0.65 135.5 0 134.03 0H5C3.53 0 2.13 0.65 1.18 1.78C0.23 2.91 -0.17 4.4 0.08 5.85C0.11 6.02 3.01 22.99 3.01 37.05C3.01 51.11 0.11 68.08 0.08 68.25C-0.11 69.35 0.08 70.47 0.59 71.45C0.22 72.52 0 73.66 0 74.85V360.13C0 368.85 7.1 375.95 15.82 375.95H123.2C131.92 375.95 139.02 368.85 139.02 360.13V74.85C139.02 73.66 138.81 72.52 138.43 71.45H138.44ZM129.02 360.12C129.02 363.33 126.41 365.94 123.2 365.94H15.82C12.61 365.94 10 363.33 10 360.12V74.85C10 74.67 10.15 74.52 10.33 74.52H128.7C128.88 74.52 129.03 74.67 129.03 74.85V360.13L129.02 360.12ZM10.82 10.01H128.2C127.44 15.39 126.44 23.76 126.13 32.06H12.9C12.58 23.76 11.58 15.39 10.83 10.01H10.82ZM126.12 42.06C126.44 50.36 127.44 58.73 128.19 64.11H10.81C11.57 58.73 12.57 50.36 12.88 42.06H126.12Z" fill="black"/>
<path d="M94.99 132.66C92.39 131.73 89.53 133.09 88.6 135.69C86.25 142.28 78.4 146.88 69.51 146.88C60.62 146.88 52.77 142.28 50.42 135.69C49.49 133.09 46.63 131.73 44.03 132.66C41.43 133.59 40.07 136.45 41 139.05C44.8 149.71 56.26 156.88 69.51 156.88C82.76 156.88 94.22 149.72 98.02 139.05C98.95 136.45 97.59 133.59 94.99 132.66Z" fill="black"/>
<path d="M23.32 121.73C18.24 121.73 14.41 124.2 14.41 127.47C14.41 130.74 18.24 133.21 23.32 133.21C28.4 133.21 32.23 130.74 32.23 127.47C32.23 124.2 28.4 121.73 23.32 121.73Z" fill="black"/>
<path d="M115.7 121.73C110.62 121.73 106.79 124.2 106.79 127.47C106.79 130.74 110.62 133.21 115.7 133.21C120.78 133.21 124.61 130.74 124.61 127.47C124.61 124.2 120.78 121.73 115.7 121.73Z" fill="black"/>
<path d="M95.36 123.73H95.82C105.67 123.57 113.63 115.51 113.63 105.62C113.63 102.86 111.39 100.62 108.63 100.62C105.87 100.62 103.63 102.86 103.63 105.62C103.63 110.07 100.03 113.69 95.59 113.73C91.15 113.69 87.55 110.07 87.55 105.62C87.55 102.86 85.31 100.62 82.55 100.62C79.79 100.62 77.55 102.86 77.55 105.62C77.55 115.51 85.51 123.57 95.36 123.73Z" fill="black"/>
<path d="M42.44 123.73H42.9C52.75 123.57 60.71 115.51 60.71 105.62C60.71 102.86 58.47 100.62 55.71 100.62C52.95 100.62 50.71 102.86 50.71 105.62C50.71 110.07 47.11 113.69 42.67 113.73C38.23 113.69 34.63 110.07 34.63 105.62C34.63 102.86 32.39 100.62 29.63 100.62C26.87 100.62 24.63 102.86 24.63 105.62C24.63 115.51 32.59 123.57 42.44 123.73Z" fill="black"/>
<path d="M128.2 10.01H10.82C11.58 15.39 12.58 23.76 12.89 32.06H126.12C126.44 23.76 127.44 15.39 128.19 10.01H128.2Z" fill="var(--fill-0, #71C4E9)"/>
<path d="M128.2 64.1C127.44 58.72 126.44 50.35 126.13 42.05H12.9C12.58 50.35 11.58 58.72 10.83 64.1H128.21H128.2Z" fill="var(--fill-0, #71C4E9)"/>
</g>
</svg>
